{"glyphs":{"0":{"ha":843,"x_min":64,"x_max":779,"o":"m 421 -14 q 230 47 310 -14 q 107 220 150 108 q 64 486 64 332 q 107 752 64 640 q 230 925 150 864 q 421 986 310 986 q 613 925 532 986 q 736 752 693 864 q 779 486 779 640 q 736 220 779 332 q 613 47 693 108 q 421 -14 532 -14 m 421 122 q 578 217 522 122 q 633 486 633 313 q 578 755 633 660 q 421 850 522 850 q 264 755 319 850 q 208 486 208 660 q 264 217 208 313 q 421 122 319 122 z "},"1":{"ha":694,"x_min":121,"x_max":611,"o":"m 147 0 l 147 144 l 301 144 l 301 790 l 161 717 l 121 847 l 381 986 l 453 986 l 453 144 l 611 144 l 611 0 l 147 0 z "},"2":{"ha":761,"x_min":71,"x_max":717,"o":"m 129 0 l 83 114 l 381 449 q 447 528 411 483 q 507 619 482 572 q 532 707 532 667 q 493 810 532 774 q 386 847 454 847 q 269 795 326 847 q 186 657 213 743 l 71 729 q 195 918 106 850 q 404 986 285 986 q 550 952 486 986 q 650 858 614 918 q 686 718 686 797 q 640 548 686 638 q 488 343 593 458 l 306 144 l 717 144 l 717 0 l 129 0 z "},"3":{"ha":735,"x_min":28,"x_max":686,"o":"m 349 -14 q 170 33 246 -14 q 28 192 94 81 l 144 265 q 248 153 196 188 q 360 118 300 118 q 450 142 408 118 q 517 210 492 167 q 542 307 542 253 q 498 433 542 389 q 376 478 454 478 q 208 436 311 478 l 167 546 l 428 833 l 82 833 l 82 972 l 639 972 l 667 917 l 394 615 q 542 575 476 615 q 647 467 608 535 q 686 315 686 399 q 641 147 686 221 q 519 29 596 72 q 349 -14 443 -14 z "},"4":{"ha":861,"x_min":42,"x_max":803,"o":"m 489 0 l 489 264 l 106 264 l 42 389 l 518 972 l 633 972 l 633 401 l 803 401 l 803 264 l 633 264 l 633 0 l 489 0 m 218 401 l 489 401 l 489 732 l 218 401 z "},"5":{"ha":789,"x_min":54,"x_max":706,"o":"m 357 -10 q 183 34 261 -10 q 54 160 106 78 l 138 253 q 251 154 203 181 q 357 128 300 128 q 460 153 414 128 q 533 221 506 178 q 560 317 560 264 q 534 416 560 372 q 465 485 508 460 q 368 511 422 511 q 318 508 342 511 q 261 492 294 504 q 174 453 228 479 l 94 560 l 151 972 l 676 972 l 676 833 l 271 833 l 239 618 q 314 641 271 632 q 394 650 357 650 q 553 609 483 650 q 665 496 624 568 q 706 331 706 424 q 660 158 706 235 q 535 35 614 81 q 357 -10 456 -10 z "},"6":{"ha":774,"x_min":56,"x_max":725,"o":"m 393 0 q 221 44 297 0 q 100 167 144 89 q 56 343 56 244 q 98 529 56 418 q 221 775 140 640 l 347 989 l 493 989 l 499 975 l 346 718 q 310 654 326 686 q 428 679 365 679 q 576 635 508 679 q 684 519 643 592 q 725 361 725 447 q 683 176 725 257 q 565 47 640 94 q 393 0 490 0 m 393 139 q 527 196 474 139 q 581 343 581 253 q 556 440 581 394 q 489 513 531 485 q 396 540 447 540 q 294 514 339 540 q 225 443 250 488 q 200 344 200 399 q 225 240 200 286 q 293 166 250 193 q 393 139 336 139 z "},"7":{"ha":753,"x_min":83,"x_max":704,"o":"m 156 0 l 538 833 l 83 833 l 83 972 l 685 972 l 704 876 l 317 0 l 156 0 z "},"8":{"ha":804,"x_min":74,"x_max":731,"o":"m 401 -4 q 237 34 311 -4 q 118 136 163 72 q 74 278 74 200 q 226 518 74 433 q 131 597 165 547 q 97 707 97 646 q 138 840 97 781 q 248 936 179 900 q 401 972 317 972 q 555 936 486 972 q 665 840 624 900 q 706 707 706 781 q 572 517 706 581 q 688 415 644 479 q 731 278 731 350 q 686 135 731 199 q 567 33 642 71 q 401 -4 493 -4 m 401 575 q 513 611 468 575 q 557 703 557 647 q 513 796 557 758 q 401 833 468 833 q 290 796 335 833 q 246 703 246 758 q 290 611 246 647 q 401 575 335 575 m 401 135 q 531 177 479 135 q 582 283 582 219 q 531 397 582 351 q 401 442 479 442 q 274 397 325 442 q 222 283 222 351 q 274 178 222 221 q 401 135 325 135 z "},"9":{"ha":765,"x_min":42,"x_max":717,"o":"m 317 0 l 311 14 l 486 385 q 335 338 414 338 q 189 379 256 338 q 82 490 122 421 q 42 642 42 560 q 86 819 42 740 q 208 943 131 897 q 381 989 285 989 q 550 945 474 989 q 672 828 626 901 q 717 664 717 754 q 704 562 717 618 q 661 428 692 506 q 579 242 631 351 l 464 0 l 317 0 m 367 476 q 464 501 421 476 q 531 566 507 525 q 556 658 556 607 q 503 795 556 740 q 369 850 451 850 q 245 797 294 850 q 196 660 196 744 q 219 569 196 611 q 281 502 242 528 q 367 476 319 476 z "},"A":{"ha":972,"x_min":35,"x_max":938,"o":"m 35 0 l 411 972 l 564 972 l 938 0 l 778 0 l 686 242 l 279 242 l 188 0 l 35 0 m 408 581 l 335 386 l 632 386 l 556 586 q 539 635 551 596 q 511 721 526 674 q 483 804 496 768 q 458 725 472 768 q 431 643 444 682 q 408 581 418 604 z "},"Á":{"ha":972,"x_min":35,"x_max":938,"o":"m 35 0 l 411 972 l 564 972 l 938 0 l 778 0 l 686 242 l 279 242 l 188 0 l 35 0 m 408 581 l 335 386 l 632 386 l 556 586 q 539 635 551 596 q 511 721 526 674 q 483 804 496 768 q 458 725 472 768 q 431 643 444 682 q 408 581 418 604 m 392 1049 l 353 1121 l 607 1278 l 672 1153 l 392 1049 z "},"Ă":{"ha":972,"x_min":35,"x_max":938,"o":"m 35 0 l 411 972 l 564 972 l 938 0 l 778 0 l 686 242 l 279 242 l 188 0 l 35 0 m 408 581 l 335 386 l 632 386 l 556 586 q 539 635 551 596 q 511 721 526 674 q 483 804 496 768 q 458 725 472 768 q 431 643 444 682 q 408 581 418 604 m 486 1043 q 383 1069 429 1043 q 305 1137 336 1094 q 261 1229 274 1179 l 364 1246 q 411 1183 379 1211 q 486 1156 443 1156 q 561 1183 529 1156 q 608 1246 593 1211 l 711 1229 q 668 1137 700 1179 q 590 1069 636 1094 q 486 1043 544 1043 z "},"Ắ":{"ha":972,"x_min":35,"x_max":938,"o":"m 35 0 l 411 972 l 564 972 l 938 0 l 778 0 l 686 242 l 279 242 l 188 0 l 35 0 m 408 581 l 335 386 l 632 386 l 556 586 q 539 635 551 596 q 511 721 526 674 q 483 804 496 768 q 458 725 472 768 q 431 643 444 682 q 408 581 418 604 m 494 1229 l 428 1282 l 543 1485 l 663 1397 l 494 1229 m 486 1043 q 340 1093 400 1043 q 261 1229 279 1143 l 358 1246 q 410 1173 378 1196 q 486 1150 443 1150 q 562 1173 529 1150 q 614 1246 594 1196 l 711 1229 q 633 1093 693 1143 q 486 1043 572 1043 z "},"Ặ":{"ha":972,"x_min":35,"x_max":938,"o":"m 35 0 l 411 972 l 564 972 l 938 0 l 778 0 l 686 242 l 279 242 l 188 0 l 35 0 m 408 581 l 335 386 l 632 386 l 556 586 q 539 635 551 596 q 511 721 526 674 q 483 804 496 768 q 458 725 472 768 q 431 643 444 682 q 408 581 418 604 m 486 -286 q 415 -262 440 -286 q 390 -196 390 -239 q 416 -131 390 -156 q 486 -106 442 -106 q 557 -129 532 -106 q 582 -196 582 -153 q 556 -261 582 -236 q 486 -286 531 -286 m 486 1043 q 383 1069 429 1043 q 305 1137 336 1094 q 261 1229 274 1179 l 364 1246 q 411 1183 379 1211 q 486 1156 443 1156 q 561 1183 529 1156 q 608 1246 593 1211 l 711 1229 q 668 1137 700 1179 q 590 1069 636 1094 q 486 1043 544 1043 z "},"Ằ":{"ha":972,"x_min":35,"x_max":938,"o":"m 35 0 l 411 972 l 564 972 l 938 0 l 778 0 l 686 242 l 279 242 l 188 0 l 35 0 m 408 581 l 335 386 l 632 386 l 556 586 q 539 635 551 596 q 511 721 526 674 q 483 804 496 768 q 458 725 472 768 q 431 643 444 682 q 408 581 418 604 m 485 1229 l 317 1397 l 436 1485 l 551 1282 l 485 1229 m 486 1043 q 340 1093 400 1043 q 261 1229 279 1143 l 358 1246 q 486 1150 399 1150 q 562 1173 529 1150 q 614 1246 594 1196 l 711 1229 q 633 1093 693 1143 q 486 1043 572 1043 z "},"Ẳ":{"ha":972,"x_min":35,"x_max":938,"o":"m 35 0 l 411 972 l 564 972 l 938 0 l 778 0 l 686 242 l 279 242 l 188 0 l 35 0 m 408 581 l 335 386 l 632 386 l 556 586 q 539 635 551 596 q 511 721 526 674 q 483 804 496 768 q 458 725 472 768 q 431 643 444 682 q 408 581 418 604 m 458 1229 q 444 1253 450 1240 q 438 1278 438 1265 q 444 1303 438 1290 q 475 1332 450 1315 q 517 1368 517 1360 q 505 1386 517 1381 q 475 1392 493 1392 q 376 1367 426 1392 l 354 1454 q 417 1479 383 1471 q 478 1488 450 1488 q 588 1456 551 1488 q 625 1381 625 1425 q 608 1334 625 1351 q 574 1306 590 1317 q 525 1263 525 1276 q 529 1247 525 1256 l 458 1229 m 486 1043 q 340 1093 400 1043 q 261 1229 279 1143 l 358 1246 q 410 1173 378 1196 q 486 1150 443 1150 q 562 1173 529 1150 q 614 1246 594 1196 l 711 1229 q 633 1093 693 1143 q 486 1043 572 1043 z "},"Ẵ":{"ha":972,"x_min":35,"x_max":938,"o":"m 35 0 l 411 972 l 564 972 l 938 0 l 778 0 l 686 242 l 279 242 l 188 0 l 35 0 m 408 581 l 335 386 l 632 386 l 556 586 q 539 635 551 596 q 511 721 526 674 q 483 804 496 768 q 458 725 472 768 q 431 643 444 682 q 408 581 418 604 m 594 1301 q 533 1311 561 1301 q 481 1331 504 1321 q 439 1349 456 1342 q 408 1356 422 1356 q 376 1342 390 1356 q 357 1304 363 1328 l 263 1318 q 304 1417 265 1375 q 399 1460 343 1460 q 452 1450 428 1460 q 501 1429 476 1440 q 538 1413 519 1421 q 571 1406 557 1406 q 617 1458 606 1406 l 711 1444 q 679 1344 708 1386 q 594 1301 650 1301 m 486 1043 q 340 1089 400 1043 q 261 1215 279 1135 l 358 1232 q 410 1169 378 1189 q 486 1150 443 1150 q 562 1169 529 1150 q 614 1232 594 1189 l 711 1215 q 633 1089 693 1135 q 486 1043 572 1043 z "},"Ǎ":{"ha":972,"x_min":35,"x_max":938,"o":"m 35 0 l 411 972 l 564 972 l 938 0 l 778 0 l 686 242 l 279 242 l 188 0 l 35 0 m 408 581 l 335 386 l 632 386 l 556 586 q 539 635 551 596 q 511 721 526 674 q 483 804 496 768 q 458 725 472 768 q 431 643 444 682 q 408 581 418 604 m 426 1051 l 260 1194 l 313 1240 l 486 1163 l 660 1240 l 713 1194 l 546 1051 l 426 1051 z "},"Â":{"ha":972,"x_min":35,"x_max":938,"o":"m 35 0 l 411 972 l 564 972 l 938 0 l 778 0 l 686 242 l 279 242 l 188 0 l 35 0 m 408 581 l 335 386 l 632 386 l 556 586 q 539 635 551 596 q 511 721 526 674 q 483 804 496 768 q 458 725 472 768 q 431 643 444 682 q 408 581 418 604 m 314 1049 l 263 1097 l 435 1238 l 536 1238 l 708 1097 l 657 1049 l 486 1129 l 314 1049 z "},"Ấ":{"ha":972,"x_min":35,"x_max":938,"o":"m 35 0 l 411 972 l 564 972 l 938 0 l 778 0 l 686 242 l 279 242 l 188 0 l 35 0 m 408 581 l 335 386 l 632 386 l 556 586 q 539 635 551 596 q 511 721 526 674 q 483 804 496 768 q 458 725 472 768 q 431 643 444 682 q 408 581 418 604 m 711 1200 l 639 1250 l 753 1453 l 874 1367 l 711 1200 m 314 1049 l 268 1099 l 435 1235 l 536 1235 l 703 1099 l 657 1049 l 486 1126 l 314 1049 z "},"Ậ":{"ha":972,"x_min":35,"x_max":938,"o":"m 35 0 l 411 972 l 564 972 l 938 0 l 778 0 l 686 242 l 279 242 l 188 0 l 35 0 m 408 581 l 335 386 l 632 386 l 556 586 q 539 635 551 596 q 511 721 526 674 q 483 804 496 768 q 458 725 472 768 q 431 643 444 682 q 408 581 418 604 m 486 -286 q 415 -262 440 -286 q 390 -196 390 -239 q 416 -131 390 -156 q 486 -106 442 -106 q 557 -129 532 -106 q 582 -196 582 -153 q 556 -261 582 -236 q 486 -286 531 -286 m 314 1049 l 263 1097 l 435 1238 l 536 1238 l 708 1097 l 657 1049 l 486 1129 l 314 1049 z "},"Ầ":{"ha":972,"x_min":35,"x_max":938,"o":"m 35 0 l 411 972 l 564 972 l 938 0 l 778 0 l 686 242 l 279 242 l 188 0 l 35 0 m 408 581 l 335 386 l 632 386 l 556 586 q 539 635 551 596 q 511 721 526 674 q 483 804 496 768 q 458 725 472 768 q 431 643 444 682 q 408 581 418 604 m 715 1201 l 547 1369 l 667 1457 l 782 1254 l 715 1201 m 314 1049 l 268 1099 l 435 1235 l 536 1235 l 703 1099 l 657 1049 l 486 1126 l 314 1049 z "},"Ẩ":{"ha":972,"x_min":35,"x_max":938,"o":"m 35 0 l 411 972 l 564 972 l 938 0 l 778 0 l 686 242 l 279 242 l 188 0 l 35 0 m 408 581 l 335 386 l 632 386 l 556 586 q 539 635 551 596 q 511 721 526 674 q 483 804 496 768 q 458 725 472 768 q 431 643 444 682 q 408 581 418 604 m 672 1199 q 658 1222 664 1210 q 651 1247 651 1235 q 658 1272 651 1260 q 689 1301 664 1285 q 731 1338 731 1329 q 719 1356 731 1350 q 689 1361 707 1361 q 590 1336 640 1361 l 568 1424 q 631 1449 597 1440 q 692 1457 664 1457 q 802 1426 765 1457 q 839 1350 839 1394 q 822 1303 839 1321 q 788 1275 804 1286 q 739 1232 739 1246 q 743 1217 739 1225 l 672 1199 m 314 1049 l 268 1099 l 435 1235 l 536 1235 l 703 1099 l 657 1049 l 486 1126 l 314 1049 z "},"Ẫ":{"ha":972,"x_min":35,"x_max":938,"o":"m 35 0 l 411 972 l 564 972 l 938 0 l 778 0 l 686 242 l 279 242 l 188 0 l 35 0 m 408 581 l 335 386 l 632 386 l 556 586 q 539 635 551 596 q 511 721 526 674 q 483 804 496 768 q 458 725 472 768 q 431 643 444 682 q 408 581 418 604 m 593 1301 q 531 1311 560 1301 q 479 1331 503 1321 q 438 1349 454 1342 q 407 1356 421 1356 q 356 1304 367 1356 l 261 1318 q 303 1417 264 1375 q 397 1460 342 1460 q 451 1450 426 1460 q 500 1429 475 1440 q 537 1413 518 1421 q 569 1406 556 1406 q 615 1458 604 1406 l 710 1444 q 678 1344 707 1386 q 593 1301 649 1301 m 314 1049 l 268 1099 l 435 1235 l 536 1235 l 703 1099 l 657 1049 l 486 1126 l 314 1049 z "},"Ȁ":{"ha":972,"x_min":35,"x_max":938,"o":"m 35 0 l 411 972 l 564 972 l 938 0 l 778 0 l 686 242 l 279 242 l 188 0 l 35 0 m 408 581 l 335 386 l 632 386 l 556 586 q 539 635 551 596 q 511 721 526 674 q 483 804 496 768 q 458 725 472 768 q 431 643 444 682 q 408 581 418 604 m 640 1042 l 411 1193 l 511 1299 l 693 1108 l 640 1042 m 364 1042 l 135 1193 l 235 1299 l 417 1108 l 364 1042 z "},"Ä":{"ha":972,"x_min":35,"x_max":938,"o":"m 35 0 l 411 972 l 564 972 l 938 0 l 778 0 l 686 242 l 279 242 l 188 0 l 35 0 m 408 581 l 335 386 l 632 386 l 556 586 q 539 635 551 596 q 511 721 526 674 q 483 804 496 768 q 458 725 472 768 q 431 643 444 682 q 408 581 418 604 m 629 1054 q 557 1079 581 1054 q 533 1144 533 1104 q 557 1207 533 1179 q 629 1235 581 1235 q 701 1210 678 1235 q 725 1144 725 1185 q 701 1082 725 1110 q 629 1054 678 1054 m 343 1054 q 271 1079 294 1054 q 247 1144 247 1104 q 271 1207 247 1179 q 343 1235 294 1235 q 415 1210 392 1235 q 439 1144 439 1185 q 415 1082 439 1110 q 343 1054 392 1054 z "},"Ạ":{"ha":972,"x_min":35,"x_max":938,"o":"m 35 0 l 411 972 l 564 972 l 938 0 l 778 0 l 686 242 l 279 242 l 188 0 l 35 0 m 408 581 l 335 386 l 632 386 l 556 586 q 539 635 551 596 q 511 721 526 674 q 483 804 496 768 q 458 725 472 768 q 431 643 444 682 q 408 581 418 604 m 486 -286 q 415 -262 440 -286 q 390 -196 390 -239 q 416 -131 390 -156 q 486 -106 442 -106 q 557 -129 532 -106 q 582 -196 582 -153 q 556 -261 582 -236 q 486 -286 531 -286 z "},"À":{"ha":972,"x_min":35,"x_max":938,"o":"m 35 0 l 411 972 l 564 972 l 938 0 l 778 0 l 686 242 l 279 242 l 188 0 l 35 0 m 408 581 l 335 386 l 632 386 l 556 586 q 539 635 551 596 q 511 721 526 674 q 483 804 496 768 q 458 725 472 768 q 431 643 444 682 q 408 581 418 604 m 592 1049 l 311 1153 l 379 1278 l 633 1121 l 592 1049 z "},"Ả":{"ha":972,"x_min":35,"x_max":938,"o":"m 35 0 l 411 972 l 564 972 l 938 0 l 778 0 l 686 242 l 279 242 l 188 0 l 35 0 m 408 581 l 335 386 l 632 386 l 556 586 q 539 635 551 596 q 511 721 526 674 q 483 804 496 768 q 458 725 472 768 q 431 643 444 682 q 408 581 418 604 m 454 1053 q 433 1106 433 1081 q 441 1133 433 1118 q 471 1164 449 1149 q 513 1206 513 1192 q 501 1224 513 1218 q 471 1229 489 1229 q 372 1204 422 1229 l 350 1292 q 413 1317 379 1308 q 474 1325 446 1325 q 584 1294 547 1325 q 621 1218 621 1263 q 605 1163 621 1183 q 569 1133 589 1143 q 533 1112 544 1121 q 521 1089 521 1103 q 525 1071 521 1079 l 454 1053 z "},"Ȃ":{"ha":972,"x_min":35,"x_max":938,"o":"m 35 0 l 411 972 l 564 972 l 938 0 l 778 0 l 686 242 l 279 242 l 188 0 l 35 0 m 408 581 l 335 386 l 632 386 l 556 586 q 539 635 551 596 q 511 721 526 674 q 483 804 496 768 q 458 725 472 768 q 431 643 444 682 q 408 581 418 604 m 364 1043 l 261 1060 q 305 1152 274 1110 q 383 1220 336 1194 q 486 1246 429 1246 q 590 1220 544 1246 q 668 1152 636 1194 q 711 1060 700 1110 l 608 1043 q 561 1106 593 1078 q 486 1133 529 1133 q 411 1106 443 1133 q 364 1043 379 1078 z "},"Ā":{"ha":972,"x_min":35,"x_max":938,"o":"m 35 0 l 411 972 l 564 972 l 938 0 l 778 0 l 686 242 l 279 242 l 188 0 l 35 0 m 408 581 l 335 386 l 632 386 l 556 586 q 539 635 551 596 q 511 721 526 674 q 483 804 496 768 q 458 725 472 768 q 431 643 444 682 q 408 581 418 604 m 256 1093 l 256 1197 l 715 1197 l 715 1093 l 256 1093 z "},"Ą":{"ha":972,"x_min":35,"x_max":964,"o":"m 35 0 l 411 972 l 564 972 l 938 0 l 778 0 l 686 242 l 279 242 l 188 0 l 35 0 m 408 581 l 335 386 l 632 386 l 556 586 q 539 635 551 596 q 511 721 526 674 q 483 804 496 768 q 458 725 472 768 q 431 643 444 682 q 408 581 418 604 m 813 -278 q 738 -258 772 -278 q 682 -206 703 -239 q 661 -135 661 -174 q 719 -11 661 -65 q 876 71 776 43 l 938 0 q 832 -49 876 -14 q 788 -121 788 -83 q 801 -157 788 -143 q 835 -171 814 -171 q 886 -136 863 -171 l 964 -192 q 906 -252 950 -226 q 813 -278 863 -278 z "},"Å":{"ha":972,"x_min":35,"x_max":938,"o":"m 35 0 l 411 972 l 564 972 l 938 0 l 778 0 l 686 242 l 279 242 l 188 0 l 35 0 m 408 581 l 335 386 l 632 386 l 556 586 q 539 635 551 596 q 511 721 526 674 q 483 804 496 768 q 458 725 472 768 q 431 643 444 682 q 408 581 418 604 m 485 943 q 411 963 446 943 q 355 1017 376 983 q 333 1089 333 1050 q 355 1164 333 1131 q 411 1217 376 1197 q 485 1236 446 1236 q 560 1217 525 1236 q 616 1164 594 1197 q 638 1089 638 1131 q 616 1017 638 1050 q 560 963 594 983 q 485 943 525 943 m 485 1025 q 534 1044 514 1025 q 554 1089 554 1063 q 533 1138 554 1121 q 485 1154 513 1154 q 437 1136 457 1154 q 417 1089 417 1118 q 437 1044 417 1063 q 485 1025 457 1025 z "},"Ǻ":{"ha":972,"x_min":35,"x_max":938,"o":"m 35 0 l 411 972 l 564 972 l 938 0 l 778 0 l 686 242 l 279 242 l 188 0 l 35 0 m 408 581 l 335 386 l 632 386 l 556 586 q 539 635 551 596 q 511 721 526 674 q 483 804 496 768 q 458 725 472 768 q 431 643 444 682 q 408 581 418 604 m 485 943 q 411 963 446 943 q 355 1017 376 983 q 333 1089 333 1050 q 355 1164 333 1131 q 411 1217 376 1197 q 485 1236 446 1236 q 560 1217 525 1236 q 616 1164 594 1197 q 638 1089 638 1131 q 616 1017 638 1050 q 560 963 594 983 q 485 943 525 943 m 485 1025 q 534 1044 514 1025 q 554 1089 554 1063 q 533 1138 554 1121 q 485 1154 513 1154 q 437 1136 457 1154 q 417 1089 417 1118 q 437 1044 417 1063 q 485 1025 457 1025 m 392 1271 l 353 1343 l 607 1500 l 672 1375 l 392 1271 z "},"Ã":{"ha":972,"x_min":35,"x_max":938,"o":"m 35 0 l 411 972 l 564 972 l 938 0 l 778 0 l 686 242 l 279 242 l 188 0 l 35 0 m 408 581 l 335 386 l 632 386 l 556 586 q 539 635 551 596 q 511 721 526 674 q 483 804 496 768 q 458 725 472 768 q 431 643 444 682 q 408 581 418 604 m 589 1067 q 524 1077 557 1067 q 463 1099 492 1088 q 422 1114 439 1108 q 392 1119 406 1119 q 350 1067 350 1119 l 243 1067 q 292 1183 243 1142 q 401 1224 340 1224 q 458 1214 431 1224 q 513 1193 486 1204 q 551 1179 532 1185 q 582 1174 569 1174 q 622 1224 625 1174 l 728 1224 q 691 1115 728 1163 q 589 1067 654 1067 z "},"Æ":{"ha":1346,"x_min":7,"x_max":1242,"o":"m 7 0 l 685 972 l 1242 972 l 1242 843 l 786 843 l 786 558 l 1179 558 l 1179 428 l 786 428 l 786 129 l 1242 129 l 1242 0 l 646 0 l 646 213 l 304 213 l 158 0 l 7 0 m 646 340 l 646 713 l 390 340 l 646 340 z "},"Ǽ":{"ha":1346,"x_min":7,"x_max":1242,"o":"m 7 0 l 685 972 l 1242 972 l 1242 843 l 786 843 l 786 558 l 1179 558 l 1179 428 l 786 428 l 786 129 l 1242 129 l 1242 0 l 646 0 l 646 213 l 304 213 l 158 0 l 7 0 m 646 340 l 646 713 l 390 340 l 646 340 m 801 1049 l 763 1121 l 1017 1278 l 1082 1153 l 801 1049 z "},"B":{"ha":946,"x_min":136,"x_max":879,"o":"m 136 0 l 136 972 l 542 972 q 755 910 682 972 q 828 728 828 847 q 796 609 828 660 q 706 532 764 558 q 832 440 785 503 q 879 286 879 376 q 794 74 879 147 q 556 0 708 0 l 136 0 m 286 569 l 533 569 q 637 606 596 569 q 678 699 678 642 q 636 794 678 761 q 517 828 594 828 l 286 828 l 286 569 m 286 144 l 547 144 q 679 182 632 144 q 726 289 726 219 q 676 390 726 354 q 540 425 625 425 l 286 425 l 286 144 z "},"C":{"ha":943,"x_min":67,"x_max":893,"o":"m 531 -14 q 291 50 396 -14 q 126 226 186 114 q 67 486 67 339 q 103 680 67 590 q 206 838 140 769 q 357 943 271 906 q 543 981 443 981 q 681 959 614 981 q 803 899 749 938 q 893 813 858 861 l 793 708 q 543 831 674 831 q 379 786 453 831 q 263 664 306 742 q 219 486 219 586 q 262 301 219 379 q 380 181 304 224 q 556 138 456 138 q 689 165 625 138 q 800 242 753 193 l 875 119 q 788 51 843 82 q 666 3 733 21 q 531 -14 599 -14 z "},"Ć":{"ha":943,"x_min":67,"x_max":893,"o":"m 531 -14 q 291 50 396 -14 q 126 226 186 114 q 67 486 67 339 q 103 680 67 590 q 206 838 140 769 q 357 943 271 906 q 543 981 443 981 q 681 959 614 981 q 803 899 749 938 q 893 813 858 861 l 793 708 q 543 831 674 831 q 379 786 453 831 q 263 664 306 742 q 219 486 219 586 q 262 301 219 379 q 380 181 304 224 q 556 138 456 138 q 689 165 625 138 q 800 242 753 193 l 875 119 q 788 51 843 82 q 666 3 733 21 q 531 -14 599 -14 m 447 1049 l 408 1121 l 663 1278 l 728 1153 l 447 1049 z "},"Č":{"ha":943,"x_min":67,"x_max":893,"o":"m 531 -14 q 291 50 396 -14 q 126 226 186 114 q 67 486 67 339 q 103 680 67 590 q 206 838 140 769 q 357 943 271 906 q 543 981 443 981 q 681 959 614 981 q 803 899 749 938 q 893 813 858 861 l 793 708 q 543 831 674 831 q 379 786 453 831 q 263 664 306 742 q 219 486 219 586 q 262 301 219 379 q 380 181 304 224 q 556 138 456 138 q 689 165 625 138 q 800 242 753 193 l 875 119 q 788 51 843 82 q 666 3 733 21 q 531 -14 599 -14 m 482 1051 l 315 1194 l 368 1240 l 542 1163 l 715 1240 l 768 1194 l 601 1051 l 482 1051 z "},"Ç":{"ha":943,"x_min":67,"x_max":893,"o":"m 531 -14 q 291 50 396 -14 q 126 226 186 114 q 67 486 67 339 q 103 680 67 590 q 206 838 140 769 q 357 943 271 906 q 543 981 443 981 q 681 959 614 981 q 803 899 749 938 q 893 813 858 861 l 793 708 q 543 831 674 831 q 379 786 453 831 q 263 664 306 742 q 219 486 219 586 q 262 301 219 379 q 380 181 304 224 q 556 138 456 138 q 689 165 625 138 q 800 242 753 193 l 875 119 q 788 51 843 82 q 666 3 733 21 q 531 -14 599 -14 m 394 -339 l 385 -265 q 454 -254 418 -265 q 515 -226 490 -243 q 540 -192 540 -208 q 517 -161 540 -172 q 464 -144 493 -150 q 415 -139 435 -139 l 397 -125 l 497 33 l 579 33 l 521 -64 q 658 -193 658 -93 q 617 -274 658 -240 q 516 -324 576 -307 q 394 -339 456 -340 z "},"Ḉ":{"ha":943,"x_min":67,"x_max":893,"o":"m 531 -14 q 291 50 396 -14 q 126 226 186 114 q 67 486 67 339 q 103 680 67 590 q 206 838 140 769 q 357 943 271 906 q 543 981 443 981 q 681 959 614 981 q 803 899 749 938 q 893 813 858 861 l 793 708 q 543 831 674 831 q 379 786 453 831 q 263 664 306 742 q 219 486 219 586 q 262 301 219 379 q 380 181 304 224 q 556 138 456 138 q 689 165 625 138 q 800 242 753 193 l 875 119 q 788 51 843 82 q 666 3 733 21 q 531 -14 599 -14 m 394 -339 l 385 -265 q 454 -254 418 -265 q 515 -226 490 -243 q 540 -192 540 -208 q 517 -161 540 -172 q 464 -144 493 -150 q 415 -139 435 -139 l 397 -125 l 497 33 l 579 33 l 521 -64 q 658 -193 658 -93 q 617 -274 658 -240 q 516 -324 576 -307 q 394 -339 456 -340 m 447 1049 l 408 1121 l 663 1278 l 728 1153 l 447 1049 z "},"Ĉ":{"ha":943,"x_min":67,"x_max":893,"o":"m 531 -14 q 291 50 396 -14 q 126 226 186 114 q 67 486 67 339 q 103 680 67 590 q 206 838 140 769 q 357 943 271 906 q 543 981 443 981 q 681 959 614 981 q 803 899 749 938 q 893 813 858 861 l 793 708 q 543 831 674 831 q 379 786 453 831 q 263 664 306 742 q 219 486 219 586 q 262 301 219 379 q 380 181 304 224 q 556 138 456 138 q 689 165 625 138 q 800 242 753 193 l 875 119 q 788 51 843 82 q 666 3 733 21 q 531 -14 599 -14 m 369 1049 l 318 1097 l 490 1238 l 592 1238 l 764 1097 l 713 1049 l 542 1129 l 369 1049 z "},"Ċ":{"ha":943,"x_min":67,"x_max":893,"o":"m 531 -14 q 291 50 396 -14 q 126 226 186 114 q 67 486 67 339 q 103 680 67 590 q 206 838 140 769 q 357 943 271 906 q 543 981 443 981 q 681 959 614 981 q 803 899 749 938 q 893 813 858 861 l 793 708 q 543 831 674 831 q 379 786 453 831 q 263 664 306 742 q 219 486 219 586 q 262 301 219 379 q 380 181 304 224 q 556 138 456 138 q 689 165 625 138 q 800 242 753 193 l 875 119 q 788 51 843 82 q 666 3 733 21 q 531 -14 599 -14 m 542 1054 q 469 1079 493 1054 q 446 1144 446 1104 q 469 1207 446 1179 q 542 1235 493 1235 q 614 1210 590 1235 q 638 1144 638 1185 q 614 1082 638 1110 q 542 1054 590 1054 z "},"D":{"ha":1039,"x_min":136,"x_max":972,"o":"m 136 0 l 136 972 l 517 972 q 758 911 656 972 q 916 740 860 850 q 972 486 972 631 q 917 231 972 340 q 759 61 861 122 q 517 0 657 0 l 136 0 m 510 828 l 286 828 l 286 144 l 510 144 q 738 235 657 144 q 819 486 819 326 q 738 736 819 644 q 510 828 656 828 z "},"Ǳ":{"ha":1892,"x_min":136,"x_max":1815,"o":"m 136 0 l 136 972 l 517 972 q 758 911 656 972 q 916 740 860 850 q 972 486 972 631 q 917 231 972 340 q 759 61 861 122 q 517 0 657 0 l 136 0 m 510 828 l 286 828 l 286 144 l 510 144 q 738 235 657 144 q 819 486 819 326 q 738 736 819 644 q 510 828 656 828 m 1060 0 l 1060 110 l 1596 828 l 1096 828 l 1096 972 l 1800 972 l 1800 864 l 1267 144 l 1815 144 l 1815 0 l 1060 0 z "},"Ǆ":{"ha":1892,"x_min":136,"x_max":1815,"o":"m 136 0 l 136 972 l 517 972 q 758 911 656 972 q 916 740 860 850 q 972 486 972 631 q 917 231 972 340 q 759 61 861 122 q 517 0 657 0 l 136 0 m 510 828 l 286 828 l 286 144 l 510 144 q 738 235 657 144 q 819 486 819 326 q 738 736 819 644 q 510 828 656 828 m 1060 0 l 1060 110 l 1596 828 l 1096 828 l 1096 972 l 1800 972 l 1800 864 l 1267 144 l 1815 144 l 1815 0 l 1060 0 m 1375 1051 l 1208 1194 l 1261 1240 l 1435 1163 l 1608 1240 l 1661 1194 l 1494 1051 l 1375 1051 z "},"Ð":{"ha":1039,"x_min":68,"x_max":972,"o":"m 136 0 l 136 424 l 68 424 l 68 549 l 136 549 l 136 972 l 517 972 q 758 911 656 972 q 916 740 860 850 q 972 486 972 631 q 917 231 972 340 q 759 61 861 122 q 517 0 657 0 l 136 0 m 440 424 l 286 424 l 286 144 l 510 144 q 738 235 657 144 q 819 486 819 326 q 738 736 819 644 q 510 828 656 828 l 286 828 l 286 549 l 440 549 l 440 424 z "},"Ď":{"ha":1039,"x_min":136,"x_max":972,"o":"m 136 0 l 136 972 l 517 972 q 758 911 656 972 q 916 740 860 850 q 972 486 972 631 q 917 231 972 340 q 759 61 861 122 q 517 0 657 0 l 136 0 m 510 828 l 286 828 l 286 144 l 510 144 q 738 235 657 144 q 819 486 819 326 q 738 736 819 644 q 510 828 656 828 m 460 1051 l 293 1194 l 346 1240 l 519 1163 l 693 1240 l 746 1194 l 579 1051 l 460 1051 z "},"Đ":{"ha":1039,"x_min":68,"x_max":972,"o":"m 136 0 l 136 424 l 68 424 l 68 549 l 136 549 l 136 972 l 517 972 q 758 911 656 972 q 916 740 860 850 q 972 486 972 631 q 917 231 972 340 q 759 61 861 122 q 517 0 657 0 l 136 0 m 440 424 l 286 424 l 286 144 l 510 144 q 738 235 657 144 q 819 486 819 326 q 738 736 819 644 q 510 828 656 828 l 286 828 l 286 549 l 440 549 l 440 424 z "},"Ḍ":{"ha":1039,"x_min":136,"x_max":972,"o":"m 136 0 l 136 972 l 517 972 q 758 911 656 972 q 916 740 860 850 q 972 486 972 631 q 917 231 972 340 q 759 61 861 122 q 517 0 657 0 l 136 0 m 510 828 l 286 828 l 286 144 l 510 144 q 738 235 657 144 q 819 486 819 326 q 738 736 819 644 q 510 828 656 828 m 519 -286 q 449 -262 474 -286 q 424 -196 424 -239 q 449 -131 424 -156 q 519 -106 475 -106 q 590 -129 565 -106 q 615 -196 615 -153 q 590 -261 615 -236 q 519 -286 564 -286 z "},"Ḏ":{"ha":1039,"x_min":136,"x_max":972,"o":"m 136 0 l 136 972 l 517 972 q 758 911 656 972 q 916 740 860 850 q 972 486 972 631 q 917 231 972 340 q 759 61 861 122 q 517 0 657 0 l 136 0 m 510 828 l 286 828 l 286 144 l 510 144 q 738 235 657 144 q 819 486 819 326 q 738 736 819 644 q 510 828 656 828 m 324 -247 l 324 -144 l 714 -144 l 714 -247 l 324 -247 z "},"ǲ":{"ha":1710,"x_min":136,"x_max":1647,"o":"m 136 0 l 136 972 l 517 972 q 758 911 656 972 q 916 740 860 850 q 972 486 972 631 q 917 231 972 340 q 759 61 861 122 q 517 0 657 0 l 136 0 m 510 828 l 286 828 l 286 144 l 510 144 q 738 235 657 144 q 819 486 819 326 q 738 736 819 644 q 510 828 656 828 m 1107 0 l 1107 119 l 1471 606 l 1107 606 l 1107 729 l 1639 729 l 1639 613 l 1274 124 l 1647 124 l 1647 0 l 1107 0 z "},"ǅ":{"ha":1710,"x_min":136,"x_max":1647,"o":"m 136 0 l 136 972 l 517 972 q 758 911 656 972 q 916 740 860 850 q 972 486 972 631 q 917 231 972 340 q 759 61 861 122 q 517 0 657 0 l 136 0 m 510 828 l 286 828 l 286 144 l 510 144 q 738 235 657 144 q 819 486 819 326 q 738 736 819 644 q 510 828 656 828 m 1107 0 l 1107 119 l 1471 606 l 1107 606 l 1107 729 l 1639 729 l 1639 613 l 1274 124 l 1647 124 l 1647 0 l 1107 0 m 1314 843 l 1168 1000 l 1221 1046 l 1374 957 l 1526 1046 l 1579 1000 l 1433 843 l 1314 843 z "},"E":{"ha":853,"x_min":136,"x_max":749,"o":"m 136 0 l 136 972 l 749 972 l 749 828 l 286 828 l 286 571 l 672 571 l 672 426 l 286 426 l 286 144 l 749 144 l 749 0 l 136 0 z "},"É":{"ha":853,"x_min":136,"x_max":749,"o":"m 136 0 l 136 972 l 749 972 l 749 828 l 286 828 l 286 571 l 672 571 l 672 426 l 286 426 l 286 144 l 749 144 l 749 0 l 136 0 m 360 1049 l 321 1121 l 575 1278 l 640 1153 l 360 1049 z "},"Ĕ":{"ha":853,"x_min":136,"x_max":749,"o":"m 136 0 l 136 972 l 749 972 l 749 828 l 286 828 l 286 571 l 672 571 l 672 426 l 286 426 l 286 144 l 749 144 l 749 0 l 136 0 m 454 1043 q 351 1069 397 1043 q 273 1137 304 1094 q 229 1229 242 1179 l 332 1246 q 379 1183 347 1211 q 454 1156 411 1156 q 529 1183 497 1156 q 576 1246 561 1211 l 679 1229 q 636 1137 668 1179 q 558 1069 604 1094 q 454 1043 513 1043 z "},"Ě":{"ha":853,"x_min":136,"x_max":749,"o":"m 136 0 l 136 972 l 749 972 l 749 828 l 286 828 l 286 571 l 672 571 l 672 426 l 286 426 l 286 144 l 749 144 l 749 0 l 136 0 m 394 1051 l 228 1194 l 281 1240 l 454 1163 l 628 1240 l 681 1194 l 514 1051 l 394 1051 z "},"Ḝ":{"ha":853,"x_min":136,"x_max":749,"o":"m 136 0 l 136 972 l 749 972 l 749 828 l 286 828 l 286 571 l 672 571 l 672 426 l 286 426 l 286 144 l 749 144 l 749 0 l 136 0 m 299 -339 l 289 -265 q 358 -254 322 -265 q 419 -226 394 -243 q 444 -192 444 -208 q 421 -161 444 -172 q 368 -144 397 -150 q 319 -139 339 -139 l 301 -125 l 401 33 l 483 33 l 425 -64 q 563 -193 563 -93 q 522 -274 563 -240 q 420 -324 481 -307 q 299 -339 360 -340 m 454 1043 q 351 1069 397 1043 q 273 1137 304 1094 q 229 1229 242 1179 l 332 1246 q 379 1183 347 1211 q 454 1156 411 1156 q 529 1183 497 1156 q 576 1246 561 1211 l 679 1229 q 636 1137 668 1179 q 558 1069 604 1094 q 454 1043 513 1043 z "},"Ê":{"ha":853,"x_min":136,"x_max":749,"o":"m 136 0 l 136 972 l 749 972 l 749 828 l 286 828 l 286 571 l 672 571 l 672 426 l 286 426 l 286 144 l 749 144 l 749 0 l 136 0 m 282 1049 l 231 1097 l 403 1238 l 504 1238 l 676 1097 l 625 1049 l 454 1129 l 282 1049 z "},"Ế":{"ha":853,"x_min":136,"x_max":842,"o":"m 136 0 l 136 972 l 749 972 l 749 828 l 286 828 l 286 571 l 672 571 l 672 426 l 286 426 l 286 144 l 749 144 l 749 0 l 136 0 m 679 1200 l 607 1250 l 721 1453 l 842 1367 l 679 1200 m 282 1049 l 236 1099 l 403 1235 l 504 1235 l 671 1099 l 625 1049 l 454 1126 l 282 1049 z "},"Ệ":{"ha":853,"x_min":136,"x_max":749,"o":"m 136 0 l 136 972 l 749 972 l 749 828 l 286 828 l 286 571 l 672 571 l 672 426 l 286 426 l 286 144 l 749 144 l 749 0 l 136 0 m 426 -286 q 356 -262 381 -286 q 331 -196 331 -239 q 356 -131 331 -156 q 426 -106 382 -106 q 497 -129 472 -106 q 522 -196 522 -153 q 497 -261 522 -236 q 426 -286 471 -286 m 282 1049 l 231 1097 l 403 1238 l 504 1238 l 676 1097 l 625 1049 l 454 1129 l 282 1049 z "},"Ề":{"ha":853,"x_min":136,"x_max":750,"o":"m 136 0 l 136 972 l 749 972 l 749 828 l 286 828 l 286 571 l 672 571 l 672 426 l 286 426 l 286 144 l 749 144 l 749 0 l 136 0 m 683 1201 l 515 1369 l 635 1457 l 750 1254 l 683 1201 m 282 1049 l 236 1099 l 403 1235 l 504 1235 l 671 1099 l 625 1049 l 454 1126 l 282 1049 z "},"Ể":{"ha":853,"x_min":136,"x_max":807,"o":"m 136 0 l 136 972 l 749 972 l 749 828 l 286 828 l 286 571 l 672 571 l 672 426 l 286 426 l 286 144 l 749 144 l 749 0 l 136 0 m 640 1199 q 626 1222 632 1210 q 619 1247 619 1235 q 626 1272 619 1260 q 657 1301 632 1285 q 699 1338 699 1329 q 687 1356 699 1350 q 657 1361 675 1361 q 558 1336 608 1361 l 536 1424 q 599 1449 565 1440 q 660 1457 632 1457 q 770 1426 733 1457 q 807 1350 807 1394 q 790 1303 807 1321 q 756 1275 772 1286 q 707 1232 707 1246 q 711 1217 707 1225 l 640 1199 m 282 1049 l 236 1099 l 403 1235 l 504 1235 l 671 1099 l 625 1049 l 454 1126 l 282 1049 z "},"Ễ":{"ha":853,"x_min":136,"x_max":749,"o":"m 136 0 l 136 972 l 749 972 l 749 828 l 286 828 l 286 571 l 672 571 l 672 426 l 286 426 l 286 144 l 749 144 l 749 0 l 136 0 m 561 1301 q 499 1311 528 1301 q 447 1331 471 1321 q 406 1349 422 1342 q 375 1356 389 1356 q 324 1304 335 1356 l 229 1318 q 271 1417 232 1375 q 365 1460 310 1460 q 419 1450 394 1460 q 468 1429 443 1440 q 505 1413 486 1421 q 538 1406 524 1406 q 583 1458 572 1406 l 678 1444 q 646 1344 675 1386 q 561 1301 617 1301 m 282 1049 l 236 1099 l 403 1235 l 504 1235 l 671 1099 l 625 1049 l 454 1126 l 282 1049 z "},"Ȅ":{"ha":853,"x_min":103,"x_max":749,"o":"m 136 0 l 136 972 l 749 972 l 749 828 l 286 828 l 286 571 l 672 571 l 672 426 l 286 426 l 286 144 l 749 144 l 749 0 l 136 0 m 608 1042 l 379 1193 l 479 1299 l 661 1108 l 608 1042 m 332 1042 l 103 1193 l 203 1299 l 385 1108 l 332 1042 z "},"Ë":{"ha":853,"x_min":136,"x_max":749,"o":"m 136 0 l 136 972 l 749 972 l 749 828 l 286 828 l 286 571 l 672 571 l 672 426 l 286 426 l 286 144 l 749 144 l 749 0 l 136 0 m 597 1054 q 525 1079 549 1054 q 501 1144 501 1104 q 525 1207 501 1179 q 597 1235 549 1235 q 669 1210 646 1235 q 693 1144 693 1185 q 669 1082 693 1110 q 597 1054 646 1054 m 311 1054 q 239 1079 263 1054 q 215 1144 215 1104 q 239 1207 215 1179 q 311 1235 263 1235 q 383 1210 360 1235 q 407 1144 407 1185 q 383 1082 407 1110 q 311 1054 360 1054 z "},"Ė":{"ha":853,"x_min":136,"x_max":749,"o":"m 136 0 l 136 972 l 749 972 l 749 828 l 286 828 l 286 571 l 672 571 l 672 426 l 286 426 l 286 144 l 749 144 l 749 0 l 136 0 m 454 1054 q 382 1079 406 1054 q 358 1144 358 1104 q 382 1207 358 1179 q 454 1235 406 1235 q 526 1210 503 1235 q 550 1144 550 1185 q 526 1082 550 1110 q 454 1054 503 1054 z "},"Ẹ":{"ha":853,"x_min":136,"x_max":749,"o":"m 136 0 l 136 972 l 749 972 l 749 828 l 286 828 l 286 571 l 672 571 l 672 426 l 286 426 l 286 144 l 749 144 l 749 0 l 136 0 m 426 -286 q 356 -262 381 -286 q 331 -196 331 -239 q 356 -131 331 -156 q 426 -106 382 -106 q 497 -129 472 -106 q 522 -196 522 -153 q 497 -261 522 -236 q 426 -286 471 -286 z "},"È":{"ha":853,"x_min":136,"x_max":749,"o":"m 136 0 l 136 972 l 749 972 l 749 828 l 286 828 l 286 571 l 672 571 l 672 426 l 286 426 l 286 144 l 749 144 l 749 0 l 136 0 m 560 1049 l 279 1153 l 347 1278 l 601 1121 l 560 1049 z "},"Ẻ":{"ha":853,"x_min":136,"x_max":749,"o":"m 136 0 l 136 972 l 749 972 l 749 828 l 286 828 l 286 571 l 672 571 l 672 426 l 286 426 l 286 144 l 749 144 l 749 0 l 136 0 m 422 1053 q 401 1106 401 1081 q 409 1133 401 1118 q 439 1164 417 1149 q 481 1206 481 1192 q 469 1224 481 1218 q 439 1229 457 1229 q 340 1204 390 1229 l 318 1292 q 381 1317 347 1308 q 442 1325 414 1325 q 552 1294 515 1325 q 589 1218 589 1263 q 573 1163 589 1183 q 538 1133 557 1143 q 501 1112 513 1121 q 489 1089 489 1103 q 493 1071 489 1079 l 422 1053 z "},"Ȇ":{"ha":853,"x_min":136,"x_max":749,"o":"m 136 0 l 136 972 l 749 972 l 749 828 l 286 828 l 286 571 l 672 571 l 672 426 l 286 426 l 286 144 l 749 144 l 749 0 l 136 0 m 332 1043 l 229 1060 q 273 1152 242 1110 q 351 1220 304 1194 q 454 1246 397 1246 q 558 1220 513 1246 q 636 1152 604 1194 q 679 1060 668 1110 l 576 1043 q 529 1106 561 1078 q 454 1133 497 1133 q 379 1106 411 1133 q 332 1043 347 1078 z "},"Ē":{"ha":853,"x_min":136,"x_max":749,"o":"m 136 0 l 136 972 l 749 972 l 749 828 l 286 828 l 286 571 l 672 571 l 672 426 l 286 426 l 286 144 l 749 144 l 749 0 l 136 0 m 224 1093 l 224 1197 l 683 1197 l 683 1093 l 224 1093 z "},"Ḗ":{"ha":853,"x_min":136,"x_max":749,"o":"m 136 0 l 136 972 l 749 972 l 749 828 l 286 828 l 286 571 l 672 571 l 672 426 l 286 426 l 286 144 l 749 144 l 749 0 l 136 0 m 224 1093 l 224 1197 l 683 1197 l 683 1093 l 224 1093 m 360 1257 l 321 1329 l 575 1486 l 640 1361 l 360 1257 z "},"Ḕ":{"ha":853,"x_min":136,"x_max":749,"o":"m 136 0 l 136 972 l 749 972 l 749 828 l 286 828 l 286 571 l 672 571 l 672 426 l 286 426 l 286 144 l 749 144 l 749 0 l 136 0 m 224 1093 l 224 1197 l 683 1197 l 683 1093 l 224 1093 m 560 1257 l 279 1361 l 347 1486 l 601 1329 l 560 1257 z "},"Ę":{"ha":853,"x_min":136,"x_max":749,"o":"m 136 0 l 136 972 l 749 972 l 749 828 l 286 828 l 286 571 l 672 571 l 672 426 l 286 426 l 286 144 l 749 144 l 749 0 l 136 0 m 582 -278 q 507 -258 542 -278 q 451 -206 472 -239 q 431 -135 431 -174 q 488 -11 431 -65 q 646 71 546 43 l 707 0 q 601 -49 646 -14 q 557 -121 557 -83 q 570 -157 557 -143 q 604 -171 583 -171 q 656 -136 632 -171 l 733 -192 q 676 -252 719 -226 q 582 -278 632 -278 z "},"Ẽ":{"ha":853,"x_min":136,"x_max":749,"o":"m 136 0 l 136 972 l 749 972 l 749 828 l 286 828 l 286 571 l 672 571 l 672 426 l 286 426 l 286 144 l 749 144 l 749 0 l 136 0 m 557 1067 q 492 1077 525 1067 q 431 1099 460 1088 q 390 1114 407 1108 q 360 1119 374 1119 q 318 1067 318 1119 l 211 1067 q 260 1183 211 1142 q 369 1224 308 1224 q 426 1214 399 1224 q 481 1193 454 1204 q 519 1179 500 1185 q 550 1174 538 1174 q 590 1224 593 1174 l 696 1224 q 659 1115 696 1163 q 557 1067 622 1067 z "},"F":{"ha":836,"x_min":136,"x_max":767,"o":"m 136 0 l 136 972 l 767 972 l 767 828 l 286 828 l 286 558 l 704 558 l 704 414 l 286 414 l 286 0 l 136 0 z "},"G":{"ha":1064,"x_min":67,"x_max":1004,"o":"m 571 -14 q 374 24 465 -14 q 213 131 282 63 q 105 290 143 199 q 67 486 67 381 q 105 681 67 590 q 212 838 143 771 q 372 943 281 906 q 569 981 464 981 q 713 960 643 981 q 840 901 783 939 q 933 815 897 864 l 836 714 q 569 835 710 835 q 392 789 471 835 q 266 664 313 743 q 219 486 219 585 q 247 349 219 414 q 324 236 275 285 q 438 160 374 188 q 575 132 503 132 q 709 160 649 132 q 806 235 769 188 q 843 342 843 283 l 843 350 l 567 350 l 567 499 l 997 499 q 1003 455 1001 475 q 1004 415 1004 435 q 947 191 1004 288 q 790 40 889 94 q 571 -14 692 -14 z "},"Ğ":{"ha":1064,"x_min":67,"x_max":1004,"o":"m 571 -14 q 374 24 465 -14 q 213 131 282 63 q 105 290 143 199 q 67 486 67 381 q 105 681 67 590 q 212 838 143 771 q 372 943 281 906 q 569 981 464 981 q 713 960 643 981 q 840 901 783 939 q 933 815 897 864 l 836 714 q 569 835 710 835 q 392 789 471 835 q 266 664 313 743 q 219 486 219 585 q 247 349 219 414 q 324 236 275 285 q 438 160 374 188 q 575 132 503 132 q 709 160 649 132 q 806 235 769 188 q 843 342 843 283 l 843 350 l 567 350 l 567 499 l 997 499 q 1003 455 1001 475 q 1004 415 1004 435 q 947 191 1004 288 q 790 40 889 94 q 571 -14 692 -14 m 560 1043 q 456 1069 503 1043 q 378 1137 410 1094 q 335 1229 347 1179 l 438 1246 q 485 1183 453 1211 q 560 1156 517 1156 q 635 1183 603 1156 q 682 1246 667 1211 l 785 1229 q 742 1137 774 1179 q 664 1069 710 1094 q 560 1043 618 1043 z "},"Ǧ":{"ha":1064,"x_min":67,"x_max":1004,"o":"m 571 -14 q 374 24 465 -14 q 213 131 282 63 q 105 290 143 199 q 67 486 67 381 q 105 681 67 590 q 212 838 143 771 q 372 943 281 906 q 569 981 464 981 q 713 960 643 981 q 840 901 783 939 q 933 815 897 864 l 836 714 q 569 835 710 835 q 392 789 471 835 q 266 664 313 743 q 219 486 219 585 q 247 349 219 414 q 324 236 275 285 q 438 160 374 188 q 575 132 503 132 q 709 160 649 132 q 806 235 769 188 q 843 342 843 283 l 843 350 l 567 350 l 567 499 l 997 499 q 1003 455 1001 475 q 1004 415 1004 435 q 947 191 1004 288 q 790 40 889 94 q 571 -14 692 -14 m 500 1051 l 333 1194 l 386 1240 l 560 1163 l 733 1240 l 786 1194 l 619 1051 l 500 1051 z "},"Ĝ":{"ha":1064,"x_min":67,"x_max":1004,"o":"m 571 -14 q 374 24 465 -14 q 213 131 282 63 q 105 290 143 199 q 67 486 67 381 q 105 681 67 590 q 212 838 143 771 q 372 943 281 906 q 569 981 464 981 q 713 960 643 981 q 840 901 783 939 q 933 815 897 864 l 836 714 q 569 835 710 835 q 392 789 471 835 q 266 664 313 743 q 219 486 219 585 q 247 349 219 414 q 324 236 275 285 q 438 160 374 188 q 575 132 503 132 q 709 160 649 132 q 806 235 769 188 q 843 342 843 283 l 843 350 l 567 350 l 567 499 l 997 499 q 1003 455 1001 475 q 1004 415 1004 435 q 947 191 1004 288 q 790 40 889 94 q 571 -14 692 -14 m 388 1049 l 336 1097 l 508 1238 l 610 1238 l 782 1097 l 731 1049 l 560 1129 l 388 1049 z "},"Ģ":{"ha":1064,"x_min":67,"x_max":1004,"o":"m 571 -14 q 374 24 465 -14 q 213 131 282 63 q 105 290 143 199 q 67 486 67 381 q 105 681 67 590 q 212 838 143 771 q 372 943 281 906 q 569 981 464 981 q 713 960 643 981 q 840 901 783 939 q 933 815 897 864 l 836 714 q 569 835 710 835 q 392 789 471 835 q 266 664 313 743 q 219 486 219 585 q 247 349 219 414 q 324 236 275 285 q 438 160 374 188 q 575 132 503 132 q 709 160 649 132 q 806 235 769 188 q 843 342 843 283 l 843 350 l 567 350 l 567 499 l 997 499 q 1003 455 1001 475 q 1004 415 1004 435 q 947 191 1004 288 q 790 40 889 94 q 571 -14 692 -14 m 463 -337 l 429 -279 q 481 -250 458 -272 q 504 -207 504 -228 q 499 -193 504 -199 q 478 -183 494 -187 q 444 -164 453 -176 q 436 -131 436 -151 q 461 -81 436 -100 q 526 -62 486 -62 q 603 -92 572 -62 q 635 -169 635 -121 q 588 -267 635 -222 q 463 -337 540 -311 z "},"Ġ":{"ha":1064,"x_min":67,"x_max":1004,"o":"m 571 -14 q 374 24 465 -14 q 213 131 282 63 q 105 290 143 199 q 67 486 67 381 q 105 681 67 590 q 212 838 143 771 q 372 943 281 906 q 569 981 464 981 q 713 960 643 981 q 840 901 783 939 q 933 815 897 864 l 836 714 q 569 835 710 835 q 392 789 471 835 q 266 664 313 743 q 219 486 219 585 q 247 349 219 414 q 324 236 275 285 q 438 160 374 188 q 575 132 503 132 q 709 160 649 132 q 806 235 769 188 q 843 342 843 283 l 843 350 l 567 350 l 567 499 l 997 499 q 1003 455 1001 475 q 1004 415 1004 435 q 947 191 1004 288 q 790 40 889 94 q 571 -14 692 -14 m 560 1054 q 488 1079 511 1054 q 464 1144 464 1104 q 488 1207 464 1179 q 560 1235 511 1235 q 632 1210 608 1235 q 656 1144 656 1185 q 632 1082 656 1110 q 560 1054 608 1054 z "},"Ḡ":{"ha":1064,"x_min":67,"x_max":1004,"o":"m 571 -14 q 374 24 465 -14 q 213 131 282 63 q 105 290 143 199 q 67 486 67 381 q 105 681 67 590 q 212 838 143 771 q 372 943 281 906 q 569 981 464 981 q 713 960 643 981 q 840 901 783 939 q 933 815 897 864 l 836 714 q 569 835 710 835 q 392 789 471 835 q 266 664 313 743 q 219 486 219 585 q 247 349 219 414 q 324 236 275 285 q 438 160 374 188 q 575 132 503 132 q 709 160 649 132 q 806 235 769 188 q 843 342 843 283 l 843 350 l 567 350 l 567 499 l 997 499 q 1003 455 1001 475 q 1004 415 1004 435 q 947 191 1004 288 q 790 40 889 94 q 571 -14 692 -14 m 329 1093 l 329 1197 l 789 1197 l 789 1093 l 329 1093 z "},"H":{"ha":1057,"x_min":136,"x_max":921,"o":"m 136 0 l 136 972 l 286 972 l 286 557 l 771 557 l 771 972 l 921 972 l 921 0 l 771 0 l 771 413 l 286 413 l 286 0 l 136 0 z "},"Ħ":{"ha":1190,"x_min":79,"x_max":1111,"o":"m 203 0 l 203 650 l 79 650 l 79 794 l 203 794 l 203 972 l 353 972 l 353 781 l 838 781 l 838 972 l 988 972 l 988 794 l 1111 794 l 1111 650 l 988 650 l 988 0 l 838 0 l 838 413 l 353 413 l 353 0 l 203 0 m 353 557 l 838 557 l 838 664 l 353 664 l 353 557 z "},"Ḫ":{"ha":1057,"x_min":136,"x_max":921,"o":"m 136 0 l 136 972 l 286 972 l 286 557 l 771 557 l 771 972 l 921 972 l 921 0 l 771 0 l 771 413 l 286 413 l 286 0 l 136 0 m 529 -325 q 384 -267 444 -325 q 304 -111 324 -210 l 407 -94 q 458 -181 425 -149 q 529 -212 492 -212 q 600 -181 567 -212 q 651 -94 633 -149 l 754 -111 q 674 -267 735 -210 q 529 -325 614 -325 z "},"Ĥ":{"ha":1057,"x_min":136,"x_max":921,"o":"m 136 0 l 136 972 l 286 972 l 286 557 l 771 557 l 771 972 l 921 972 l 921 0 l 771 0 l 771 413 l 286 413 l 286 0 l 136 0 m 357 1049 l 306 1097 l 478 1238 l 579 1238 l 751 1097 l 700 1049 l 529 1129 l 357 1049 z "},"Ḥ":{"ha":1057,"x_min":136,"x_max":921,"o":"m 136 0 l 136 972 l 286 972 l 286 557 l 771 557 l 771 972 l 921 972 l 921 0 l 771 0 l 771 413 l 286 413 l 286 0 l 136 0 m 529 -286 q 458 -262 483 -286 q 433 -196 433 -239 q 459 -131 433 -156 q 529 -106 485 -106 q 600 -129 575 -106 q 625 -196 625 -153 q 599 -261 625 -236 q 529 -286 574 -286 z "},"I":{"ha":664,"x_min":100,"x_max":564,"o":"m 100 0 l 100 139 l 257 139 l 257 833 l 100 833 l 100 972 l 564 972 l 564 833 l 407 833 l 407 139 l 564 139 l 564 0 l 100 0 z "},"Ĳ":{"ha":1556,"x_min":100,"x_max":1486,"o":"m 100 0 l 100 139 l 257 139 l 257 833 l 100 833 l 100 972 l 564 972 l 564 833 l 407 833 l 407 139 l 564 139 l 564 0 l 100 0 m 1019 -14 q 849 35 925 -14 q 733 163 774 83 l 828 261 q 898 179 868 207 q 956 142 928 151 q 1019 132 985 132 q 1140 182 1094 132 q 1186 310 1186 232 l 1186 833 l 1008 833 l 1008 972 l 1486 972 l 1486 833 l 1336 833 l 1336 296 q 1296 138 1336 208 q 1184 27 1256 68 q 1019 -14 1113 -14 z "},"Í":{"ha":664,"x_min":100,"x_max":564,"o":"m 100 0 l 100 139 l 257 139 l 257 833 l 100 833 l 100 972 l 564 972 l 564 833 l 407 833 l 407 139 l 564 139 l 564 0 l 100 0 m 238 1049 l 199 1121 l 453 1278 l 518 1153 l 238 1049 z "},"Ĭ":{"ha":664,"x_min":100,"x_max":564,"o":"m 100 0 l 100 139 l 257 139 l 257 833 l 100 833 l 100 972 l 564 972 l 564 833 l 407 833 l 407 139 l 564 139 l 564 0 l 100 0 m 332 1043 q 228 1069 275 1043 q 151 1137 182 1094 q 107 1229 119 1179 l 210 1246 q 257 1183 225 1211 q 332 1156 289 1156 q 407 1183 375 1156 q 454 1246 439 1211 l 557 1229 q 514 1137 546 1179 q 436 1069 482 1094 q 332 1043 390 1043 z "},"Ǐ":{"ha":664,"x_min":100,"x_max":564,"o":"m 100 0 l 100 139 l 257 139 l 257 833 l 100 833 l 100 972 l 564 972 l 564 833 l 407 833 l 407 139 l 564 139 l 564 0 l 100 0 m 272 1051 l 106 1194 l 158 1240 l 332 1163 l 506 1240 l 558 1194 l 392 1051 l 272 1051 z "},"Î":{"ha":664,"x_min":100,"x_max":564,"o":"m 100 0 l 100 139 l 257 139 l 257 833 l 100 833 l 100 972 l 564 972 l 564 833 l 407 833 l 407 139 l 564 139 l 564 0 l 100 0 m 160 1049 l 108 1097 l 281 1238 l 382 1238 l 554 1097 l 503 1049 l 332 1129 l 160 1049 z "},"Ȉ":{"ha":664,"x_min":-19,"x_max":564,"o":"m 100 0 l 100 139 l 257 139 l 257 833 l 100 833 l 100 972 l 564 972 l 564 833 l 407 833 l 407 139 l 564 139 l 564 0 l 100 0 m 486 1042 l 257 1193 l 357 1299 l 539 1108 l 486 1042 m 210 1042 l -19 1193 l 81 1299 l 263 1108 l 210 1042 z "},"Ï":{"ha":664,"x_min":93,"x_max":571,"o":"m 100 0 l 100 139 l 257 139 l 257 833 l 100 833 l 100 972 l 564 972 l 564 833 l 407 833 l 407 139 l 564 139 l 564 0 l 100 0 m 475 1054 q 403 1079 426 1054 q 379 1144 379 1104 q 403 1207 379 1179 q 475 1235 426 1235 q 547 1210 524 1235 q 571 1144 571 1185 q 547 1082 571 1110 q 475 1054 524 1054 m 189 1054 q 117 1079 140 1054 q 93 1144 93 1104 q 117 1207 93 1179 q 189 1235 140 1235 q 261 1210 238 1235 q 285 1144 285 1185 q 261 1082 285 1110 q 189 1054 238 1054 z "},"Ḯ":{"ha":664,"x_min":93,"x_max":571,"o":"m 100 0 l 100 139 l 257 139 l 257 833 l 100 833 l 100 972 l 564 972 l 564 833 l 407 833 l 407 139 l 564 139 l 564 0 l 100 0 m 238 1271 l 199 1343 l 453 1500 l 518 1375 l 238 1271 m 189 1054 q 117 1079 140 1054 q 93 1144 93 1104 q 117 1207 93 1179 q 189 1235 140 1235 q 261 1210 238 1235 q 285 1144 285 1185 q 261 1082 285 1110 q 189 1054 238 1054 m 475 1054 q 403 1079 426 1054 q 379 1144 379 1104 q 403 1207 379 1179 q 475 1235 426 1235 q 547 1210 524 1235 q 571 1144 571 1185 q 547 1082 571 1110 q 475 1054 524 1054 z "},"İ":{"ha":664,"x_min":100,"x_max":564,"o":"m 100 0 l 100 139 l 257 139 l 257 833 l 100 833 l 100 972 l 564 972 l 564 833 l 407 833 l 407 139 l 564 139 l 564 0 l 100 0 m 332 1054 q 260 1079 283 1054 q 236 1144 236 1104 q 260 1207 236 1179 q 332 1235 283 1235 q 404 1210 381 1235 q 428 1144 428 1185 q 404 1082 428 1110 q 332 1054 381 1054 z "},"Ị":{"ha":664,"x_min":100,"x_max":564,"o":"m 100 0 l 100 139 l 257 139 l 257 833 l 100 833 l 100 972 l 564 972 l 564 833 l 407 833 l 407 139 l 564 139 l 564 0 l 100 0 m 332 -286 q 261 -262 286 -286 q 236 -196 236 -239 q 262 -131 236 -156 q 332 -106 288 -106 q 403 -129 378 -106 q 428 -196 428 -153 q 402 -261 428 -236 q 332 -286 376 -286 z "},"Ì":{"ha":664,"x_min":100,"x_max":564,"o":"m 100 0 l 100 139 l 257 139 l 257 833 l 100 833 l 100 972 l 564 972 l 564 833 l 407 833 l 407 139 l 564 139 l 564 0 l 100 0 m 438 1049 l 157 1153 l 225 1278 l 479 1121 l 438 1049 z "},"Ỉ":{"ha":664,"x_min":100,"x_max":564,"o":"m 100 0 l 100 139 l 257 139 l 257 833 l 100 833 l 100 972 l 564 972 l 564 833 l 407 833 l 407 139 l 564 139 l 564 0 l 100 0 m 300 1053 q 279 1106 279 1081 q 287 1133 279 1118 q 317 1164 294 1149 q 358 1206 358 1192 q 347 1224 358 1218 q 317 1229 335 1229 q 218 1204 268 1229 l 196 1292 q 258 1317 225 1308 q 319 1325 292 1325 q 430 1294 393 1325 q 467 1218 467 1263 q 451 1163 467 1183 q 415 1133 435 1143 q 378 1112 390 1121 q 367 1089 367 1103 q 371 1071 367 1079 l 300 1053 z "},"Ȋ":{"ha":664,"x_min":100,"x_max":564,"o":"m 100 0 l 100 139 l 257 139 l 257 833 l 100 833 l 100 972 l 564 972 l 564 833 l 407 833 l 407 139 l 564 139 l 564 0 l 100 0 m 210 1043 l 107 1060 q 151 1152 119 1110 q 228 1220 182 1194 q 332 1246 275 1246 q 436 1220 390 1246 q 514 1152 482 1194 q 557 1060 546 1110 l 454 1043 q 407 1106 439 1078 q 332 1133 375 1133 q 257 1106 289 1133 q 210 1043 225 1078 z "},"Ī":{"ha":664,"x_min":100,"x_max":564,"o":"m 100 0 l 100 139 l 257 139 l 257 833 l 100 833 l 100 972 l 564 972 l 564 833 l 407 833 l 407 139 l 564 139 l 564 0 l 100 0 m 101 1093 l 101 1197 l 561 1197 l 561 1093 l 101 1093 z "},"Į":{"ha":664,"x_min":100,"x_max":564,"o":"m 100 0 l 100 139 l 257 139 l 257 833 l 100 833 l 100 972 l 564 972 l 564 833 l 407 833 l 407 139 l 564 139 l 564 0 l 100 0 m 351 -278 q 276 -258 311 -278 q 221 -206 242 -239 q 200 -135 200 -174 q 258 -11 200 -65 q 415 71 315 43 l 476 0 q 371 -49 415 -14 q 326 -121 326 -83 q 340 -157 326 -143 q 374 -171 353 -171 q 425 -136 401 -171 l 503 -192 q 445 -252 489 -226 q 351 -278 401 -278 z "},"Ĩ":{"ha":664,"x_min":89,"x_max":574,"o":"m 100 0 l 100 139 l 257 139 l 257 833 l 100 833 l 100 972 l 564 972 l 564 833 l 407 833 l 407 139 l 564 139 l 564 0 l 100 0 m 435 1067 q 370 1077 403 1067 q 308 1099 338 1088 q 268 1114 285 1108 q 238 1119 251 1119 q 196 1067 196 1119 l 89 1067 q 138 1183 89 1142 q 247 1224 186 1224 q 304 1214 276 1224 q 358 1193 332 1204 q 397 1179 378 1185 q 428 1174 415 1174 q 468 1224 471 1174 l 574 1224 q 537 1115 574 1163 q 435 1067 500 1067 z "},"J":{"ha":892,"x_min":69,"x_max":822,"o":"m 356 -14 q 185 35 261 -14 q 69 163 110 83 l 164 261 q 234 179 204 207 q 292 142 264 151 q 356 132 321 132 q 476 182 431 132 q 522 310 522 232 l 522 833 l 344 833 l 344 972 l 822 972 l 822 833 l 672 833 l 672 296 q 632 138 672 208 q 520 27 592 68 q 356 -14 449 -14 z "},"Ĵ":{"ha":892,"x_min":69,"x_max":822,"o":"m 356 -14 q 185 35 261 -14 q 69 163 110 83 l 164 261 q 234 179 204 207 q 292 142 264 151 q 356 132 321 132 q 476 182 431 132 q 522 310 522 232 l 522 833 l 344 833 l 344 972 l 822 972 l 822 833 l 672 833 l 672 296 q 632 138 672 208 q 520 27 592 68 q 356 -14 449 -14 m 419 1049 l 368 1097 l 540 1238 l 642 1238 l 814 1097 l 763 1049 l 592 1129 l 419 1049 z "},"K":{"ha":1017,"x_min":136,"x_max":968,"o":"m 136 0 l 136 972 l 286 972 l 286 496 l 763 972 l 960 972 l 540 565 l 968 0 l 781 0 l 435 463 l 286 318 l 286 0 l 136 0 z "},"Ķ":{"ha":1017,"x_min":136,"x_max":968,"o":"m 136 0 l 136 972 l 286 972 l 286 496 l 763 972 l 960 972 l 540 565 l 968 0 l 781 0 l 435 463 l 286 318 l 286 0 l 136 0 m 439 -337 l 406 -279 q 458 -250 435 -272 q 481 -207 481 -228 q 476 -193 481 -199 q 454 -183 471 -187 q 421 -164 429 -176 q 413 -131 413 -151 q 438 -81 413 -100 q 503 -62 463 -62 q 580 -92 549 -62 q 611 -169 611 -121 q 564 -267 611 -222 q 439 -337 517 -311 z "},"L":{"ha":832,"x_min":136,"x_max":742,"o":"m 136 0 l 136 972 l 286 972 l 286 144 l 742 144 l 742 0 l 136 0 z "},"Ǉ":{"ha":1724,"x_min":136,"x_max":1654,"o":"m 136 0 l 136 972 l 286 972 l 286 144 l 742 144 l 742 0 l 136 0 m 1188 -14 q 1017 35 1093 -14 q 901 163 942 83 l 996 261 q 1066 179 1036 207 q 1124 142 1096 151 q 1188 132 1153 132 q 1308 182 1263 132 q 1354 310 1354 232 l 1354 833 l 1176 833 l 1176 972 l 1654 972 l 1654 833 l 1504 833 l 1504 296 q 1464 138 1504 208 q 1352 27 1424 68 q 1188 -14 1281 -14 z "},"Ĺ":{"ha":832,"x_min":79,"x_max":742,"o":"m 136 0 l 136 972 l 286 972 l 286 144 l 742 144 l 742 0 l 136 0 m 118 1049 l 79 1121 l 333 1278 l 399 1153 l 118 1049 z "},"Ľ":{"ha":832,"x_min":136,"x_max":742,"o":"m 136 0 l 136 972 l 286 972 l 286 144 l 742 144 l 742 0 l 136 0 m 468 697 l 435 756 q 487 785 464 763 q 510 828 510 807 q 505 842 510 836 q 483 851 500 847 q 450 871 458 858 q 442 904 442 883 q 467 953 442 935 q 532 972 492 972 q 609 943 578 972 q 640 865 640 914 q 593 768 640 813 q 468 697 546 724 z "},"Ļ":{"ha":832,"x_min":136,"x_max":742,"o":"m 136 0 l 136 972 l 286 972 l 286 144 l 742 144 l 742 0 l 136 0 m 347 -337 l 314 -279 q 366 -250 343 -272 q 389 -207 389 -228 q 384 -193 389 -199 q 363 -183 379 -187 q 329 -164 338 -176 q 321 -131 321 -151 q 346 -81 321 -100 q 411 -62 371 -62 q 488 -92 457 -62 q 519 -169 519 -121 q 472 -267 519 -222 q 347 -337 425 -311 z "},"Ŀ":{"ha":832,"x_min":136,"x_max":742,"o":"m 136 0 l 136 972 l 286 972 l 286 144 l 742 144 l 742 0 l 136 0 m 625 415 q 554 442 579 415 q 529 519 529 469 q 556 594 529 565 q 625 624 582 624 q 696 597 671 624 q 721 519 721 569 q 694 444 721 474 q 625 415 668 415 z "},"Ḷ":{"ha":832,"x_min":136,"x_max":742,"o":"m 136 0 l 136 972 l 286 972 l 286 144 l 742 144 l 742 0 l 136 0 m 417 -286 q 346 -262 371 -286 q 321 -196 321 -239 q 347 -131 321 -156 q 417 -106 372 -106 q 488 -129 463 -106 q 513 -196 513 -153 q 487 -261 513 -236 q 417 -286 461 -286 z "},"ǈ":{"ha":1200,"x_min":136,"x_max":1122,"o":"m 136 0 l 136 972 l 286 972 l 286 144 l 742 144 l 742 0 l 136 0 m 1026 890 q 956 914 981 890 q 931 981 931 938 q 956 1046 931 1021 q 1026 1071 982 1071 q 1097 1047 1072 1071 q 1122 981 1122 1024 q 1097 915 1122 940 q 1026 890 1071 890 m 844 -274 l 790 -164 q 951 1 951 -164 l 951 729 l 1094 729 l 1094 -33 q 1025 -207 1094 -140 q 844 -274 956 -274 z "},"Ḻ":{"ha":832,"x_min":136,"x_max":742,"o":"m 136 0 l 136 972 l 286 972 l 286 144 l 742 144 l 742 0 l 136 0 m 221 -247 l 221 -144 l 611 -144 l 611 -247 l 221 -247 z "},"Ł":{"ha":886,"x_min":56,"x_max":796,"o":"m 190 0 l 190 396 l 96 356 l 56 456 l 190 517 l 190 972 l 340 972 l 340 583 l 460 638 l 504 531 l 340 460 l 340 144 l 796 144 l 796 0 l 190 0 z "},"M":{"ha":1200,"x_min":136,"x_max":1064,"o":"m 136 0 l 136 972 l 283 972 l 601 454 l 925 972 l 1064 972 l 1064 0 l 914 0 l 914 399 q 917 569 914 492 q 928 721 921 647 l 643 279 l 551 279 l 272 719 q 283 573 279 650 q 286 399 286 496 l 286 0 l 136 0 z "},"Ṃ":{"ha":1200,"x_min":136,"x_max":1064,"o":"m 136 0 l 136 972 l 283 972 l 601 454 l 925 972 l 1064 972 l 1064 0 l 914 0 l 914 399 q 917 569 914 492 q 928 721 921 647 l 643 279 l 551 279 l 272 719 q 283 573 279 650 q 286 399 286 496 l 286 0 l 136 0 m 600 -286 q 529 -262 554 -286 q 504 -196 504 -239 q 530 -131 504 -156 q 600 -106 556 -106 q 671 -129 646 -106 q 696 -196 696 -153 q 670 -261 696 -236 q 600 -286 644 -286 z "},"N":{"ha":1101,"x_min":136,"x_max":965,"o":"m 136 0 l 136 972 l 271 972 l 836 215 q 820 411 825 300 q 815 653 815 522 l 815 972 l 965 972 l 965 0 l 828 0 l 263 742 q 278 555 272 621 q 285 456 283 489 q 286 404 286 424 l 286 0 l 136 0 z "},"Ǌ":{"ha":1993,"x_min":136,"x_max":1924,"o":"m 136 0 l 136 972 l 271 972 l 836 215 q 820 411 825 300 q 815 653 815 522 l 815 972 l 965 972 l 965 0 l 828 0 l 263 742 q 278 555 272 621 q 285 456 283 489 q 286 404 286 424 l 286 0 l 136 0 m 1457 -14 q 1287 35 1363 -14 q 1171 163 1211 83 l 1265 261 q 1335 179 1306 207 q 1394 142 1365 151 q 1457 132 1422 132 q 1578 182 1532 132 q 1624 310 1624 232 l 1624 833 l 1446 833 l 1446 972 l 1924 972 l 1924 833 l 1774 833 l 1774 296 q 1733 138 1774 208 q 1622 27 1693 68 q 1457 -14 1550 -14 z "},"Ń":{"ha":1101,"x_min":136,"x_max":965,"o":"m 136 0 l 136 972 l 271 972 l 836 215 q 820 411 825 300 q 815 653 815 522 l 815 972 l 965 972 l 965 0 l 828 0 l 263 742 q 278 555 272 621 q 285 456 283 489 q 286 404 286 424 l 286 0 l 136 0 m 457 1049 l 418 1121 l 672 1278 l 738 1153 l 457 1049 z "},"Ň":{"ha":1101,"x_min":136,"x_max":965,"o":"m 136 0 l 136 972 l 271 972 l 836 215 q 820 411 825 300 q 815 653 815 522 l 815 972 l 965 972 l 965 0 l 828 0 l 263 742 q 278 555 272 621 q 285 456 283 489 q 286 404 286 424 l 286 0 l 136 0 m 492 1051 l 325 1194 l 378 1240 l 551 1163 l 725 1240 l 778 1194 l 611 1051 l 492 1051 z "},"Ņ":{"ha":1101,"x_min":136,"x_max":965,"o":"m 136 0 l 136 972 l 271 972 l 836 215 q 820 411 825 300 q 815 653 815 522 l 815 972 l 965 972 l 965 0 l 828 0 l 263 742 q 278 555 272 621 q 285 456 283 489 q 286 404 286 424 l 286 0 l 136 0 m 482 -337 l 449 -279 q 501 -250 478 -272 q 524 -207 524 -228 q 519 -193 524 -199 q 497 -183 514 -187 q 464 -164 472 -176 q 456 -131 456 -151 q 481 -81 456 -100 q 546 -62 506 -62 q 623 -92 592 -62 q 654 -169 654 -121 q 607 -267 654 -222 q 482 -337 560 -311 z "},"Ṅ":{"ha":1101,"x_min":136,"x_max":965,"o":"m 136 0 l 136 972 l 271 972 l 836 215 q 820 411 825 300 q 815 653 815 522 l 815 972 l 965 972 l 965 0 l 828 0 l 263 742 q 278 555 272 621 q 285 456 283 489 q 286 404 286 424 l 286 0 l 136 0 m 551 1054 q 479 1079 503 1054 q 456 1144 456 1104 q 479 1207 456 1179 q 551 1235 503 1235 q 624 1210 600 1235 q 647 1144 647 1185 q 624 1082 647 1110 q 551 1054 600 1054 z "},"Ṇ":{"ha":1101,"x_min":136,"x_max":965,"o":"m 136 0 l 136 972 l 271 972 l 836 215 q 820 411 825 300 q 815 653 815 522 l 815 972 l 965 972 l 965 0 l 828 0 l 263 742 q 278 555 272 621 q 285 456 283 489 q 286 404 286 424 l 286 0 l 136 0 m 551 -286 q 481 -262 506 -286 q 456 -196 456 -239 q 481 -131 456 -156 q 551 -106 507 -106 q 622 -129 597 -106 q 647 -196 647 -153 q 622 -261 647 -236 q 551 -286 596 -286 z "},"Ŋ":{"ha":1101,"x_min":136,"x_max":965,"o":"m 708 -274 l 654 -164 q 815 1 815 -164 l 815 17 l 263 740 q 279 544 272 636 q 286 404 286 451 l 286 0 l 136 0 l 136 972 l 271 972 l 836 215 q 820 411 825 300 q 815 653 815 522 l 815 972 l 965 972 l 965 -33 q 894 -208 965 -142 q 708 -274 824 -274 z "},"Ɲ":{"ha":1079,"x_min":-47,"x_max":943,"o":"m 7 -274 l -47 -164 q 114 1 114 -164 l 114 972 l 249 972 l 814 215 q 798 411 803 300 q 793 653 793 522 l 793 972 l 943 972 l 943 0 l 806 0 l 240 740 q 257 544 250 636 q 264 404 264 451 l 264 -33 q 193 -208 264 -142 q 7 -274 122 -274 z "},"ǋ":{"ha":1469,"x_min":136,"x_max":1392,"o":"m 136 0 l 136 972 l 271 972 l 836 215 q 820 411 825 300 q 815 653 815 522 l 815 972 l 965 972 l 965 0 l 828 0 l 263 742 q 278 555 272 621 q 285 456 283 489 q 286 404 286 424 l 286 0 l 136 0 m 1296 890 q 1225 914 1250 890 q 1200 981 1200 938 q 1226 1046 1200 1021 q 1296 1071 1251 1071 q 1367 1047 1342 1071 q 1392 981 1392 1024 q 1366 915 1392 940 q 1296 890 1340 890 m 1114 -274 l 1060 -164 q 1221 1 1221 -164 l 1221 729 l 1364 729 l 1364 -33 q 1294 -207 1364 -140 q 1114 -274 1225 -274 z "},"Ṉ":{"ha":1101,"x_min":136,"x_max":965,"o":"m 136 0 l 136 972 l 271 972 l 836 215 q 820 411 825 300 q 815 653 815 522 l 815 972 l 965 972 l 965 0 l 828 0 l 263 742 q 278 555 272 621 q 285 456 283 489 q 286 404 286 424 l 286 0 l 136 0 m 356 -247 l 356 -144 l 746 -144 l 746 -247 l 356 -247 z "},"Ñ":{"ha":1101,"x_min":136,"x_max":965,"o":"m 136 0 l 136 972 l 271 972 l 836 215 q 820 411 825 300 q 815 653 815 522 l 815 972 l 965 972 l 965 0 l 828 0 l 263 742 q 278 555 272 621 q 285 456 283 489 q 286 404 286 424 l 286 0 l 136 0 m 654 1067 q 590 1077 622 1067 q 528 1099 557 1088 q 488 1114 504 1108 q 457 1119 471 1119 q 415 1067 415 1119 l 308 1067 q 357 1183 308 1142 q 467 1224 406 1224 q 524 1214 496 1224 q 578 1193 551 1204 q 616 1179 597 1185 q 647 1174 635 1174 q 688 1224 690 1174 l 793 1224 q 756 1115 793 1163 q 654 1067 719 1067 z "},"O":{"ha":1086,"x_min":67,"x_max":1019,"o":"m 543 -14 q 353 24 440 -14 q 202 128 267 61 q 102 287 138 196 q 67 486 67 378 q 102 685 67 594 q 202 844 138 776 q 353 949 267 911 q 543 986 440 986 q 733 949 646 986 q 884 843 819 911 q 984 684 949 775 q 1019 486 1019 593 q 984 288 1019 379 q 884 129 949 197 q 733 24 819 61 q 543 -14 646 -14 m 543 132 q 710 178 636 132 q 825 304 783 224 q 867 486 867 385 q 825 668 867 588 q 710 794 783 749 q 543 840 636 840 q 376 794 449 840 q 261 669 303 749 q 219 486 219 589 q 261 303 219 383 q 376 178 303 224 q 543 132 449 132 z "},"Ó":{"ha":1086,"x_min":67,"x_max":1019,"o":"m 543 -14 q 353 24 440 -14 q 202 128 267 61 q 102 287 138 196 q 67 486 67 378 q 102 685 67 594 q 202 844 138 776 q 353 949 267 911 q 543 986 440 986 q 733 949 646 986 q 884 843 819 911 q 984 684 949 775 q 1019 486 1019 593 q 984 288 1019 379 q 884 129 949 197 q 733 24 819 61 q 543 -14 646 -14 m 543 132 q 710 178 636 132 q 825 304 783 224 q 867 486 867 385 q 825 668 867 588 q 710 794 783 749 q 543 840 636 840 q 376 794 449 840 q 261 669 303 749 q 219 486 219 589 q 261 303 219 383 q 376 178 303 224 q 543 132 449 132 m 449 1049 l 410 1121 l 664 1278 l 729 1153 l 449 1049 z "},"Ŏ":{"ha":1086,"x_min":67,"x_max":1019,"o":"m 543 -14 q 353 24 440 -14 q 202 128 267 61 q 102 287 138 196 q 67 486 67 378 q 102 685 67 594 q 202 844 138 776 q 353 949 267 911 q 543 986 440 986 q 733 949 646 986 q 884 843 819 911 q 984 684 949 775 q 1019 486 1019 593 q 984 288 1019 379 q 884 129 949 197 q 733 24 819 61 q 543 -14 646 -14 m 543 132 q 710 178 636 132 q 825 304 783 224 q 867 486 867 385 q 825 668 867 588 q 710 794 783 749 q 543 840 636 840 q 376 794 449 840 q 261 669 303 749 q 219 486 219 589 q 261 303 219 383 q 376 178 303 224 q 543 132 449 132 m 543 1043 q 440 1069 486 1043 q 362 1137 393 1094 q 318 1229 331 1179 l 421 1246 q 468 1183 436 1211 q 543 1156 500 1156 q 618 1183 586 1156 q 665 1246 650 1211 l 768 1229 q 725 1137 757 1179 q 647 1069 693 1094 q 543 1043 601 1043 z "},"Ǒ":{"ha":1086,"x_min":67,"x_max":1019,"o":"m 543 -14 q 353 24 440 -14 q 202 128 267 61 q 102 287 138 196 q 67 486 67 378 q 102 685 67 594 q 202 844 138 776 q 353 949 267 911 q 543 986 440 986 q 733 949 646 986 q 884 843 819 911 q 984 684 949 775 q 1019 486 1019 593 q 984 288 1019 379 q 884 129 949 197 q 733 24 819 61 q 543 -14 646 -14 m 543 132 q 710 178 636 132 q 825 304 783 224 q 867 486 867 385 q 825 668 867 588 q 710 794 783 749 q 543 840 636 840 q 376 794 449 840 q 261 669 303 749 q 219 486 219 589 q 261 303 219 383 q 376 178 303 224 q 543 132 449 132 m 483 1051 l 317 1194 l 369 1240 l 543 1163 l 717 1240 l 769 1194 l 603 1051 l 483 1051 z "},"Ô":{"ha":1086,"x_min":67,"x_max":1019,"o":"m 543 -14 q 353 24 440 -14 q 202 128 267 61 q 102 287 138 196 q 67 486 67 378 q 102 685 67 594 q 202 844 138 776 q 353 949 267 911 q 543 986 440 986 q 733 949 646 986 q 884 843 819 911 q 984 684 949 775 q 1019 486 1019 593 q 984 288 1019 379 q 884 129 949 197 q 733 24 819 61 q 543 -14 646 -14 m 543 132 q 710 178 636 132 q 825 304 783 224 q 867 486 867 385 q 825 668 867 588 q 710 794 783 749 q 543 840 636 840 q 376 794 449 840 q 261 669 303 749 q 219 486 219 589 q 261 303 219 383 q 376 178 303 224 q 543 132 449 132 m 371 1049 l 319 1097 l 492 1238 l 593 1238 l 765 1097 l 714 1049 l 543 1129 l 371 1049 z "},"Ố":{"ha":1086,"x_min":67,"x_max":1019,"o":"m 543 -14 q 353 24 440 -14 q 202 128 267 61 q 102 287 138 196 q 67 486 67 378 q 102 685 67 594 q 202 844 138 776 q 353 949 267 911 q 543 986 440 986 q 733 949 646 986 q 884 843 819 911 q 984 684 949 775 q 1019 486 1019 593 q 984 288 1019 379 q 884 129 949 197 q 733 24 819 61 q 543 -14 646 -14 m 543 132 q 710 178 636 132 q 825 304 783 224 q 867 486 867 385 q 825 668 867 588 q 710 794 783 749 q 543 840 636 840 q 376 794 449 840 q 261 669 303 749 q 219 486 219 589 q 261 303 219 383 q 376 178 303 224 q 543 132 449 132 m 768 1200 l 696 1250 l 810 1453 l 931 1367 l 768 1200 m 371 1049 l 325 1099 l 492 1235 l 593 1235 l 760 1099 l 714 1049 l 543 1126 l 371 1049 z "},"Ộ":{"ha":1086,"x_min":67,"x_max":1019,"o":"m 543 -14 q 353 24 440 -14 q 202 128 267 61 q 102 287 138 196 q 67 486 67 378 q 102 685 67 594 q 202 844 138 776 q 353 949 267 911 q 543 986 440 986 q 733 949 646 986 q 884 843 819 911 q 984 684 949 775 q 1019 486 1019 593 q 984 288 1019 379 q 884 129 949 197 q 733 24 819 61 q 543 -14 646 -14 m 543 132 q 710 178 636 132 q 825 304 783 224 q 867 486 867 385 q 825 668 867 588 q 710 794 783 749 q 543 840 636 840 q 376 794 449 840 q 261 669 303 749 q 219 486 219 589 q 261 303 219 383 q 376 178 303 224 q 543 132 449 132 m 543 -286 q 472 -262 497 -286 q 447 -196 447 -239 q 473 -131 447 -156 q 543 -106 499 -106 q 614 -129 589 -106 q 639 -196 639 -153 q 613 -261 639 -236 q 543 -286 588 -286 m 371 1049 l 319 1097 l 492 1238 l 593 1238 l 765 1097 l 714 1049 l 543 1129 l 371 1049 z "},"Ồ":{"ha":1086,"x_min":67,"x_max":1019,"o":"m 543 -14 q 353 24 440 -14 q 202 128 267 61 q 102 287 138 196 q 67 486 67 378 q 102 685 67 594 q 202 844 138 776 q 353 949 267 911 q 543 986 440 986 q 733 949 646 986 q 884 843 819 911 q 984 684 949 775 q 1019 486 1019 593 q 984 288 1019 379 q 884 129 949 197 q 733 24 819 61 q 543 -14 646 -14 m 543 132 q 710 178 636 132 q 825 304 783 224 q 867 486 867 385 q 825 668 867 588 q 710 794 783 749 q 543 840 636 840 q 376 794 449 840 q 261 669 303 749 q 219 486 219 589 q 261 303 219 383 q 376 178 303 224 q 543 132 449 132 m 772 1201 l 604 1369 l 724 1457 l 839 1254 l 772 1201 m 371 1049 l 325 1099 l 492 1235 l 593 1235 l 760 1099 l 714 1049 l 543 1126 l 371 1049 z "},"Ổ":{"ha":1086,"x_min":67,"x_max":1019,"o":"m 543 -14 q 353 24 440 -14 q 202 128 267 61 q 102 287 138 196 q 67 486 67 378 q 102 685 67 594 q 202 844 138 776 q 353 949 267 911 q 543 986 440 986 q 733 949 646 986 q 884 843 819 911 q 984 684 949 775 q 1019 486 1019 593 q 984 288 1019 379 q 884 129 949 197 q 733 24 819 61 q 543 -14 646 -14 m 543 132 q 710 178 636 132 q 825 304 783 224 q 867 486 867 385 q 825 668 867 588 q 710 794 783 749 q 543 840 636 840 q 376 794 449 840 q 261 669 303 749 q 219 486 219 589 q 261 303 219 383 q 376 178 303 224 q 543 132 449 132 m 729 1199 q 715 1222 721 1210 q 708 1247 708 1235 q 715 1272 708 1260 q 746 1301 721 1285 q 788 1338 788 1329 q 776 1356 788 1350 q 746 1361 764 1361 q 647 1336 697 1361 l 625 1424 q 688 1449 654 1440 q 749 1457 721 1457 q 859 1426 822 1457 q 896 1350 896 1394 q 878 1303 896 1321 q 844 1275 861 1286 q 796 1232 796 1246 q 800 1217 796 1225 l 729 1199 m 371 1049 l 325 1099 l 492 1235 l 593 1235 l 760 1099 l 714 1049 l 543 1126 l 371 1049 z "},"Ỗ":{"ha":1086,"x_min":67,"x_max":1019,"o":"m 543 -14 q 353 24 440 -14 q 202 128 267 61 q 102 287 138 196 q 67 486 67 378 q 102 685 67 594 q 202 844 138 776 q 353 949 267 911 q 543 986 440 986 q 733 949 646 986 q 884 843 819 911 q 984 684 949 775 q 1019 486 1019 593 q 984 288 1019 379 q 884 129 949 197 q 733 24 819 61 q 543 -14 646 -14 m 543 132 q 710 178 636 132 q 825 304 783 224 q 867 486 867 385 q 825 668 867 588 q 710 794 783 749 q 543 840 636 840 q 376 794 449 840 q 261 669 303 749 q 219 486 219 589 q 261 303 219 383 q 376 178 303 224 q 543 132 449 132 m 650 1301 q 588 1311 617 1301 q 536 1331 560 1321 q 494 1349 511 1342 q 464 1356 478 1356 q 413 1304 424 1356 l 318 1318 q 360 1417 321 1375 q 454 1460 399 1460 q 508 1450 483 1460 q 557 1429 532 1440 q 594 1413 575 1421 q 626 1406 613 1406 q 672 1458 661 1406 l 767 1444 q 735 1344 764 1386 q 650 1301 706 1301 m 371 1049 l 325 1099 l 492 1235 l 593 1235 l 760 1099 l 714 1049 l 543 1126 l 371 1049 z "},"Ȍ":{"ha":1086,"x_min":67,"x_max":1019,"o":"m 543 -14 q 353 24 440 -14 q 202 128 267 61 q 102 287 138 196 q 67 486 67 378 q 102 685 67 594 q 202 844 138 776 q 353 949 267 911 q 543 986 440 986 q 733 949 646 986 q 884 843 819 911 q 984 684 949 775 q 1019 486 1019 593 q 984 288 1019 379 q 884 129 949 197 q 733 24 819 61 q 543 -14 646 -14 m 543 132 q 710 178 636 132 q 825 304 783 224 q 867 486 867 385 q 825 668 867 588 q 710 794 783 749 q 543 840 636 840 q 376 794 449 840 q 261 669 303 749 q 219 486 219 589 q 261 303 219 383 q 376 178 303 224 q 543 132 449 132 m 697 1042 l 468 1193 l 568 1299 l 750 1108 l 697 1042 m 421 1042 l 192 1193 l 292 1299 l 474 1108 l 421 1042 z "},"Ö":{"ha":1086,"x_min":67,"x_max":1019,"o":"m 543 -14 q 353 24 440 -14 q 202 128 267 61 q 102 287 138 196 q 67 486 67 378 q 102 685 67 594 q 202 844 138 776 q 353 949 267 911 q 543 986 440 986 q 733 949 646 986 q 884 843 819 911 q 984 684 949 775 q 1019 486 1019 593 q 984 288 1019 379 q 884 129 949 197 q 733 24 819 61 q 543 -14 646 -14 m 543 132 q 710 178 636 132 q 825 304 783 224 q 867 486 867 385 q 825 668 867 588 q 710 794 783 749 q 543 840 636 840 q 376 794 449 840 q 261 669 303 749 q 219 486 219 589 q 261 303 219 383 q 376 178 303 224 q 543 132 449 132 m 686 1054 q 614 1079 638 1054 q 590 1144 590 1104 q 614 1207 590 1179 q 686 1235 638 1235 q 758 1210 735 1235 q 782 1144 782 1185 q 758 1082 782 1110 q 686 1054 735 1054 m 400 1054 q 328 1079 351 1054 q 304 1144 304 1104 q 328 1207 304 1179 q 400 1235 351 1235 q 472 1210 449 1235 q 496 1144 496 1185 q 472 1082 496 1110 q 400 1054 449 1054 z "},"Ȫ":{"ha":1086,"x_min":67,"x_max":1019,"o":"m 543 -14 q 353 24 440 -14 q 202 128 267 61 q 102 287 138 196 q 67 486 67 378 q 102 685 67 594 q 202 844 138 776 q 353 949 267 911 q 543 986 440 986 q 733 949 646 986 q 884 843 819 911 q 984 684 949 775 q 1019 486 1019 593 q 984 288 1019 379 q 884 129 949 197 q 733 24 819 61 q 543 -14 646 -14 m 543 132 q 710 178 636 132 q 825 304 783 224 q 867 486 867 385 q 825 668 867 588 q 710 794 783 749 q 543 840 636 840 q 376 794 449 840 q 261 669 303 749 q 219 486 219 589 q 261 303 219 383 q 376 178 303 224 q 543 132 449 132 m 686 1054 q 614 1079 638 1054 q 590 1144 590 1104 q 614 1207 590 1179 q 686 1235 638 1235 q 758 1210 735 1235 q 782 1144 782 1185 q 758 1082 782 1110 q 686 1054 735 1054 m 400 1054 q 328 1079 351 1054 q 304 1144 304 1104 q 328 1207 304 1179 q 400 1235 351 1235 q 472 1210 449 1235 q 496 1144 496 1185 q 472 1082 496 1110 q 400 1054 449 1054 m 313 1301 l 313 1406 l 772 1406 l 772 1301 l 313 1301 z "},"Ȱ":{"ha":1086,"x_min":67,"x_max":1019,"o":"m 543 -14 q 353 24 440 -14 q 202 128 267 61 q 102 287 138 196 q 67 486 67 378 q 102 685 67 594 q 202 844 138 776 q 353 949 267 911 q 543 986 440 986 q 733 949 646 986 q 884 843 819 911 q 984 684 949 775 q 1019 486 1019 593 q 984 288 1019 379 q 884 129 949 197 q 733 24 819 61 q 543 -14 646 -14 m 543 132 q 710 178 636 132 q 825 304 783 224 q 867 486 867 385 q 825 668 867 588 q 710 794 783 749 q 543 840 636 840 q 376 794 449 840 q 261 669 303 749 q 219 486 219 589 q 261 303 219 383 q 376 178 303 224 q 543 132 449 132 m 543 1054 q 471 1079 494 1054 q 447 1144 447 1104 q 471 1207 447 1179 q 543 1235 494 1235 q 615 1210 592 1235 q 639 1144 639 1185 q 615 1082 639 1110 q 543 1054 592 1054 m 313 1301 l 313 1406 l 772 1406 l 772 1301 l 313 1301 z "},"Ọ":{"ha":1086,"x_min":67,"x_max":1019,"o":"m 543 -14 q 353 24 440 -14 q 202 128 267 61 q 102 287 138 196 q 67 486 67 378 q 102 685 67 594 q 202 844 138 776 q 353 949 267 911 q 543 986 440 986 q 733 949 646 986 q 884 843 819 911 q 984 684 949 775 q 1019 486 1019 593 q 984 288 1019 379 q 884 129 949 197 q 733 24 819 61 q 543 -14 646 -14 m 543 132 q 710 178 636 132 q 825 304 783 224 q 867 486 867 385 q 825 668 867 588 q 710 794 783 749 q 543 840 636 840 q 376 794 449 840 q 261 669 303 749 q 219 486 219 589 q 261 303 219 383 q 376 178 303 224 q 543 132 449 132 m 543 -286 q 472 -262 497 -286 q 447 -196 447 -239 q 473 -131 447 -156 q 543 -106 499 -106 q 614 -129 589 -106 q 639 -196 639 -153 q 613 -261 639 -236 q 543 -286 588 -286 z "},"Ò":{"ha":1086,"x_min":67,"x_max":1019,"o":"m 543 -14 q 353 24 440 -14 q 202 128 267 61 q 102 287 138 196 q 67 486 67 378 q 102 685 67 594 q 202 844 138 776 q 353 949 267 911 q 543 986 440 986 q 733 949 646 986 q 884 843 819 911 q 984 684 949 775 q 1019 486 1019 593 q 984 288 1019 379 q 884 129 949 197 q 733 24 819 61 q 543 -14 646 -14 m 543 132 q 710 178 636 132 q 825 304 783 224 q 867 486 867 385 q 825 668 867 588 q 710 794 783 749 q 543 840 636 840 q 376 794 449 840 q 261 669 303 749 q 219 486 219 589 q 261 303 219 383 q 376 178 303 224 q 543 132 449 132 m 649 1049 l 368 1153 l 436 1278 l 690 1121 l 649 1049 z "},"Ỏ":{"ha":1086,"x_min":67,"x_max":1019,"o":"m 543 -14 q 353 24 440 -14 q 202 128 267 61 q 102 287 138 196 q 67 486 67 378 q 102 685 67 594 q 202 844 138 776 q 353 949 267 911 q 543 986 440 986 q 733 949 646 986 q 884 843 819 911 q 984 684 949 775 q 1019 486 1019 593 q 984 288 1019 379 q 884 129 949 197 q 733 24 819 61 q 543 -14 646 -14 m 543 132 q 710 178 636 132 q 825 304 783 224 q 867 486 867 385 q 825 668 867 588 q 710 794 783 749 q 543 840 636 840 q 376 794 449 840 q 261 669 303 749 q 219 486 219 589 q 261 303 219 383 q 376 178 303 224 q 543 132 449 132 m 511 1053 q 490 1106 490 1081 q 498 1133 490 1118 q 528 1164 506 1149 q 569 1206 569 1192 q 558 1224 569 1218 q 528 1229 546 1229 q 429 1204 479 1229 l 407 1292 q 469 1317 436 1308 q 531 1325 503 1325 q 641 1294 604 1325 q 678 1218 678 1263 q 662 1163 678 1183 q 626 1133 646 1143 q 590 1112 601 1121 q 578 1089 578 1103 q 582 1071 578 1079 l 511 1053 z "},"Ơ":{"ha":1086,"x_min":67,"x_max":1019,"o":"m 543 -14 q 353 24 440 -14 q 202 128 267 61 q 102 287 138 196 q 67 486 67 378 q 102 685 67 594 q 202 844 138 776 q 353 949 267 911 q 543 986 440 986 q 605 983 578 986 q 654 974 632 979 q 721 965 690 965 q 844 1131 844 965 l 972 1131 q 940 974 972 1039 q 839 885 908 908 q 971 714 922 817 q 1019 486 1019 611 q 984 288 1019 379 q 884 129 949 197 q 733 24 819 61 q 543 -14 646 -14 m 543 132 q 710 178 636 132 q 825 304 783 224 q 867 486 867 385 q 825 668 867 588 q 710 794 783 749 q 543 840 636 840 q 376 794 449 840 q 261 669 303 749 q 219 486 219 589 q 261 303 219 383 q 376 178 303 224 q 543 132 449 132 z "},"Ớ":{"ha":1086,"x_min":67,"x_max":1019,"o":"m 543 -14 q 353 24 440 -14 q 202 128 267 61 q 102 287 138 196 q 67 486 67 378 q 102 685 67 594 q 202 844 138 776 q 353 949 267 911 q 543 986 440 986 q 605 983 578 986 q 654 974 632 979 q 721 965 690 965 q 844 1131 844 965 l 972 1131 q 940 974 972 1039 q 839 885 908 908 q 971 714 922 817 q 1019 486 1019 611 q 984 288 1019 379 q 884 129 949 197 q 733 24 819 61 q 543 -14 646 -14 m 543 132 q 710 178 636 132 q 825 304 783 224 q 867 486 867 385 q 825 668 867 588 q 710 794 783 749 q 543 840 636 840 q 376 794 449 840 q 261 669 303 749 q 219 486 219 589 q 261 303 219 383 q 376 178 303 224 q 543 132 449 132 m 449 1049 l 410 1121 l 664 1278 l 729 1153 l 449 1049 z "},"Ợ":{"ha":1086,"x_min":67,"x_max":1019,"o":"m 543 -14 q 353 24 440 -14 q 202 128 267 61 q 102 287 138 196 q 67 486 67 378 q 102 685 67 594 q 202 844 138 776 q 353 949 267 911 q 543 986 440 986 q 605 983 578 986 q 654 974 632 979 q 721 965 690 965 q 844 1131 844 965 l 972 1131 q 940 974 972 1039 q 839 885 908 908 q 971 714 922 817 q 1019 486 1019 611 q 984 288 1019 379 q 884 129 949 197 q 733 24 819 61 q 543 -14 646 -14 m 543 132 q 710 178 636 132 q 825 304 783 224 q 867 486 867 385 q 825 668 867 588 q 710 794 783 749 q 543 840 636 840 q 376 794 449 840 q 261 669 303 749 q 219 486 219 589 q 261 303 219 383 q 376 178 303 224 q 543 132 449 132 m 543 -286 q 472 -262 497 -286 q 447 -196 447 -239 q 473 -131 447 -156 q 543 -106 499 -106 q 614 -129 589 -106 q 639 -196 639 -153 q 613 -261 639 -236 q 543 -286 588 -286 z "},"Ờ":{"ha":1086,"x_min":67,"x_max":1019,"o":"m 543 -14 q 353 24 440 -14 q 202 128 267 61 q 102 287 138 196 q 67 486 67 378 q 102 685 67 594 q 202 844 138 776 q 353 949 267 911 q 543 986 440 986 q 605 983 578 986 q 654 974 632 979 q 721 965 690 965 q 844 1131 844 965 l 972 1131 q 940 974 972 1039 q 839 885 908 908 q 971 714 922 817 q 1019 486 1019 611 q 984 288 1019 379 q 884 129 949 197 q 733 24 819 61 q 543 -14 646 -14 m 543 132 q 710 178 636 132 q 825 304 783 224 q 867 486 867 385 q 825 668 867 588 q 710 794 783 749 q 543 840 636 840 q 376 794 449 840 q 261 669 303 749 q 219 486 219 589 q 261 303 219 383 q 376 178 303 224 q 543 132 449 132 m 649 1049 l 368 1153 l 436 1278 l 690 1121 l 649 1049 z "},"Ở":{"ha":1086,"x_min":67,"x_max":1019,"o":"m 543 -14 q 353 24 440 -14 q 202 128 267 61 q 102 287 138 196 q 67 486 67 378 q 102 685 67 594 q 202 844 138 776 q 353 949 267 911 q 543 986 440 986 q 605 983 578 986 q 654 974 632 979 q 721 965 690 965 q 844 1131 844 965 l 972 1131 q 940 974 972 1039 q 839 885 908 908 q 971 714 922 817 q 1019 486 1019 611 q 984 288 1019 379 q 884 129 949 197 q 733 24 819 61 q 543 -14 646 -14 m 543 132 q 710 178 636 132 q 825 304 783 224 q 867 486 867 385 q 825 668 867 588 q 710 794 783 749 q 543 840 636 840 q 376 794 449 840 q 261 669 303 749 q 219 486 219 589 q 261 303 219 383 q 376 178 303 224 q 543 132 449 132 m 511 1053 q 490 1106 490 1081 q 498 1133 490 1118 q 528 1164 506 1149 q 569 1206 569 1192 q 558 1224 569 1218 q 528 1229 546 1229 q 429 1204 479 1229 l 407 1292 q 469 1317 436 1308 q 531 1325 503 1325 q 641 1294 604 1325 q 678 1218 678 1263 q 662 1163 678 1183 q 626 1133 646 1143 q 590 1112 601 1121 q 578 1089 578 1103 q 582 1071 578 1079 l 511 1053 z "},"Ỡ":{"ha":1086,"x_min":67,"x_max":1019,"o":"m 543 -14 q 353 24 440 -14 q 202 128 267 61 q 102 287 138 196 q 67 486 67 378 q 102 685 67 594 q 202 844 138 776 q 353 949 267 911 q 543 986 440 986 q 605 983 578 986 q 654 974 632 979 q 721 965 690 965 q 844 1131 844 965 l 972 1131 q 940 974 972 1039 q 839 885 908 908 q 971 714 922 817 q 1019 486 1019 611 q 984 288 1019 379 q 884 129 949 197 q 733 24 819 61 q 543 -14 646 -14 m 543 132 q 710 178 636 132 q 825 304 783 224 q 867 486 867 385 q 825 668 867 588 q 710 794 783 749 q 543 840 636 840 q 376 794 449 840 q 261 669 303 749 q 219 486 219 589 q 261 303 219 383 q 376 178 303 224 q 543 132 449 132 m 646 1067 q 581 1077 614 1067 q 519 1099 549 1088 q 479 1114 496 1108 q 449 1119 463 1119 q 407 1067 407 1119 l 300 1067 q 349 1183 300 1142 q 458 1224 397 1224 q 515 1214 488 1224 q 569 1193 543 1204 q 608 1179 589 1185 q 639 1174 626 1174 q 679 1224 682 1174 l 785 1224 q 748 1115 785 1163 q 646 1067 711 1067 z "},"Ő":{"ha":1086,"x_min":67,"x_max":1019,"o":"m 543 -14 q 353 24 440 -14 q 202 128 267 61 q 102 287 138 196 q 67 486 67 378 q 102 685 67 594 q 202 844 138 776 q 353 949 267 911 q 543 986 440 986 q 733 949 646 986 q 884 843 819 911 q 984 684 949 775 q 1019 486 1019 593 q 984 288 1019 379 q 884 129 949 197 q 733 24 819 61 q 543 -14 646 -14 m 543 132 q 710 178 636 132 q 825 304 783 224 q 867 486 867 385 q 825 668 867 588 q 710 794 783 749 q 543 840 636 840 q 376 794 449 840 q 261 669 303 749 q 219 486 219 589 q 261 303 219 383 q 376 178 303 224 q 543 132 449 132 m 392 1042 l 339 1108 l 521 1299 l 621 1193 l 392 1042 m 668 1042 l 615 1108 l 797 1299 l 897 1193 l 668 1042 z "},"Ȏ":{"ha":1086,"x_min":67,"x_max":1019,"o":"m 543 -14 q 353 24 440 -14 q 202 128 267 61 q 102 287 138 196 q 67 486 67 378 q 102 685 67 594 q 202 844 138 776 q 353 949 267 911 q 543 986 440 986 q 733 949 646 986 q 884 843 819 911 q 984 684 949 775 q 1019 486 1019 593 q 984 288 1019 379 q 884 129 949 197 q 733 24 819 61 q 543 -14 646 -14 m 543 132 q 710 178 636 132 q 825 304 783 224 q 867 486 867 385 q 825 668 867 588 q 710 794 783 749 q 543 840 636 840 q 376 794 449 840 q 261 669 303 749 q 219 486 219 589 q 261 303 219 383 q 376 178 303 224 q 543 132 449 132 m 421 1043 l 318 1060 q 362 1152 331 1110 q 440 1220 393 1194 q 543 1246 486 1246 q 647 1220 601 1246 q 725 1152 693 1194 q 768 1060 757 1110 l 665 1043 q 618 1106 650 1078 q 543 1133 586 1133 q 468 1106 500 1133 q 421 1043 436 1078 z "},"Ō":{"ha":1086,"x_min":67,"x_max":1019,"o":"m 543 -14 q 353 24 440 -14 q 202 128 267 61 q 102 287 138 196 q 67 486 67 378 q 102 685 67 594 q 202 844 138 776 q 353 949 267 911 q 543 986 440 986 q 733 949 646 986 q 884 843 819 911 q 984 684 949 775 q 1019 486 1019 593 q 984 288 1019 379 q 884 129 949 197 q 733 24 819 61 q 543 -14 646 -14 m 543 132 q 710 178 636 132 q 825 304 783 224 q 867 486 867 385 q 825 668 867 588 q 710 794 783 749 q 543 840 636 840 q 376 794 449 840 q 261 669 303 749 q 219 486 219 589 q 261 303 219 383 q 376 178 303 224 q 543 132 449 132 m 313 1093 l 313 1197 l 772 1197 l 772 1093 l 313 1093 z "},"Ṓ":{"ha":1086,"x_min":67,"x_max":1019,"o":"m 543 -14 q 353 24 440 -14 q 202 128 267 61 q 102 287 138 196 q 67 486 67 378 q 102 685 67 594 q 202 844 138 776 q 353 949 267 911 q 543 986 440 986 q 733 949 646 986 q 884 843 819 911 q 984 684 949 775 q 1019 486 1019 593 q 984 288 1019 379 q 884 129 949 197 q 733 24 819 61 q 543 -14 646 -14 m 543 132 q 710 178 636 132 q 825 304 783 224 q 867 486 867 385 q 825 668 867 588 q 710 794 783 749 q 543 840 636 840 q 376 794 449 840 q 261 669 303 749 q 219 486 219 589 q 261 303 219 383 q 376 178 303 224 q 543 132 449 132 m 313 1093 l 313 1197 l 772 1197 l 772 1093 l 313 1093 m 449 1257 l 410 1329 l 664 1486 l 729 1361 l 449 1257 z "},"Ṑ":{"ha":1086,"x_min":67,"x_max":1019,"o":"m 543 -14 q 353 24 440 -14 q 202 128 267 61 q 102 287 138 196 q 67 486 67 378 q 102 685 67 594 q 202 844 138 776 q 353 949 267 911 q 543 986 440 986 q 733 949 646 986 q 884 843 819 911 q 984 684 949 775 q 1019 486 1019 593 q 984 288 1019 379 q 884 129 949 197 q 733 24 819 61 q 543 -14 646 -14 m 543 132 q 710 178 636 132 q 825 304 783 224 q 867 486 867 385 q 825 668 867 588 q 710 794 783 749 q 543 840 636 840 q 376 794 449 840 q 261 669 303 749 q 219 486 219 589 q 261 303 219 383 q 376 178 303 224 q 543 132 449 132 m 313 1093 l 313 1197 l 772 1197 l 772 1093 l 313 1093 m 649 1257 l 368 1361 l 436 1486 l 690 1329 l 649 1257 z "},"Ǫ":{"ha":1086,"x_min":67,"x_max":1019,"o":"m 543 -14 q 353 24 440 -14 q 202 128 267 61 q 102 287 138 196 q 67 486 67 378 q 102 685 67 594 q 202 844 138 776 q 353 949 267 911 q 543 986 440 986 q 733 949 646 986 q 884 843 819 911 q 984 684 949 775 q 1019 486 1019 593 q 948 214 1019 333 q 757 35 876 94 q 631 -117 631 -43 q 678 -171 631 -171 q 729 -136 706 -171 l 807 -192 q 749 -252 793 -226 q 656 -278 706 -278 q 550 -241 596 -278 q 504 -135 504 -204 q 517 -70 504 -100 q 553 -14 531 -40 q 543 -14 549 -14 m 543 132 q 710 178 636 132 q 825 304 783 224 q 867 486 867 385 q 825 668 867 588 q 710 794 783 749 q 543 840 636 840 q 376 794 449 840 q 261 669 303 749 q 219 486 219 589 q 261 303 219 383 q 376 178 303 224 q 543 132 449 132 z "},"Ø":{"ha":1069,"x_min":65,"x_max":1018,"o":"m 171 -46 l 83 28 l 182 149 q 96 300 126 214 q 65 486 65 386 q 101 685 65 594 q 201 844 136 776 q 352 949 265 911 q 542 986 439 986 q 682 966 615 986 q 804 910 749 946 l 901 1029 l 996 964 l 890 835 q 984 679 950 768 q 1018 486 1018 590 q 983 288 1018 379 q 883 129 947 197 q 731 24 818 61 q 542 -14 644 -14 q 394 8 464 -14 q 267 71 324 31 l 171 -46 m 218 486 q 234 368 218 424 q 281 268 250 313 l 708 793 q 542 840 635 840 q 374 794 447 840 q 260 669 301 749 q 218 486 218 589 m 542 132 q 708 178 635 132 q 824 304 782 224 q 865 486 865 385 q 847 612 865 553 q 793 715 828 671 l 361 186 q 542 132 440 132 z "},"Ǿ":{"ha":1069,"x_min":65,"x_max":1018,"o":"m 171 -46 l 83 28 l 182 149 q 96 300 126 214 q 65 486 65 386 q 101 685 65 594 q 201 844 136 776 q 352 949 265 911 q 542 986 439 986 q 682 966 615 986 q 804 910 749 946 l 901 1029 l 996 964 l 890 835 q 984 679 950 768 q 1018 486 1018 590 q 983 288 1018 379 q 883 129 947 197 q 731 24 818 61 q 542 -14 644 -14 q 394 8 464 -14 q 267 71 324 31 l 171 -46 m 218 486 q 234 368 218 424 q 281 268 250 313 l 708 793 q 542 840 635 840 q 374 794 447 840 q 260 669 301 749 q 218 486 218 589 m 542 132 q 708 178 635 132 q 824 304 782 224 q 865 486 865 385 q 847 612 865 553 q 793 715 828 671 l 361 186 q 542 132 440 132 m 440 1049 l 401 1121 l 656 1278 l 721 1153 l 440 1049 z "},"Õ":{"ha":1086,"x_min":67,"x_max":1019,"o":"m 543 -14 q 353 24 440 -14 q 202 128 267 61 q 102 287 138 196 q 67 486 67 378 q 102 685 67 594 q 202 844 138 776 q 353 949 267 911 q 543 986 440 986 q 733 949 646 986 q 884 843 819 911 q 984 684 949 775 q 1019 486 1019 593 q 984 288 1019 379 q 884 129 949 197 q 733 24 819 61 q 543 -14 646 -14 m 543 132 q 710 178 636 132 q 825 304 783 224 q 867 486 867 385 q 825 668 867 588 q 710 794 783 749 q 543 840 636 840 q 376 794 449 840 q 261 669 303 749 q 219 486 219 589 q 261 303 219 383 q 376 178 303 224 q 543 132 449 132 m 646 1067 q 581 1077 614 1067 q 519 1099 549 1088 q 479 1114 496 1108 q 449 1119 463 1119 q 407 1067 407 1119 l 300 1067 q 349 1183 300 1142 q 458 1224 397 1224 q 515 1214 488 1224 q 569 1193 543 1204 q 608 1179 589 1185 q 639 1174 626 1174 q 679 1224 682 1174 l 785 1224 q 748 1115 785 1163 q 646 1067 711 1067 z "},"Ṍ":{"ha":1086,"x_min":67,"x_max":1019,"o":"m 543 -14 q 353 24 440 -14 q 202 128 267 61 q 102 287 138 196 q 67 486 67 378 q 102 685 67 594 q 202 844 138 776 q 353 949 267 911 q 543 986 440 986 q 733 949 646 986 q 884 843 819 911 q 984 684 949 775 q 1019 486 1019 593 q 984 288 1019 379 q 884 129 949 197 q 733 24 819 61 q 543 -14 646 -14 m 543 132 q 710 178 636 132 q 825 304 783 224 q 867 486 867 385 q 825 668 867 588 q 710 794 783 749 q 543 840 636 840 q 376 794 449 840 q 261 669 303 749 q 219 486 219 589 q 261 303 219 383 q 376 178 303 224 q 543 132 449 132 m 646 1067 q 581 1077 614 1067 q 519 1099 549 1088 q 479 1114 496 1108 q 449 1119 463 1119 q 407 1067 407 1119 l 300 1067 q 349 1183 300 1142 q 458 1224 397 1224 q 515 1214 488 1224 q 569 1193 543 1204 q 608 1179 589 1185 q 639 1174 626 1174 q 679 1224 682 1174 l 785 1224 q 748 1115 785 1163 q 646 1067 711 1067 m 449 1257 l 410 1329 l 664 1486 l 729 1361 l 449 1257 z "},"Ṏ":{"ha":1086,"x_min":67,"x_max":1019,"o":"m 543 -14 q 353 24 440 -14 q 202 128 267 61 q 102 287 138 196 q 67 486 67 378 q 102 685 67 594 q 202 844 138 776 q 353 949 267 911 q 543 986 440 986 q 733 949 646 986 q 884 843 819 911 q 984 684 949 775 q 1019 486 1019 593 q 984 288 1019 379 q 884 129 949 197 q 733 24 819 61 q 543 -14 646 -14 m 543 132 q 710 178 636 132 q 825 304 783 224 q 867 486 867 385 q 825 668 867 588 q 710 794 783 749 q 543 840 636 840 q 376 794 449 840 q 261 669 303 749 q 219 486 219 589 q 261 303 219 383 q 376 178 303 224 q 543 132 449 132 m 646 1067 q 581 1077 614 1067 q 519 1099 549 1088 q 479 1114 496 1108 q 449 1119 463 1119 q 407 1067 407 1119 l 300 1067 q 349 1183 300 1142 q 458 1224 397 1224 q 515 1214 488 1224 q 569 1193 543 1204 q 608 1179 589 1185 q 639 1174 626 1174 q 679 1224 682 1174 l 785 1224 q 748 1115 785 1163 q 646 1067 711 1067 m 686 1263 q 614 1288 638 1263 q 590 1353 590 1313 q 614 1415 590 1388 q 686 1443 638 1443 q 758 1418 735 1443 q 782 1353 782 1393 q 758 1290 782 1318 q 686 1263 735 1263 m 400 1263 q 328 1288 351 1263 q 304 1353 304 1313 q 328 1415 304 1388 q 400 1443 351 1443 q 472 1418 449 1443 q 496 1353 496 1393 q 472 1290 496 1318 q 400 1263 449 1263 z "},"Ȭ":{"ha":1086,"x_min":67,"x_max":1019,"o":"m 543 -14 q 353 24 440 -14 q 202 128 267 61 q 102 287 138 196 q 67 486 67 378 q 102 685 67 594 q 202 844 138 776 q 353 949 267 911 q 543 986 440 986 q 733 949 646 986 q 884 843 819 911 q 984 684 949 775 q 1019 486 1019 593 q 984 288 1019 379 q 884 129 949 197 q 733 24 819 61 q 543 -14 646 -14 m 543 132 q 710 178 636 132 q 825 304 783 224 q 867 486 867 385 q 825 668 867 588 q 710 794 783 749 q 543 840 636 840 q 376 794 449 840 q 261 669 303 749 q 219 486 219 589 q 261 303 219 383 q 376 178 303 224 q 543 132 449 132 m 646 1067 q 581 1077 614 1067 q 519 1099 549 1088 q 479 1114 496 1108 q 449 1119 463 1119 q 407 1067 407 1119 l 300 1067 q 349 1183 300 1142 q 458 1224 397 1224 q 515 1214 488 1224 q 569 1193 543 1204 q 608 1179 589 1185 q 639 1174 626 1174 q 679 1224 682 1174 l 785 1224 q 748 1115 785 1163 q 646 1067 711 1067 m 313 1301 l 313 1406 l 772 1406 l 772 1301 l 313 1301 z "},"Œ":{"ha":1426,"x_min":67,"x_max":1322,"o":"m 521 0 q 280 61 382 0 q 122 231 178 122 q 67 486 67 340 q 126 740 67 631 q 294 911 186 850 q 549 972 403 972 l 1322 972 l 1322 828 l 860 828 l 860 571 l 1246 571 l 1246 426 l 860 426 l 860 144 l 1322 144 l 1322 0 l 521 0 m 219 486 q 299 235 219 326 q 525 144 379 144 l 710 144 l 710 828 l 553 828 q 307 736 394 828 q 219 486 219 644 z "},"P":{"ha":881,"x_min":136,"x_max":818,"o":"m 136 0 l 136 972 l 532 972 q 676 933 611 972 q 779 825 740 893 q 818 674 818 757 q 779 522 818 590 q 676 413 740 454 q 532 372 611 372 l 286 372 l 286 0 l 136 0 m 286 517 l 529 517 q 597 538 567 517 q 647 595 628 560 q 665 674 665 631 q 625 783 665 738 q 529 828 585 828 l 286 828 l 286 517 z "},"Þ":{"ha":881,"x_min":136,"x_max":818,"o":"m 136 0 l 136 972 l 286 972 l 286 796 l 532 796 q 676 756 611 796 q 779 649 740 717 q 818 497 818 581 q 779 345 818 414 q 676 236 740 276 q 532 196 611 196 l 286 196 l 286 0 l 136 0 m 286 340 l 529 340 q 597 362 567 340 q 647 419 628 383 q 665 497 665 454 q 625 606 665 561 q 529 651 585 651 l 286 651 l 286 340 z "},"Q":{"ha":1086,"x_min":67,"x_max":1019,"o":"m 543 -14 q 353 24 440 -14 q 202 128 267 61 q 102 287 138 196 q 67 486 67 378 q 102 685 67 594 q 202 844 138 776 q 353 949 267 911 q 543 986 440 986 q 733 949 646 986 q 884 843 819 911 q 984 684 949 775 q 1019 486 1019 593 q 974 264 1019 365 q 847 94 928 163 l 971 -67 l 851 -153 l 721 19 q 543 -14 636 -14 m 543 132 q 626 143 586 132 l 483 329 l 607 411 l 757 214 q 838 332 808 263 q 867 486 867 401 q 825 668 867 588 q 710 794 783 749 q 543 840 636 840 q 376 794 449 840 q 261 669 303 749 q 219 486 219 589 q 261 303 219 383 q 376 178 303 224 q 543 132 449 132 z "},"R":{"ha":965,"x_min":136,"x_max":896,"o":"m 136 0 l 136 972 l 550 972 q 703 931 633 972 q 815 820 774 890 q 857 663 857 750 q 804 499 857 574 q 669 389 751 424 l 896 -1 l 714 0 l 508 365 l 286 365 l 286 0 l 136 0 m 286 510 l 564 510 q 665 554 625 510 q 704 664 704 599 q 653 782 704 736 q 525 828 603 828 l 286 828 l 286 510 z "},"Ŕ":{"ha":965,"x_min":136,"x_max":896,"o":"m 136 0 l 136 972 l 550 972 q 703 931 633 972 q 815 820 774 890 q 857 663 857 750 q 804 499 857 574 q 669 389 751 424 l 896 -1 l 714 0 l 508 365 l 286 365 l 286 0 l 136 0 m 286 510 l 564 510 q 665 554 625 510 q 704 664 704 599 q 653 782 704 736 q 525 828 603 828 l 286 828 l 286 510 m 347 1049 l 308 1121 l 563 1278 l 628 1153 l 347 1049 z "},"Ř":{"ha":965,"x_min":136,"x_max":896,"o":"m 136 0 l 136 972 l 550 972 q 703 931 633 972 q 815 820 774 890 q 857 663 857 750 q 804 499 857 574 q 669 389 751 424 l 896 -1 l 714 0 l 508 365 l 286 365 l 286 0 l 136 0 m 286 510 l 564 510 q 665 554 625 510 q 704 664 704 599 q 653 782 704 736 q 525 828 603 828 l 286 828 l 286 510 m 382 1051 l 215 1194 l 268 1240 l 442 1163 l 615 1240 l 668 1194 l 501 1051 l 382 1051 z "},"Ŗ":{"ha":965,"x_min":136,"x_max":896,"o":"m 136 0 l 136 972 l 550 972 q 703 931 633 972 q 815 820 774 890 q 857 663 857 750 q 804 499 857 574 q 669 389 751 424 l 896 -1 l 714 0 l 508 365 l 286 365 l 286 0 l 136 0 m 286 510 l 564 510 q 665 554 625 510 q 704 664 704 599 q 653 782 704 736 q 525 828 603 828 l 286 828 l 286 510 m 414 -337 l 381 -279 q 433 -250 410 -272 q 456 -207 456 -228 q 451 -193 456 -199 q 429 -183 446 -187 q 396 -164 404 -176 q 388 -131 388 -151 q 413 -81 388 -100 q 478 -62 438 -62 q 555 -92 524 -62 q 586 -169 586 -121 q 539 -267 586 -222 q 414 -337 492 -311 z "},"Ȑ":{"ha":965,"x_min":90,"x_max":896,"o":"m 136 0 l 136 972 l 550 972 q 703 931 633 972 q 815 820 774 890 q 857 663 857 750 q 804 499 857 574 q 669 389 751 424 l 896 -1 l 714 0 l 508 365 l 286 365 l 286 0 l 136 0 m 286 510 l 564 510 q 665 554 625 510 q 704 664 704 599 q 653 782 704 736 q 525 828 603 828 l 286 828 l 286 510 m 596 1042 l 367 1193 l 467 1299 l 649 1108 l 596 1042 m 319 1042 l 90 1193 l 190 1299 l 372 1108 l 319 1042 z "},"Ṛ":{"ha":965,"x_min":136,"x_max":896,"o":"m 136 0 l 136 972 l 550 972 q 703 931 633 972 q 815 820 774 890 q 857 663 857 750 q 804 499 857 574 q 669 389 751 424 l 896 -1 l 714 0 l 508 365 l 286 365 l 286 0 l 136 0 m 286 510 l 564 510 q 665 554 625 510 q 704 664 704 599 q 653 782 704 736 q 525 828 603 828 l 286 828 l 286 510 m 483 -286 q 413 -262 438 -286 q 388 -196 388 -239 q 413 -131 388 -156 q 483 -106 439 -106 q 554 -129 529 -106 q 579 -196 579 -153 q 553 -261 579 -236 q 483 -286 528 -286 z "},"Ȓ":{"ha":965,"x_min":136,"x_max":896,"o":"m 136 0 l 136 972 l 550 972 q 703 931 633 972 q 815 820 774 890 q 857 663 857 750 q 804 499 857 574 q 669 389 751 424 l 896 -1 l 714 0 l 508 365 l 286 365 l 286 0 l 136 0 m 286 510 l 564 510 q 665 554 625 510 q 704 664 704 599 q 653 782 704 736 q 525 828 603 828 l 286 828 l 286 510 m 319 1043 l 217 1060 q 260 1152 229 1110 q 338 1220 292 1194 q 442 1246 385 1246 q 546 1220 500 1246 q 624 1152 592 1194 q 667 1060 656 1110 l 564 1043 q 517 1106 549 1078 q 442 1133 485 1133 q 367 1106 399 1133 q 319 1043 335 1078 z "},"Ṟ":{"ha":965,"x_min":136,"x_max":896,"o":"m 136 0 l 136 972 l 550 972 q 703 931 633 972 q 815 820 774 890 q 857 663 857 750 q 804 499 857 574 q 669 389 751 424 l 896 -1 l 714 0 l 508 365 l 286 365 l 286 0 l 136 0 m 286 510 l 564 510 q 665 554 625 510 q 704 664 704 599 q 653 782 704 736 q 525 828 603 828 l 286 828 l 286 510 m 288 -247 l 288 -144 l 678 -144 l 678 -247 l 288 -247 z "},"S":{"ha":867,"x_min":69,"x_max":790,"o":"m 436 -14 q 69 175 200 -14 l 172 293 q 303 158 240 196 q 451 121 365 121 q 585 157 531 121 q 640 250 640 193 q 586 355 640 314 q 415 418 532 396 q 118 714 118 476 q 163 854 118 793 q 283 951 207 915 q 453 986 358 986 q 782 815 682 986 l 676 711 q 577 815 635 779 q 449 851 519 851 q 318 815 368 851 q 268 718 268 778 q 313 622 268 658 q 468 563 358 585 q 706 460 621 531 q 790 289 790 389 q 695 68 790 150 q 436 -14 600 -14 z "},"Ś":{"ha":867,"x_min":69,"x_max":790,"o":"m 436 -14 q 69 175 200 -14 l 172 293 q 303 158 240 196 q 451 121 365 121 q 585 157 531 121 q 640 250 640 193 q 586 355 640 314 q 415 418 532 396 q 118 714 118 476 q 163 854 118 793 q 283 951 207 915 q 453 986 358 986 q 782 815 682 986 l 676 711 q 577 815 635 779 q 449 851 519 851 q 318 815 368 851 q 268 718 268 778 q 313 622 268 658 q 468 563 358 585 q 706 460 621 531 q 790 289 790 389 q 695 68 790 150 q 436 -14 600 -14 m 367 1049 l 328 1121 l 582 1278 l 647 1153 l 367 1049 z "},"Ṥ":{"ha":867,"x_min":69,"x_max":790,"o":"m 436 -14 q 69 175 200 -14 l 172 293 q 303 158 240 196 q 451 121 365 121 q 585 157 531 121 q 640 250 640 193 q 586 355 640 314 q 415 418 532 396 q 118 714 118 476 q 163 854 118 793 q 283 951 207 915 q 453 986 358 986 q 782 815 682 986 l 676 711 q 577 815 635 779 q 449 851 519 851 q 318 815 368 851 q 268 718 268 778 q 313 622 268 658 q 468 563 358 585 q 706 460 621 531 q 790 289 790 389 q 695 68 790 150 q 436 -14 600 -14 m 557 1043 l 485 1093 l 613 1289 l 719 1210 l 557 1043 m 343 1054 q 272 1078 297 1054 q 247 1144 247 1101 q 273 1210 247 1185 q 343 1235 299 1235 q 414 1211 389 1235 q 439 1144 439 1188 q 413 1079 439 1104 q 343 1054 388 1054 z "},"Š":{"ha":867,"x_min":69,"x_max":790,"o":"m 436 -14 q 69 175 200 -14 l 172 293 q 303 158 240 196 q 451 121 365 121 q 585 157 531 121 q 640 250 640 193 q 586 355 640 314 q 415 418 532 396 q 118 714 118 476 q 163 854 118 793 q 283 951 207 915 q 453 986 358 986 q 782 815 682 986 l 676 711 q 577 815 635 779 q 449 851 519 851 q 318 815 368 851 q 268 718 268 778 q 313 622 268 658 q 468 563 358 585 q 706 460 621 531 q 790 289 790 389 q 695 68 790 150 q 436 -14 600 -14 m 401 1051 l 235 1194 l 288 1240 l 461 1163 l 635 1240 l 688 1194 l 521 1051 l 401 1051 z "},"Ṧ":{"ha":867,"x_min":69,"x_max":790,"o":"m 436 -14 q 69 175 200 -14 l 172 293 q 303 158 240 196 q 451 121 365 121 q 585 157 531 121 q 640 250 640 193 q 586 355 640 314 q 415 418 532 396 q 118 714 118 476 q 163 854 118 793 q 283 951 207 915 q 453 986 358 986 q 782 815 682 986 l 676 711 q 577 815 635 779 q 449 851 519 851 q 318 815 368 851 q 268 718 268 778 q 313 622 268 658 q 468 563 358 585 q 706 460 621 531 q 790 289 790 389 q 695 68 790 150 q 436 -14 600 -14 m 401 1051 l 235 1194 l 288 1240 l 461 1163 l 635 1240 l 688 1194 l 521 1051 l 401 1051 m 461 1263 q 389 1288 413 1263 q 365 1353 365 1313 q 389 1415 365 1388 q 461 1443 413 1443 q 533 1418 510 1443 q 557 1353 557 1393 q 533 1290 557 1318 q 461 1263 510 1263 z "},"Ş":{"ha":867,"x_min":69,"x_max":790,"o":"m 436 -14 q 69 175 200 -14 l 172 293 q 303 158 240 196 q 451 121 365 121 q 585 157 531 121 q 640 250 640 193 q 586 355 640 314 q 415 418 532 396 q 118 714 118 476 q 163 854 118 793 q 283 951 207 915 q 453 986 358 986 q 782 815 682 986 l 676 711 q 577 815 635 779 q 449 851 519 851 q 318 815 368 851 q 268 718 268 778 q 313 622 268 658 q 468 563 358 585 q 706 460 621 531 q 790 289 790 389 q 695 68 790 150 q 436 -14 600 -14 m 333 -339 l 324 -265 q 393 -254 357 -265 q 454 -226 429 -243 q 479 -192 479 -208 q 456 -161 479 -172 q 403 -144 432 -150 q 354 -139 374 -139 l 336 -125 l 436 33 l 518 33 l 460 -64 q 597 -193 597 -93 q 556 -274 597 -240 q 455 -324 515 -307 q 333 -339 394 -340 z "},"Ŝ":{"ha":867,"x_min":69,"x_max":790,"o":"m 436 -14 q 69 175 200 -14 l 172 293 q 303 158 240 196 q 451 121 365 121 q 585 157 531 121 q 640 250 640 193 q 586 355 640 314 q 415 418 532 396 q 118 714 118 476 q 163 854 118 793 q 283 951 207 915 q 453 986 358 986 q 782 815 682 986 l 676 711 q 577 815 635 779 q 449 851 519 851 q 318 815 368 851 q 268 718 268 778 q 313 622 268 658 q 468 563 358 585 q 706 460 621 531 q 790 289 790 389 q 695 68 790 150 q 436 -14 600 -14 m 289 1049 l 238 1097 l 410 1238 l 511 1238 l 683 1097 l 632 1049 l 461 1129 l 289 1049 z "},"Ș":{"ha":867,"x_min":69,"x_max":790,"o":"m 436 -14 q 69 175 200 -14 l 172 293 q 303 158 240 196 q 451 121 365 121 q 585 157 531 121 q 640 250 640 193 q 586 355 640 314 q 415 418 532 396 q 118 714 118 476 q 163 854 118 793 q 283 951 207 915 q 453 986 358 986 q 782 815 682 986 l 676 711 q 577 815 635 779 q 449 851 519 851 q 318 815 368 851 q 268 718 268 778 q 313 622 268 658 q 468 563 358 585 q 706 460 621 531 q 790 289 790 389 q 695 68 790 150 q 436 -14 600 -14 m 392 -337 l 358 -279 q 410 -250 388 -272 q 433 -207 433 -228 q 428 -193 433 -199 q 407 -183 424 -187 q 374 -164 382 -176 q 365 -131 365 -151 q 390 -81 365 -100 q 456 -62 415 -62 q 533 -92 501 -62 q 564 -169 564 -121 q 517 -267 564 -222 q 392 -337 469 -311 z "},"Ṡ":{"ha":867,"x_min":69,"x_max":790,"o":"m 436 -14 q 69 175 200 -14 l 172 293 q 303 158 240 196 q 451 121 365 121 q 585 157 531 121 q 640 250 640 193 q 586 355 640 314 q 415 418 532 396 q 118 714 118 476 q 163 854 118 793 q 283 951 207 915 q 453 986 358 986 q 782 815 682 986 l 676 711 q 577 815 635 779 q 449 851 519 851 q 318 815 368 851 q 268 718 268 778 q 313 622 268 658 q 468 563 358 585 q 706 460 621 531 q 790 289 790 389 q 695 68 790 150 q 436 -14 600 -14 m 461 1054 q 389 1079 413 1054 q 365 1144 365 1104 q 389 1207 365 1179 q 461 1235 413 1235 q 533 1210 510 1235 q 557 1144 557 1185 q 533 1082 557 1110 q 461 1054 510 1054 z "},"Ṣ":{"ha":867,"x_min":69,"x_max":790,"o":"m 436 -14 q 69 175 200 -14 l 172 293 q 303 158 240 196 q 451 121 365 121 q 585 157 531 121 q 640 250 640 193 q 586 355 640 314 q 415 418 532 396 q 118 714 118 476 q 163 854 118 793 q 283 951 207 915 q 453 986 358 986 q 782 815 682 986 l 676 711 q 577 815 635 779 q 449 851 519 851 q 318 815 368 851 q 268 718 268 778 q 313 622 268 658 q 468 563 358 585 q 706 460 621 531 q 790 289 790 389 q 695 68 790 150 q 436 -14 600 -14 m 461 -286 q 390 -262 415 -286 q 365 -196 365 -239 q 391 -131 365 -156 q 461 -106 417 -106 q 532 -129 507 -106 q 557 -196 557 -153 q 531 -261 557 -236 q 461 -286 506 -286 z "},"Ṩ":{"ha":867,"x_min":69,"x_max":790,"o":"m 436 -14 q 69 175 200 -14 l 172 293 q 303 158 240 196 q 451 121 365 121 q 585 157 531 121 q 640 250 640 193 q 586 355 640 314 q 415 418 532 396 q 118 714 118 476 q 163 854 118 793 q 283 951 207 915 q 453 986 358 986 q 782 815 682 986 l 676 711 q 577 815 635 779 q 449 851 519 851 q 318 815 368 851 q 268 718 268 778 q 313 622 268 658 q 468 563 358 585 q 706 460 621 531 q 790 289 790 389 q 695 68 790 150 q 436 -14 600 -14 m 461 -286 q 390 -262 415 -286 q 365 -196 365 -239 q 391 -131 365 -156 q 461 -106 417 -106 q 532 -129 507 -106 q 557 -196 557 -153 q 531 -261 557 -236 q 461 -286 506 -286 m 461 1054 q 389 1079 413 1054 q 365 1144 365 1104 q 389 1207 365 1179 q 461 1235 413 1235 q 533 1210 510 1235 q 557 1144 557 1185 q 533 1082 557 1110 q 461 1054 510 1054 z "},"ẞ":{"ha":1058,"x_min":136,"x_max":982,"o":"m 681 -14 q 526 18 600 -14 q 410 104 451 50 l 503 215 q 586 147 538 174 q 679 121 635 121 q 794 152 751 121 q 836 238 836 183 q 819 294 836 271 q 761 342 801 317 q 651 404 721 367 q 510 510 551 458 q 469 639 469 561 q 519 785 469 725 q 654 874 569 846 q 579 878 614 878 q 426 831 492 879 q 326 692 361 783 q 289 476 290 601 l 286 1 l 136 1 l 138 486 q 192 760 139 643 q 340 943 244 878 q 565 1008 436 1008 q 883 947 742 1008 l 890 846 q 689 780 760 825 q 618 675 618 735 q 653 599 618 633 q 757 533 688 565 q 881 466 831 500 q 956 383 931 432 q 982 256 982 335 q 940 121 982 182 q 831 23 899 60 q 681 -14 763 -14 z "},"Ə":{"ha":1083,"x_min":67,"x_max":1017,"o":"m 542 -14 q 363 19 447 -14 q 215 114 279 53 q 110 257 150 175 q 67 435 71 339 l 67 546 l 871 546 q 765 769 854 688 q 538 851 675 851 q 382 825 450 851 q 256 744 314 799 l 161 842 q 327 951 238 917 q 538 986 417 986 q 723 947 636 986 q 876 840 810 908 q 979 681 942 771 q 1017 486 1017 590 q 980 292 1017 382 q 877 133 943 201 q 726 25 811 64 q 542 -14 640 -14 m 542 121 q 694 157 626 121 q 808 258 763 193 q 868 411 853 324 l 211 411 q 273 263 225 328 q 391 159 321 197 q 542 121 461 121 z "},"T":{"ha":800,"x_min":49,"x_max":751,"o":"m 321 0 l 321 828 l 49 828 l 49 972 l 751 972 l 751 828 l 471 828 l 471 0 l 321 0 z "},"Ŧ":{"ha":800,"x_min":49,"x_max":751,"o":"m 321 0 l 321 426 l 214 426 l 214 551 l 321 551 l 321 828 l 49 828 l 49 972 l 751 972 l 751 828 l 471 828 l 471 551 l 586 551 l 586 426 l 471 426 l 471 0 l 321 0 z "},"Ť":{"ha":800,"x_min":49,"x_max":751,"o":"m 321 0 l 321 828 l 49 828 l 49 972 l 751 972 l 751 828 l 471 828 l 471 0 l 321 0 m 340 1051 l 174 1194 l 226 1240 l 400 1163 l 574 1240 l 626 1194 l 460 1051 l 340 1051 z "},"Ţ":{"ha":800,"x_min":49,"x_max":751,"o":"m 321 0 l 321 828 l 49 828 l 49 972 l 751 972 l 751 828 l 471 828 l 471 0 l 321 0 m 272 -339 l 263 -265 q 332 -254 296 -265 q 393 -226 368 -243 q 418 -192 418 -208 q 394 -161 418 -172 q 342 -144 371 -150 q 293 -139 313 -139 l 275 -125 l 375 33 l 457 33 l 399 -64 q 536 -193 536 -93 q 495 -274 536 -240 q 394 -324 454 -307 q 272 -339 333 -340 z "},"Ț":{"ha":800,"x_min":49,"x_max":751,"o":"m 321 0 l 321 828 l 49 828 l 49 972 l 751 972 l 751 828 l 471 828 l 471 0 l 321 0 m 331 -337 l 297 -279 q 349 -250 326 -272 q 372 -207 372 -228 q 367 -193 372 -199 q 346 -183 363 -187 q 313 -164 321 -176 q 304 -131 304 -151 q 329 -81 304 -100 q 394 -62 354 -62 q 472 -92 440 -62 q 503 -169 503 -121 q 456 -267 503 -222 q 331 -337 408 -311 z "},"Ṭ":{"ha":800,"x_min":49,"x_max":751,"o":"m 321 0 l 321 828 l 49 828 l 49 972 l 751 972 l 751 828 l 471 828 l 471 0 l 321 0 m 400 -286 q 329 -262 354 -286 q 304 -196 304 -239 q 330 -131 304 -156 q 400 -106 356 -106 q 471 -129 446 -106 q 496 -196 496 -153 q 470 -261 496 -236 q 400 -286 444 -286 z "},"Ṯ":{"ha":800,"x_min":49,"x_max":751,"o":"m 321 0 l 321 828 l 49 828 l 49 972 l 751 972 l 751 828 l 471 828 l 471 0 l 321 0 m 204 -247 l 204 -144 l 594 -144 l 594 -247 l 204 -247 z "},"U":{"ha":1028,"x_min":122,"x_max":906,"o":"m 514 -8 q 313 41 401 -8 q 173 177 224 90 q 122 374 122 264 l 122 974 l 272 974 l 272 386 q 306 259 272 315 q 394 169 339 203 q 514 136 449 136 q 640 169 583 136 q 729 259 696 203 q 763 386 763 315 l 763 974 l 906 974 l 906 374 q 855 177 906 264 q 715 41 804 90 q 514 -8 626 -8 z "},"Ú":{"ha":1028,"x_min":122,"x_max":906,"o":"m 514 -8 q 313 41 401 -8 q 173 177 224 90 q 122 374 122 264 l 122 974 l 272 974 l 272 386 q 306 259 272 315 q 394 169 339 203 q 514 136 449 136 q 640 169 583 136 q 729 259 696 203 q 763 386 763 315 l 763 974 l 906 974 l 906 374 q 855 177 906 264 q 715 41 804 90 q 514 -8 626 -8 m 419 1049 l 381 1121 l 635 1278 l 700 1153 l 419 1049 z "},"Ŭ":{"ha":1028,"x_min":122,"x_max":906,"o":"m 514 -8 q 313 41 401 -8 q 173 177 224 90 q 122 374 122 264 l 122 974 l 272 974 l 272 386 q 306 259 272 315 q 394 169 339 203 q 514 136 449 136 q 640 169 583 136 q 729 259 696 203 q 763 386 763 315 l 763 974 l 906 974 l 906 374 q 855 177 906 264 q 715 41 804 90 q 514 -8 626 -8 m 514 1043 q 410 1069 457 1043 q 333 1137 364 1094 q 289 1229 301 1179 l 392 1246 q 439 1183 407 1211 q 514 1156 471 1156 q 589 1183 557 1156 q 636 1246 621 1211 l 739 1229 q 696 1137 728 1179 q 618 1069 664 1094 q 514 1043 572 1043 z "},"Ǔ":{"ha":1028,"x_min":122,"x_max":906,"o":"m 514 -8 q 313 41 401 -8 q 173 177 224 90 q 122 374 122 264 l 122 974 l 272 974 l 272 386 q 306 259 272 315 q 394 169 339 203 q 514 136 449 136 q 640 169 583 136 q 729 259 696 203 q 763 386 763 315 l 763 974 l 906 974 l 906 374 q 855 177 906 264 q 715 41 804 90 q 514 -8 626 -8 m 454 1051 l 288 1194 l 340 1240 l 514 1163 l 688 1240 l 740 1194 l 574 1051 l 454 1051 z "},"Û":{"ha":1028,"x_min":122,"x_max":906,"o":"m 514 -8 q 313 41 401 -8 q 173 177 224 90 q 122 374 122 264 l 122 974 l 272 974 l 272 386 q 306 259 272 315 q 394 169 339 203 q 514 136 449 136 q 640 169 583 136 q 729 259 696 203 q 763 386 763 315 l 763 974 l 906 974 l 906 374 q 855 177 906 264 q 715 41 804 90 q 514 -8 626 -8 m 342 1049 l 290 1097 l 463 1238 l 564 1238 l 736 1097 l 685 1049 l 514 1129 l 342 1049 z "},"Ȕ":{"ha":1028,"x_min":122,"x_max":906,"o":"m 514 -8 q 313 41 401 -8 q 173 177 224 90 q 122 374 122 264 l 122 974 l 272 974 l 272 386 q 306 259 272 315 q 394 169 339 203 q 514 136 449 136 q 640 169 583 136 q 729 259 696 203 q 763 386 763 315 l 763 974 l 906 974 l 906 374 q 855 177 906 264 q 715 41 804 90 q 514 -8 626 -8 m 668 1042 l 439 1193 l 539 1299 l 721 1108 l 668 1042 m 392 1042 l 163 1193 l 263 1299 l 444 1108 l 392 1042 z "},"Ü":{"ha":1028,"x_min":122,"x_max":906,"o":"m 514 -8 q 313 41 401 -8 q 173 177 224 90 q 122 374 122 264 l 122 974 l 272 974 l 272 386 q 306 259 272 315 q 394 169 339 203 q 514 136 449 136 q 640 169 583 136 q 729 259 696 203 q 763 386 763 315 l 763 974 l 906 974 l 906 374 q 855 177 906 264 q 715 41 804 90 q 514 -8 626 -8 m 657 1054 q 585 1079 608 1054 q 561 1144 561 1104 q 585 1207 561 1179 q 657 1235 608 1235 q 729 1210 706 1235 q 753 1144 753 1185 q 729 1082 753 1110 q 657 1054 706 1054 m 371 1054 q 299 1079 322 1054 q 275 1144 275 1104 q 299 1207 275 1179 q 371 1235 322 1235 q 443 1210 419 1235 q 467 1144 467 1185 q 443 1082 467 1110 q 371 1054 419 1054 z "},"Ụ":{"ha":1028,"x_min":122,"x_max":906,"o":"m 514 -8 q 313 41 401 -8 q 173 177 224 90 q 122 374 122 264 l 122 974 l 272 974 l 272 386 q 306 259 272 315 q 394 169 339 203 q 514 136 449 136 q 640 169 583 136 q 729 259 696 203 q 763 386 763 315 l 763 974 l 906 974 l 906 374 q 855 177 906 264 q 715 41 804 90 q 514 -8 626 -8 m 514 -286 q 443 -262 468 -286 q 418 -196 418 -239 q 444 -131 418 -156 q 514 -106 469 -106 q 585 -129 560 -106 q 610 -196 610 -153 q 584 -261 610 -236 q 514 -286 558 -286 z "},"Ù":{"ha":1028,"x_min":122,"x_max":906,"o":"m 514 -8 q 313 41 401 -8 q 173 177 224 90 q 122 374 122 264 l 122 974 l 272 974 l 272 386 q 306 259 272 315 q 394 169 339 203 q 514 136 449 136 q 640 169 583 136 q 729 259 696 203 q 763 386 763 315 l 763 974 l 906 974 l 906 374 q 855 177 906 264 q 715 41 804 90 q 514 -8 626 -8 m 619 1049 l 339 1153 l 407 1278 l 661 1121 l 619 1049 z "},"Ủ":{"ha":1028,"x_min":122,"x_max":906,"o":"m 514 -8 q 313 41 401 -8 q 173 177 224 90 q 122 374 122 264 l 122 974 l 272 974 l 272 386 q 306 259 272 315 q 394 169 339 203 q 514 136 449 136 q 640 169 583 136 q 729 259 696 203 q 763 386 763 315 l 763 974 l 906 974 l 906 374 q 855 177 906 264 q 715 41 804 90 q 514 -8 626 -8 m 482 1053 q 461 1106 461 1081 q 469 1133 461 1118 q 499 1164 476 1149 q 540 1206 540 1192 q 528 1224 540 1218 q 499 1229 517 1229 q 400 1204 450 1229 l 378 1292 q 440 1317 407 1308 q 501 1325 474 1325 q 612 1294 575 1325 q 649 1218 649 1263 q 633 1163 649 1183 q 597 1133 617 1143 q 560 1112 572 1121 q 549 1089 549 1103 q 553 1071 549 1079 l 482 1053 z "},"Ư":{"ha":1028,"x_min":122,"x_max":1063,"o":"m 514 -8 q 313 41 401 -8 q 173 177 224 90 q 122 374 122 264 l 122 974 l 272 974 l 272 386 q 306 259 272 315 q 394 169 339 203 q 514 136 449 136 q 640 169 583 136 q 729 259 696 203 q 763 386 763 315 l 763 974 l 815 974 q 908 1016 881 974 q 935 1131 935 1058 l 1063 1131 q 1022 965 1063 1032 q 906 872 982 899 l 906 374 q 855 177 906 264 q 715 41 804 90 q 514 -8 626 -8 z "},"Ứ":{"ha":1028,"x_min":122,"x_max":1063,"o":"m 514 -8 q 313 41 401 -8 q 173 177 224 90 q 122 374 122 264 l 122 974 l 272 974 l 272 386 q 306 259 272 315 q 394 169 339 203 q 514 136 449 136 q 640 169 583 136 q 729 259 696 203 q 763 386 763 315 l 763 974 l 815 974 q 908 1016 881 974 q 935 1131 935 1058 l 1063 1131 q 1022 965 1063 1032 q 906 872 982 899 l 906 374 q 855 177 906 264 q 715 41 804 90 q 514 -8 626 -8 m 419 1049 l 381 1121 l 635 1278 l 700 1153 l 419 1049 z "},"Ự":{"ha":1028,"x_min":122,"x_max":1063,"o":"m 514 -8 q 313 41 401 -8 q 173 177 224 90 q 122 374 122 264 l 122 974 l 272 974 l 272 386 q 306 259 272 315 q 394 169 339 203 q 514 136 449 136 q 640 169 583 136 q 729 259 696 203 q 763 386 763 315 l 763 974 l 815 974 q 908 1016 881 974 q 935 1131 935 1058 l 1063 1131 q 1022 965 1063 1032 q 906 872 982 899 l 906 374 q 855 177 906 264 q 715 41 804 90 q 514 -8 626 -8 m 514 -286 q 443 -262 468 -286 q 418 -196 418 -239 q 444 -131 418 -156 q 514 -106 469 -106 q 585 -129 560 -106 q 610 -196 610 -153 q 584 -261 610 -236 q 514 -286 558 -286 z "},"Ừ":{"ha":1028,"x_min":122,"x_max":1063,"o":"m 514 -8 q 313 41 401 -8 q 173 177 224 90 q 122 374 122 264 l 122 974 l 272 974 l 272 386 q 306 259 272 315 q 394 169 339 203 q 514 136 449 136 q 640 169 583 136 q 729 259 696 203 q 763 386 763 315 l 763 974 l 815 974 q 908 1016 881 974 q 935 1131 935 1058 l 1063 1131 q 1022 965 1063 1032 q 906 872 982 899 l 906 374 q 855 177 906 264 q 715 41 804 90 q 514 -8 626 -8 m 619 1049 l 339 1153 l 407 1278 l 661 1121 l 619 1049 z "},"Ử":{"ha":1028,"x_min":122,"x_max":1063,"o":"m 514 -8 q 313 41 401 -8 q 173 177 224 90 q 122 374 122 264 l 122 974 l 272 974 l 272 386 q 306 259 272 315 q 394 169 339 203 q 514 136 449 136 q 640 169 583 136 q 729 259 696 203 q 763 386 763 315 l 763 974 l 815 974 q 908 1016 881 974 q 935 1131 935 1058 l 1063 1131 q 1022 965 1063 1032 q 906 872 982 899 l 906 374 q 855 177 906 264 q 715 41 804 90 q 514 -8 626 -8 m 482 1053 q 461 1106 461 1081 q 469 1133 461 1118 q 499 1164 476 1149 q 540 1206 540 1192 q 528 1224 540 1218 q 499 1229 517 1229 q 400 1204 450 1229 l 378 1292 q 440 1317 407 1308 q 501 1325 474 1325 q 612 1294 575 1325 q 649 1218 649 1263 q 633 1163 649 1183 q 597 1133 617 1143 q 560 1112 572 1121 q 549 1089 549 1103 q 553 1071 549 1079 l 482 1053 z "},"Ữ":{"ha":1028,"x_min":122,"x_max":1063,"o":"m 514 -8 q 313 41 401 -8 q 173 177 224 90 q 122 374 122 264 l 122 974 l 272 974 l 272 386 q 306 259 272 315 q 394 169 339 203 q 514 136 449 136 q 640 169 583 136 q 729 259 696 203 q 763 386 763 315 l 763 974 l 815 974 q 908 1016 881 974 q 935 1131 935 1058 l 1063 1131 q 1022 965 1063 1032 q 906 872 982 899 l 906 374 q 855 177 906 264 q 715 41 804 90 q 514 -8 626 -8 m 617 1067 q 552 1077 585 1067 q 490 1099 519 1088 q 450 1114 467 1108 q 419 1119 433 1119 q 378 1067 378 1119 l 271 1067 q 319 1183 271 1142 q 429 1224 368 1224 q 486 1214 458 1224 q 540 1193 514 1204 q 578 1179 560 1185 q 610 1174 597 1174 q 650 1224 653 1174 l 756 1224 q 719 1115 756 1163 q 617 1067 682 1067 z "},"Ű":{"ha":1028,"x_min":122,"x_max":906,"o":"m 514 -8 q 313 41 401 -8 q 173 177 224 90 q 122 374 122 264 l 122 974 l 272 974 l 272 386 q 306 259 272 315 q 394 169 339 203 q 514 136 449 136 q 640 169 583 136 q 729 259 696 203 q 763 386 763 315 l 763 974 l 906 974 l 906 374 q 855 177 906 264 q 715 41 804 90 q 514 -8 626 -8 m 363 1042 l 310 1108 l 492 1299 l 592 1193 l 363 1042 m 639 1042 l 586 1108 l 768 1299 l 868 1193 l 639 1042 z "},"Ȗ":{"ha":1028,"x_min":122,"x_max":906,"o":"m 514 -8 q 313 41 401 -8 q 173 177 224 90 q 122 374 122 264 l 122 974 l 272 974 l 272 386 q 306 259 272 315 q 394 169 339 203 q 514 136 449 136 q 640 169 583 136 q 729 259 696 203 q 763 386 763 315 l 763 974 l 906 974 l 906 374 q 855 177 906 264 q 715 41 804 90 q 514 -8 626 -8 m 392 1043 l 289 1060 q 333 1152 301 1110 q 410 1220 364 1194 q 514 1246 457 1246 q 618 1220 572 1246 q 696 1152 664 1194 q 739 1060 728 1110 l 636 1043 q 589 1106 621 1078 q 514 1133 557 1133 q 439 1106 471 1133 q 392 1043 407 1078 z "},"Ū":{"ha":1028,"x_min":122,"x_max":906,"o":"m 514 -8 q 313 41 401 -8 q 173 177 224 90 q 122 374 122 264 l 122 974 l 272 974 l 272 386 q 306 259 272 315 q 394 169 339 203 q 514 136 449 136 q 640 169 583 136 q 729 259 696 203 q 763 386 763 315 l 763 974 l 906 974 l 906 374 q 855 177 906 264 q 715 41 804 90 q 514 -8 626 -8 m 283 1093 l 283 1197 l 743 1197 l 743 1093 l 283 1093 z "},"Ṻ":{"ha":1028,"x_min":122,"x_max":906,"o":"m 514 -8 q 313 41 401 -8 q 173 177 224 90 q 122 374 122 264 l 122 974 l 272 974 l 272 386 q 306 259 272 315 q 394 169 339 203 q 514 136 449 136 q 640 169 583 136 q 729 259 696 203 q 763 386 763 315 l 763 974 l 906 974 l 906 374 q 855 177 906 264 q 715 41 804 90 q 514 -8 626 -8 m 283 1093 l 283 1197 l 743 1197 l 743 1093 l 283 1093 m 657 1263 q 585 1288 608 1263 q 561 1353 561 1313 q 585 1415 561 1388 q 657 1443 608 1443 q 729 1418 706 1443 q 753 1353 753 1393 q 729 1290 753 1318 q 657 1263 706 1263 m 371 1263 q 299 1288 322 1263 q 275 1353 275 1313 q 299 1415 275 1388 q 371 1443 322 1443 q 443 1418 419 1443 q 467 1353 467 1393 q 443 1290 467 1318 q 371 1263 419 1263 z "},"Ų":{"ha":1028,"x_min":122,"x_max":906,"o":"m 603 -278 q 497 -241 543 -278 q 451 -135 451 -204 q 466 -67 451 -99 q 504 -8 481 -36 q 308 44 394 -6 q 172 180 221 94 q 122 374 122 265 l 122 974 l 272 974 l 272 386 q 306 259 272 315 q 394 169 339 203 q 514 136 449 136 q 640 169 583 136 q 729 259 696 203 q 763 386 763 315 l 763 974 l 906 974 l 906 374 q 860 188 906 271 q 739 56 815 106 l 739 56 l 739 56 q 708 38 724 46 q 578 -117 578 -43 q 625 -171 578 -171 q 676 -136 653 -171 l 754 -192 q 697 -252 740 -226 q 603 -278 653 -278 z "},"Ů":{"ha":1028,"x_min":122,"x_max":906,"o":"m 514 -8 q 313 41 401 -8 q 173 177 224 90 q 122 374 122 264 l 122 974 l 272 974 l 272 386 q 306 259 272 315 q 394 169 339 203 q 514 136 449 136 q 640 169 583 136 q 729 259 696 203 q 763 386 763 315 l 763 974 l 906 974 l 906 374 q 855 177 906 264 q 715 41 804 90 q 514 -8 626 -8 m 513 943 q 439 963 474 943 q 383 1017 404 983 q 361 1089 361 1050 q 383 1164 361 1131 q 439 1217 404 1197 q 513 1236 474 1236 q 588 1217 553 1236 q 644 1164 622 1197 q 665 1089 665 1131 q 644 1017 665 1050 q 588 963 622 983 q 513 943 553 943 m 513 1025 q 562 1044 542 1025 q 582 1089 582 1063 q 561 1138 582 1121 q 513 1154 540 1154 q 465 1136 485 1154 q 444 1089 444 1118 q 465 1044 444 1063 q 513 1025 485 1025 z "},"Ũ":{"ha":1028,"x_min":122,"x_max":906,"o":"m 514 -8 q 313 41 401 -8 q 173 177 224 90 q 122 374 122 264 l 122 974 l 272 974 l 272 386 q 306 259 272 315 q 394 169 339 203 q 514 136 449 136 q 640 169 583 136 q 729 259 696 203 q 763 386 763 315 l 763 974 l 906 974 l 906 374 q 855 177 906 264 q 715 41 804 90 q 514 -8 626 -8 m 617 1067 q 552 1077 585 1067 q 490 1099 519 1088 q 450 1114 467 1108 q 419 1119 433 1119 q 378 1067 378 1119 l 271 1067 q 319 1183 271 1142 q 429 1224 368 1224 q 486 1214 458 1224 q 540 1193 514 1204 q 578 1179 560 1185 q 610 1174 597 1174 q 650 1224 653 1174 l 756 1224 q 719 1115 756 1163 q 617 1067 682 1067 z "},"Ṹ":{"ha":1028,"x_min":122,"x_max":906,"o":"m 514 -8 q 313 41 401 -8 q 173 177 224 90 q 122 374 122 264 l 122 974 l 272 974 l 272 386 q 306 259 272 315 q 394 169 339 203 q 514 136 449 136 q 640 169 583 136 q 729 259 696 203 q 763 386 763 315 l 763 974 l 906 974 l 906 374 q 855 177 906 264 q 715 41 804 90 q 514 -8 626 -8 m 617 1067 q 552 1077 585 1067 q 490 1099 519 1088 q 450 1114 467 1108 q 419 1119 433 1119 q 378 1067 378 1119 l 271 1067 q 319 1183 271 1142 q 429 1224 368 1224 q 486 1214 458 1224 q 540 1193 514 1204 q 578 1179 560 1185 q 610 1174 597 1174 q 650 1224 653 1174 l 756 1224 q 719 1115 756 1163 q 617 1067 682 1067 m 419 1257 l 381 1329 l 635 1486 l 700 1361 l 419 1257 z "},"V":{"ha":993,"x_min":33,"x_max":960,"o":"m 422 0 l 33 972 l 204 972 l 436 382 q 476 276 460 321 q 504 196 493 232 q 532 278 517 233 q 569 382 547 324 l 785 972 l 960 972 l 568 0 l 422 0 z "},"W":{"ha":1383,"x_min":33,"x_max":1350,"o":"m 343 0 l 33 972 l 193 972 l 381 364 q 397 304 389 339 q 411 236 404 269 q 436 322 428 296 q 451 365 444 349 l 626 804 l 761 804 l 931 365 q 953 303 943 333 q 971 243 963 274 q 976 273 974 260 q 985 308 979 286 q 1004 368 992 329 l 1189 972 l 1350 972 l 1040 0 l 936 0 l 686 590 l 444 0 l 343 0 z "},"Ẃ":{"ha":1383,"x_min":33,"x_max":1350,"o":"m 343 0 l 33 972 l 193 972 l 381 364 q 397 304 389 339 q 411 236 404 269 q 436 322 428 296 q 451 365 444 349 l 626 804 l 761 804 l 931 365 q 953 303 943 333 q 971 243 963 274 q 976 273 974 260 q 985 308 979 286 q 1004 368 992 329 l 1189 972 l 1350 972 l 1040 0 l 936 0 l 686 590 l 444 0 l 343 0 m 597 1049 l 558 1121 l 813 1278 l 878 1153 l 597 1049 z "},"Ŵ":{"ha":1383,"x_min":33,"x_max":1350,"o":"m 343 0 l 33 972 l 193 972 l 381 364 q 397 304 389 339 q 411 236 404 269 q 436 322 428 296 q 451 365 444 349 l 626 804 l 761 804 l 931 365 q 953 303 943 333 q 971 243 963 274 q 976 273 974 260 q 985 308 979 286 q 1004 368 992 329 l 1189 972 l 1350 972 l 1040 0 l 936 0 l 686 590 l 444 0 l 343 0 m 519 1049 l 468 1097 l 640 1238 l 742 1238 l 914 1097 l 863 1049 l 692 1129 l 519 1049 z "},"Ẅ":{"ha":1383,"x_min":33,"x_max":1350,"o":"m 343 0 l 33 972 l 193 972 l 381 364 q 397 304 389 339 q 411 236 404 269 q 436 322 428 296 q 451 365 444 349 l 626 804 l 761 804 l 931 365 q 953 303 943 333 q 971 243 963 274 q 976 273 974 260 q 985 308 979 286 q 1004 368 992 329 l 1189 972 l 1350 972 l 1040 0 l 936 0 l 686 590 l 444 0 l 343 0 m 835 1054 q 763 1079 786 1054 q 739 1144 739 1104 q 763 1207 739 1179 q 835 1235 786 1235 q 907 1210 883 1235 q 931 1144 931 1185 q 907 1082 931 1110 q 835 1054 883 1054 m 549 1054 q 476 1079 500 1054 q 453 1144 453 1104 q 476 1207 453 1179 q 549 1235 500 1235 q 621 1210 597 1235 q 644 1144 644 1185 q 621 1082 644 1110 q 549 1054 597 1054 z "},"Ẁ":{"ha":1383,"x_min":33,"x_max":1350,"o":"m 343 0 l 33 972 l 193 972 l 381 364 q 397 304 389 339 q 411 236 404 269 q 436 322 428 296 q 451 365 444 349 l 626 804 l 761 804 l 931 365 q 953 303 943 333 q 971 243 963 274 q 976 273 974 260 q 985 308 979 286 q 1004 368 992 329 l 1189 972 l 1350 972 l 1040 0 l 936 0 l 686 590 l 444 0 l 343 0 m 797 1049 l 517 1153 l 585 1278 l 839 1121 l 797 1049 z "},"X":{"ha":951,"x_min":33,"x_max":918,"o":"m 33 0 l 382 497 l 40 972 l 231 972 l 485 601 l 728 972 l 904 972 l 568 482 l 918 0 l 728 0 l 468 376 l 210 0 l 33 0 z "},"Y":{"ha":917,"x_min":14,"x_max":903,"o":"m 397 0 l 397 431 l 14 972 l 194 972 l 475 569 l 731 972 l 903 972 l 547 433 l 547 0 l 397 0 z "},"Ý":{"ha":917,"x_min":14,"x_max":903,"o":"m 397 0 l 397 431 l 14 972 l 194 972 l 475 569 l 731 972 l 903 972 l 547 433 l 547 0 l 397 0 m 364 1049 l 325 1121 l 579 1278 l 644 1153 l 364 1049 z "},"Ŷ":{"ha":917,"x_min":14,"x_max":903,"o":"m 397 0 l 397 431 l 14 972 l 194 972 l 475 569 l 731 972 l 903 972 l 547 433 l 547 0 l 397 0 m 286 1049 l 235 1097 l 407 1238 l 508 1238 l 681 1097 l 629 1049 l 458 1129 l 286 1049 z "},"Ÿ":{"ha":917,"x_min":14,"x_max":903,"o":"m 397 0 l 397 431 l 14 972 l 194 972 l 475 569 l 731 972 l 903 972 l 547 433 l 547 0 l 397 0 m 601 1054 q 529 1079 553 1054 q 506 1144 506 1104 q 529 1207 506 1179 q 601 1235 553 1235 q 674 1210 650 1235 q 697 1144 697 1185 q 674 1082 697 1110 q 601 1054 650 1054 m 315 1054 q 243 1079 267 1054 q 219 1144 219 1104 q 243 1207 219 1179 q 315 1235 267 1235 q 388 1210 364 1235 q 411 1144 411 1185 q 388 1082 411 1110 q 315 1054 364 1054 z "},"Ẏ":{"ha":917,"x_min":14,"x_max":903,"o":"m 397 0 l 397 431 l 14 972 l 194 972 l 475 569 l 731 972 l 903 972 l 547 433 l 547 0 l 397 0 m 458 1054 q 386 1079 410 1054 q 363 1144 363 1104 q 386 1207 363 1179 q 458 1235 410 1235 q 531 1210 507 1235 q 554 1144 554 1185 q 531 1082 554 1110 q 458 1054 507 1054 z "},"Ỵ":{"ha":917,"x_min":14,"x_max":903,"o":"m 397 0 l 397 431 l 14 972 l 194 972 l 475 569 l 731 972 l 903 972 l 547 433 l 547 0 l 397 0 m 458 -286 q 388 -262 413 -286 q 363 -196 363 -239 q 388 -131 363 -156 q 458 -106 414 -106 q 529 -129 504 -106 q 554 -196 554 -153 q 528 -261 554 -236 q 458 -286 503 -286 z "},"Ỳ":{"ha":917,"x_min":14,"x_max":903,"o":"m 397 0 l 397 431 l 14 972 l 194 972 l 475 569 l 731 972 l 903 972 l 547 433 l 547 0 l 397 0 m 564 1049 l 283 1153 l 351 1278 l 606 1121 l 564 1049 z "},"Ỷ":{"ha":917,"x_min":14,"x_max":903,"o":"m 397 0 l 397 431 l 14 972 l 194 972 l 475 569 l 731 972 l 903 972 l 547 433 l 547 0 l 397 0 m 426 1053 q 406 1106 406 1081 q 413 1133 406 1118 q 443 1164 421 1149 q 485 1206 485 1192 q 473 1224 485 1218 q 443 1229 461 1229 q 344 1204 394 1229 l 322 1292 q 385 1317 351 1308 q 446 1325 418 1325 q 556 1294 519 1325 q 593 1218 593 1263 q 577 1163 593 1183 q 542 1133 561 1143 q 505 1112 517 1121 q 493 1089 493 1103 q 497 1071 493 1079 l 426 1053 z "},"Ȳ":{"ha":917,"x_min":14,"x_max":903,"o":"m 397 0 l 397 431 l 14 972 l 194 972 l 475 569 l 731 972 l 903 972 l 547 433 l 547 0 l 397 0 m 228 1093 l 228 1197 l 688 1197 l 688 1093 l 228 1093 z "},"Ỹ":{"ha":917,"x_min":14,"x_max":903,"o":"m 397 0 l 397 431 l 14 972 l 194 972 l 475 569 l 731 972 l 903 972 l 547 433 l 547 0 l 397 0 m 561 1067 q 497 1077 529 1067 q 435 1099 464 1088 q 394 1114 411 1108 q 364 1119 378 1119 q 322 1067 322 1119 l 215 1067 q 264 1183 215 1142 q 374 1224 313 1224 q 431 1214 403 1224 q 485 1193 458 1204 q 523 1179 504 1185 q 554 1174 542 1174 q 594 1224 597 1174 l 700 1224 q 663 1115 700 1163 q 561 1067 626 1067 z "},"Z":{"ha":915,"x_min":83,"x_max":839,"o":"m 83 0 l 83 110 l 619 828 l 119 828 l 119 972 l 824 972 l 824 864 l 290 144 l 839 144 l 839 0 l 83 0 z "},"Ź":{"ha":915,"x_min":83,"x_max":839,"o":"m 83 0 l 83 110 l 619 828 l 119 828 l 119 972 l 824 972 l 824 864 l 290 144 l 839 144 l 839 0 l 83 0 m 364 1049 l 325 1121 l 579 1278 l 644 1153 l 364 1049 z "},"Ž":{"ha":915,"x_min":83,"x_max":839,"o":"m 83 0 l 83 110 l 619 828 l 119 828 l 119 972 l 824 972 l 824 864 l 290 144 l 839 144 l 839 0 l 83 0 m 399 1051 l 232 1194 l 285 1240 l 458 1163 l 632 1240 l 685 1194 l 518 1051 l 399 1051 z "},"Ż":{"ha":915,"x_min":83,"x_max":839,"o":"m 83 0 l 83 110 l 619 828 l 119 828 l 119 972 l 824 972 l 824 864 l 290 144 l 839 144 l 839 0 l 83 0 m 458 1054 q 386 1079 410 1054 q 363 1144 363 1104 q 386 1207 363 1179 q 458 1235 410 1235 q 531 1210 507 1235 q 554 1144 554 1185 q 531 1082 554 1110 q 458 1054 507 1054 z "},"Ẓ":{"ha":915,"x_min":83,"x_max":839,"o":"m 83 0 l 83 110 l 619 828 l 119 828 l 119 972 l 824 972 l 824 864 l 290 144 l 839 144 l 839 0 l 83 0 m 458 -286 q 388 -262 413 -286 q 363 -196 363 -239 q 388 -131 363 -156 q 458 -106 414 -106 q 529 -129 504 -106 q 554 -196 554 -153 q 528 -261 554 -236 q 458 -286 503 -286 z "},"a":{"ha":879,"x_min":53,"x_max":779,"o":"m 381 -14 q 216 36 290 -14 q 97 172 142 86 q 53 367 53 258 q 98 562 53 476 q 220 696 143 647 q 393 744 297 744 q 538 709 475 744 q 635 618 601 674 l 635 729 l 779 729 l 779 0 l 635 0 l 635 113 q 528 23 597 60 q 381 -14 460 -14 m 418 118 q 533 150 483 118 q 612 238 583 182 q 640 367 640 294 q 612 493 640 438 q 533 581 583 549 q 418 613 483 613 q 305 581 354 613 q 227 493 256 549 q 199 367 199 438 q 227 238 199 294 q 305 150 256 182 q 418 118 354 118 z "},"á":{"ha":879,"x_min":53,"x_max":779,"o":"m 381 -14 q 216 36 290 -14 q 97 172 142 86 q 53 367 53 258 q 98 562 53 476 q 220 696 143 647 q 393 744 297 744 q 538 709 475 744 q 635 618 601 674 l 635 729 l 779 729 l 779 0 l 635 0 l 635 113 q 528 23 597 60 q 381 -14 460 -14 m 418 118 q 533 150 483 118 q 612 238 583 182 q 640 367 640 294 q 612 493 640 438 q 533 581 583 549 q 418 613 483 613 q 305 581 354 613 q 227 493 256 549 q 199 367 199 438 q 227 238 199 294 q 305 150 256 182 q 418 118 354 118 m 343 842 l 296 913 l 494 1086 l 585 972 l 343 842 z "},"ă":{"ha":879,"x_min":53,"x_max":779,"o":"m 381 -14 q 216 36 290 -14 q 97 172 142 86 q 53 367 53 258 q 98 562 53 476 q 220 696 143 647 q 393 744 297 744 q 538 709 475 744 q 635 618 601 674 l 635 729 l 779 729 l 779 0 l 635 0 l 635 113 q 528 23 597 60 q 381 -14 460 -14 m 418 118 q 533 150 483 118 q 612 238 583 182 q 640 367 640 294 q 612 493 640 438 q 533 581 583 549 q 418 613 483 613 q 305 581 354 613 q 227 493 256 549 q 199 367 199 438 q 227 238 199 294 q 305 150 256 182 q 418 118 354 118 m 440 818 q 293 876 351 818 q 215 1032 235 933 l 318 1049 q 367 963 336 994 q 440 931 399 931 q 513 963 482 931 q 563 1049 544 994 l 665 1032 q 588 876 646 933 q 440 818 529 818 z "},"ắ":{"ha":879,"x_min":53,"x_max":779,"o":"m 381 -14 q 216 36 290 -14 q 97 172 142 86 q 53 367 53 258 q 98 562 53 476 q 220 696 143 647 q 393 744 297 744 q 538 709 475 744 q 635 618 601 674 l 635 729 l 779 729 l 779 0 l 635 0 l 635 113 q 528 23 597 60 q 381 -14 460 -14 m 418 118 q 533 150 483 118 q 612 238 583 182 q 640 367 640 294 q 612 493 640 438 q 533 581 583 549 q 418 613 483 613 q 305 581 354 613 q 227 493 256 549 q 199 367 199 438 q 227 238 199 294 q 305 150 256 182 q 418 118 354 118 m 450 1049 l 378 1099 l 492 1301 l 613 1215 l 450 1049 m 440 818 q 293 868 351 818 q 215 1004 235 918 l 318 1021 q 367 955 336 979 q 440 931 399 931 q 513 955 482 931 q 563 1021 544 979 l 665 1004 q 588 868 646 918 q 440 818 529 818 z "},"ặ":{"ha":879,"x_min":53,"x_max":779,"o":"m 381 -14 q 216 36 290 -14 q 97 172 142 86 q 53 367 53 258 q 98 562 53 476 q 220 696 143 647 q 393 744 297 744 q 538 709 475 744 q 635 618 601 674 l 635 729 l 779 729 l 779 0 l 635 0 l 635 113 q 528 23 597 60 q 381 -14 460 -14 m 418 118 q 533 150 483 118 q 612 238 583 182 q 640 367 640 294 q 612 493 640 438 q 533 581 583 549 q 418 613 483 613 q 305 581 354 613 q 227 493 256 549 q 199 367 199 438 q 227 238 199 294 q 305 150 256 182 q 418 118 354 118 m 440 -286 q 369 -262 394 -286 q 344 -196 344 -239 q 370 -131 344 -156 q 440 -106 396 -106 q 511 -129 486 -106 q 536 -196 536 -153 q 510 -261 536 -236 q 440 -286 485 -286 m 440 818 q 293 876 351 818 q 215 1032 235 933 l 318 1049 q 367 963 336 994 q 440 931 399 931 q 513 963 482 931 q 563 1049 544 994 l 665 1032 q 588 876 646 933 q 440 818 529 818 z "},"ằ":{"ha":879,"x_min":53,"x_max":779,"o":"m 381 -14 q 216 36 290 -14 q 97 172 142 86 q 53 367 53 258 q 98 562 53 476 q 220 696 143 647 q 393 744 297 744 q 538 709 475 744 q 635 618 601 674 l 635 729 l 779 729 l 779 0 l 635 0 l 635 113 q 528 23 597 60 q 381 -14 460 -14 m 418 118 q 533 150 483 118 q 612 238 583 182 q 640 367 640 294 q 612 493 640 438 q 533 581 583 549 q 418 613 483 613 q 305 581 354 613 q 227 493 256 549 q 199 367 199 438 q 227 238 199 294 q 305 150 256 182 q 418 118 354 118 m 444 1046 l 276 1214 l 396 1301 l 511 1099 l 444 1046 m 440 818 q 293 872 351 818 q 215 1018 235 925 l 318 1035 q 367 959 336 988 q 440 931 399 931 q 513 959 482 931 q 563 1035 544 988 l 665 1018 q 588 872 646 925 q 440 818 529 818 z "},"ẳ":{"ha":879,"x_min":53,"x_max":779,"o":"m 381 -14 q 216 36 290 -14 q 97 172 142 86 q 53 367 53 258 q 98 562 53 476 q 220 696 143 647 q 393 744 297 744 q 538 709 475 744 q 635 618 601 674 l 635 729 l 779 729 l 779 0 l 635 0 l 635 113 q 528 23 597 60 q 381 -14 460 -14 m 418 118 q 533 150 483 118 q 612 238 583 182 q 640 367 640 294 q 612 493 640 438 q 533 581 583 549 q 418 613 483 613 q 305 581 354 613 q 227 493 256 549 q 199 367 199 438 q 227 238 199 294 q 305 150 256 182 q 418 118 354 118 m 408 1050 q 388 1103 388 1078 q 395 1131 388 1115 q 425 1161 403 1146 q 467 1203 467 1189 q 455 1221 467 1215 q 425 1226 443 1226 q 326 1201 376 1226 l 304 1289 q 366 1315 332 1307 q 428 1322 400 1322 q 538 1291 501 1322 q 575 1215 575 1260 q 559 1160 575 1181 q 524 1131 543 1140 q 487 1109 499 1118 q 475 1086 475 1100 q 479 1068 475 1076 l 408 1050 m 440 818 q 293 872 351 818 q 215 1018 235 925 l 318 1035 q 367 959 336 988 q 440 931 399 931 q 513 959 482 931 q 563 1035 544 988 l 665 1018 q 588 872 646 925 q 440 818 529 818 z "},"ẵ":{"ha":879,"x_min":53,"x_max":779,"o":"m 381 -14 q 216 36 290 -14 q 97 172 142 86 q 53 367 53 258 q 98 562 53 476 q 220 696 143 647 q 393 744 297 744 q 538 709 475 744 q 635 618 601 674 l 635 729 l 779 729 l 779 0 l 635 0 l 635 113 q 528 23 597 60 q 381 -14 460 -14 m 418 118 q 533 150 483 118 q 612 238 583 182 q 640 367 640 294 q 612 493 640 438 q 533 581 583 549 q 418 613 483 613 q 305 581 354 613 q 227 493 256 549 q 199 367 199 438 q 227 238 199 294 q 305 150 256 182 q 418 118 354 118 m 546 1135 q 479 1148 506 1135 q 428 1171 453 1161 q 396 1185 411 1178 q 363 1192 381 1192 q 331 1178 344 1192 q 311 1140 317 1164 l 217 1154 q 258 1256 219 1213 q 349 1300 297 1300 q 406 1287 381 1300 q 456 1263 431 1274 q 490 1248 474 1254 q 519 1242 506 1242 q 571 1294 560 1242 l 665 1281 q 632 1178 663 1222 q 546 1135 601 1135 m 440 818 q 293 872 351 818 q 215 1018 235 925 l 318 1035 q 367 959 336 988 q 440 931 399 931 q 513 959 482 931 q 563 1035 544 988 l 665 1018 q 588 872 646 925 q 440 818 529 818 z "},"ǎ":{"ha":879,"x_min":53,"x_max":779,"o":"m 381 -14 q 216 36 290 -14 q 97 172 142 86 q 53 367 53 258 q 98 562 53 476 q 220 696 143 647 q 393 744 297 744 q 538 709 475 744 q 635 618 601 674 l 635 729 l 779 729 l 779 0 l 635 0 l 635 113 q 528 23 597 60 q 381 -14 460 -14 m 418 118 q 533 150 483 118 q 612 238 583 182 q 640 367 640 294 q 612 493 640 438 q 533 581 583 549 q 418 613 483 613 q 305 581 354 613 q 227 493 256 549 q 199 367 199 438 q 227 238 199 294 q 305 150 256 182 q 418 118 354 118 m 381 843 l 235 1000 l 288 1046 l 440 957 l 593 1046 l 646 1000 l 500 843 l 381 843 z "},"â":{"ha":879,"x_min":53,"x_max":779,"o":"m 381 -14 q 216 36 290 -14 q 97 172 142 86 q 53 367 53 258 q 98 562 53 476 q 220 696 143 647 q 393 744 297 744 q 538 709 475 744 q 635 618 601 674 l 635 729 l 779 729 l 779 0 l 635 0 l 635 113 q 528 23 597 60 q 381 -14 460 -14 m 418 118 q 533 150 483 118 q 612 238 583 182 q 640 367 640 294 q 612 493 640 438 q 533 581 583 549 q 418 613 483 613 q 305 581 354 613 q 227 493 256 549 q 199 367 199 438 q 227 238 199 294 q 305 150 256 182 q 418 118 354 118 m 274 843 l 221 889 l 381 1046 l 500 1046 l 660 889 l 607 843 l 440 933 l 274 843 z "},"ấ":{"ha":879,"x_min":53,"x_max":835,"o":"m 381 -14 q 216 36 290 -14 q 97 172 142 86 q 53 367 53 258 q 98 562 53 476 q 220 696 143 647 q 393 744 297 744 q 538 709 475 744 q 635 618 601 674 l 635 729 l 779 729 l 779 0 l 635 0 l 635 113 q 528 23 597 60 q 381 -14 460 -14 m 418 118 q 533 150 483 118 q 612 238 583 182 q 640 367 640 294 q 612 493 640 438 q 533 581 583 549 q 418 613 483 613 q 305 581 354 613 q 227 493 256 549 q 199 367 199 438 q 227 238 199 294 q 305 150 256 182 q 418 118 354 118 m 672 1035 l 600 1085 l 714 1288 l 835 1201 l 672 1035 m 274 843 l 221 889 l 381 1046 l 500 1046 l 660 889 l 607 843 l 440 933 l 274 843 z "},"ậ":{"ha":879,"x_min":53,"x_max":779,"o":"m 381 -14 q 216 36 290 -14 q 97 172 142 86 q 53 367 53 258 q 98 562 53 476 q 220 696 143 647 q 393 744 297 744 q 538 709 475 744 q 635 618 601 674 l 635 729 l 779 729 l 779 0 l 635 0 l 635 113 q 528 23 597 60 q 381 -14 460 -14 m 418 118 q 533 150 483 118 q 612 238 583 182 q 640 367 640 294 q 612 493 640 438 q 533 581 583 549 q 418 613 483 613 q 305 581 354 613 q 227 493 256 549 q 199 367 199 438 q 227 238 199 294 q 305 150 256 182 q 418 118 354 118 m 440 -286 q 369 -262 394 -286 q 344 -196 344 -239 q 370 -131 344 -156 q 440 -106 396 -106 q 511 -129 486 -106 q 536 -196 536 -153 q 510 -261 536 -236 q 440 -286 485 -286 m 274 843 l 221 889 l 381 1046 l 500 1046 l 660 889 l 607 843 l 440 933 l 274 843 z "},"ầ":{"ha":879,"x_min":53,"x_max":779,"o":"m 381 -14 q 216 36 290 -14 q 97 172 142 86 q 53 367 53 258 q 98 562 53 476 q 220 696 143 647 q 393 744 297 744 q 538 709 475 744 q 635 618 601 674 l 635 729 l 779 729 l 779 0 l 635 0 l 635 113 q 528 23 597 60 q 381 -14 460 -14 m 418 118 q 533 150 483 118 q 612 238 583 182 q 640 367 640 294 q 612 493 640 438 q 533 581 583 549 q 418 613 483 613 q 305 581 354 613 q 227 493 256 549 q 199 367 199 438 q 227 238 199 294 q 305 150 256 182 q 418 118 354 118 m 653 1032 l 485 1200 l 604 1288 l 719 1085 l 653 1032 m 274 843 l 221 889 l 381 1046 l 500 1046 l 660 889 l 607 843 l 440 933 l 274 843 z "},"ẩ":{"ha":879,"x_min":53,"x_max":807,"o":"m 381 -14 q 216 36 290 -14 q 97 172 142 86 q 53 367 53 258 q 98 562 53 476 q 220 696 143 647 q 393 744 297 744 q 538 709 475 744 q 635 618 601 674 l 635 729 l 779 729 l 779 0 l 635 0 l 635 113 q 528 23 597 60 q 381 -14 460 -14 m 418 118 q 533 150 483 118 q 612 238 583 182 q 640 367 640 294 q 612 493 640 438 q 533 581 583 549 q 418 613 483 613 q 305 581 354 613 q 227 493 256 549 q 199 367 199 438 q 227 238 199 294 q 305 150 256 182 q 418 118 354 118 m 640 1017 q 619 1069 619 1044 q 627 1097 619 1082 q 657 1128 635 1113 q 699 1169 699 1156 q 687 1188 699 1182 q 657 1193 675 1193 q 608 1188 635 1193 q 558 1168 582 1183 l 536 1256 q 599 1281 565 1272 q 660 1289 632 1289 q 770 1258 733 1289 q 807 1182 807 1226 q 791 1127 807 1147 q 756 1097 775 1107 q 719 1076 731 1085 q 707 1053 707 1067 q 711 1035 707 1043 l 640 1017 m 274 843 l 221 889 l 381 1046 l 500 1046 l 660 889 l 607 843 l 440 933 l 274 843 z "},"ẫ":{"ha":879,"x_min":53,"x_max":779,"o":"m 381 -14 q 216 36 290 -14 q 97 172 142 86 q 53 367 53 258 q 98 562 53 476 q 220 696 143 647 q 393 744 297 744 q 538 709 475 744 q 635 618 601 674 l 635 729 l 779 729 l 779 0 l 635 0 l 635 113 q 528 23 597 60 q 381 -14 460 -14 m 418 118 q 533 150 483 118 q 612 238 583 182 q 640 367 640 294 q 612 493 640 438 q 533 581 583 549 q 418 613 483 613 q 305 581 354 613 q 227 493 256 549 q 199 367 199 438 q 227 238 199 294 q 305 150 256 182 q 418 118 354 118 m 544 1121 q 478 1134 504 1121 q 426 1157 451 1147 q 394 1171 410 1164 q 361 1178 379 1178 q 329 1164 343 1178 q 310 1126 315 1150 l 215 1140 q 257 1242 218 1199 q 347 1286 296 1286 q 404 1273 379 1286 q 454 1249 429 1260 q 488 1234 472 1240 q 518 1228 504 1228 q 569 1281 558 1228 l 664 1267 q 631 1165 661 1208 q 544 1121 600 1121 m 272 843 l 219 889 l 379 1046 l 499 1046 l 658 889 l 606 843 l 439 933 l 272 843 z "},"ȁ":{"ha":879,"x_min":53,"x_max":779,"o":"m 381 -14 q 216 36 290 -14 q 97 172 142 86 q 53 367 53 258 q 98 562 53 476 q 220 696 143 647 q 393 744 297 744 q 538 709 475 744 q 635 618 601 674 l 635 729 l 779 729 l 779 0 l 635 0 l 635 113 q 528 23 597 60 q 381 -14 460 -14 m 418 118 q 533 150 483 118 q 612 238 583 182 q 640 367 640 294 q 612 493 640 438 q 533 581 583 549 q 418 613 483 613 q 305 581 354 613 q 227 493 256 549 q 199 367 199 438 q 227 238 199 294 q 305 150 256 182 q 418 118 354 118 m 583 842 l 342 972 l 432 1086 l 631 913 l 583 842 m 307 842 l 65 972 l 156 1086 l 354 913 l 307 842 z "},"ä":{"ha":879,"x_min":53,"x_max":779,"o":"m 381 -14 q 216 36 290 -14 q 97 172 142 86 q 53 367 53 258 q 98 562 53 476 q 220 696 143 647 q 393 744 297 744 q 538 709 475 744 q 635 618 601 674 l 635 729 l 779 729 l 779 0 l 635 0 l 635 113 q 528 23 597 60 q 381 -14 460 -14 m 418 118 q 533 150 483 118 q 612 238 583 182 q 640 367 640 294 q 612 493 640 438 q 533 581 583 549 q 418 613 483 613 q 305 581 354 613 q 227 493 256 549 q 199 367 199 438 q 227 238 199 294 q 305 150 256 182 q 418 118 354 118 m 579 892 q 508 915 533 892 q 483 982 483 939 q 509 1047 483 1022 q 579 1072 535 1072 q 650 1049 625 1072 q 675 982 675 1025 q 649 917 675 942 q 579 892 624 892 m 301 892 q 231 915 256 892 q 206 982 206 939 q 231 1047 206 1022 q 301 1072 257 1072 q 372 1049 347 1072 q 397 982 397 1025 q 372 917 397 942 q 301 892 346 892 z "},"ạ":{"ha":879,"x_min":53,"x_max":779,"o":"m 381 -14 q 216 36 290 -14 q 97 172 142 86 q 53 367 53 258 q 98 562 53 476 q 220 696 143 647 q 393 744 297 744 q 538 709 475 744 q 635 618 601 674 l 635 729 l 779 729 l 779 0 l 635 0 l 635 113 q 528 23 597 60 q 381 -14 460 -14 m 418 118 q 533 150 483 118 q 612 238 583 182 q 640 367 640 294 q 612 493 640 438 q 533 581 583 549 q 418 613 483 613 q 305 581 354 613 q 227 493 256 549 q 199 367 199 438 q 227 238 199 294 q 305 150 256 182 q 418 118 354 118 m 440 -286 q 369 -262 394 -286 q 344 -196 344 -239 q 370 -131 344 -156 q 440 -106 396 -106 q 511 -129 486 -106 q 536 -196 536 -153 q 510 -261 536 -236 q 440 -286 485 -286 z "},"à":{"ha":879,"x_min":53,"x_max":779,"o":"m 381 -14 q 216 36 290 -14 q 97 172 142 86 q 53 367 53 258 q 98 562 53 476 q 220 696 143 647 q 393 744 297 744 q 538 709 475 744 q 635 618 601 674 l 635 729 l 779 729 l 779 0 l 635 0 l 635 113 q 528 23 597 60 q 381 -14 460 -14 m 418 118 q 533 150 483 118 q 612 238 583 182 q 640 367 640 294 q 612 493 640 438 q 533 581 583 549 q 418 613 483 613 q 305 581 354 613 q 227 493 256 549 q 199 367 199 438 q 227 238 199 294 q 305 150 256 182 q 418 118 354 118 m 510 842 l 268 972 l 358 1086 l 557 913 l 510 842 z "},"ả":{"ha":879,"x_min":53,"x_max":779,"o":"m 381 -14 q 216 36 290 -14 q 97 172 142 86 q 53 367 53 258 q 98 562 53 476 q 220 696 143 647 q 393 744 297 744 q 538 709 475 744 q 635 618 601 674 l 635 729 l 779 729 l 779 0 l 635 0 l 635 113 q 528 23 597 60 q 381 -14 460 -14 m 418 118 q 533 150 483 118 q 612 238 583 182 q 640 367 640 294 q 612 493 640 438 q 533 581 583 549 q 418 613 483 613 q 305 581 354 613 q 227 493 256 549 q 199 367 199 438 q 227 238 199 294 q 305 150 256 182 q 418 118 354 118 m 408 824 q 388 876 388 851 q 395 904 388 889 q 425 935 403 919 q 467 976 467 963 q 455 994 467 989 q 425 1000 443 1000 q 326 975 376 1000 l 304 1063 q 367 1088 333 1079 q 428 1096 400 1096 q 538 1065 501 1096 q 575 989 575 1033 q 559 934 575 954 q 524 904 543 914 q 487 883 499 892 q 475 860 475 874 q 479 842 475 850 l 408 824 z "},"ȃ":{"ha":879,"x_min":53,"x_max":779,"o":"m 381 -14 q 216 36 290 -14 q 97 172 142 86 q 53 367 53 258 q 98 562 53 476 q 220 696 143 647 q 393 744 297 744 q 538 709 475 744 q 635 618 601 674 l 635 729 l 779 729 l 779 0 l 635 0 l 635 113 q 528 23 597 60 q 381 -14 460 -14 m 418 118 q 533 150 483 118 q 612 238 583 182 q 640 367 640 294 q 612 493 640 438 q 533 581 583 549 q 418 613 483 613 q 305 581 354 613 q 227 493 256 549 q 199 367 199 438 q 227 238 199 294 q 305 150 256 182 q 418 118 354 118 m 318 832 l 215 849 q 293 1005 235 947 q 440 1063 351 1063 q 588 1005 529 1063 q 665 849 646 947 l 563 832 q 513 918 544 886 q 440 950 482 950 q 367 918 399 950 q 318 832 336 886 z "},"ā":{"ha":879,"x_min":53,"x_max":779,"o":"m 381 -14 q 216 36 290 -14 q 97 172 142 86 q 53 367 53 258 q 98 562 53 476 q 220 696 143 647 q 393 744 297 744 q 538 709 475 744 q 635 618 601 674 l 635 729 l 779 729 l 779 0 l 635 0 l 635 113 q 528 23 597 60 q 381 -14 460 -14 m 418 118 q 533 150 483 118 q 612 238 583 182 q 640 367 640 294 q 612 493 640 438 q 533 581 583 549 q 418 613 483 613 q 305 581 354 613 q 227 493 256 549 q 199 367 199 438 q 227 238 199 294 q 305 150 256 182 q 418 118 354 118 m 243 892 l 243 996 l 638 996 l 638 892 l 243 892 z "},"ą":{"ha":879,"x_min":53,"x_max":806,"o":"m 381 -14 q 216 36 290 -14 q 97 172 142 86 q 53 367 53 258 q 98 562 53 476 q 220 696 143 647 q 393 744 297 744 q 538 709 475 744 q 635 618 601 674 l 635 729 l 779 729 l 779 0 l 635 0 l 635 113 q 528 23 597 60 q 381 -14 460 -14 m 418 118 q 533 150 483 118 q 612 238 583 182 q 640 367 640 294 q 612 493 640 438 q 533 581 583 549 q 418 613 483 613 q 305 581 354 613 q 227 493 256 549 q 199 367 199 438 q 227 238 199 294 q 305 150 256 182 q 418 118 354 118 m 654 -278 q 579 -258 614 -278 q 524 -206 544 -239 q 503 -135 503 -174 q 563 -19 503 -65 q 733 57 622 26 l 779 0 q 674 -49 718 -14 q 629 -121 629 -83 q 642 -157 629 -143 q 676 -171 656 -171 q 728 -136 704 -171 l 806 -192 q 753 -252 792 -226 q 654 -278 714 -278 z "},"å":{"ha":879,"x_min":53,"x_max":779,"o":"m 381 -14 q 216 36 290 -14 q 97 172 142 86 q 53 367 53 258 q 98 562 53 476 q 220 696 143 647 q 393 744 297 744 q 538 709 475 744 q 635 618 601 674 l 635 729 l 779 729 l 779 0 l 635 0 l 635 113 q 528 23 597 60 q 381 -14 460 -14 m 418 118 q 533 150 483 118 q 612 238 583 182 q 640 367 640 294 q 612 493 640 438 q 533 581 583 549 q 418 613 483 613 q 305 581 354 613 q 227 493 256 549 q 199 367 199 438 q 227 238 199 294 q 305 150 256 182 q 418 118 354 118 m 439 839 q 365 859 400 839 q 309 913 331 879 q 288 985 288 946 q 308 1058 288 1025 q 364 1112 329 1092 q 439 1132 399 1132 q 515 1112 481 1132 q 571 1058 550 1092 q 592 985 592 1025 q 571 913 592 946 q 515 859 550 879 q 439 839 481 839 m 439 921 q 488 940 468 921 q 508 985 508 958 q 488 1032 508 1014 q 439 1050 468 1050 q 390 1031 410 1050 q 371 985 371 1013 q 391 940 371 958 q 439 921 411 921 z "},"ǻ":{"ha":879,"x_min":53,"x_max":779,"o":"m 381 -14 q 216 36 290 -14 q 97 172 142 86 q 53 367 53 258 q 98 562 53 476 q 220 696 143 647 q 393 744 297 744 q 538 709 475 744 q 635 618 601 674 l 635 729 l 779 729 l 779 0 l 635 0 l 635 113 q 528 23 597 60 q 381 -14 460 -14 m 418 118 q 533 150 483 118 q 612 238 583 182 q 640 367 640 294 q 612 493 640 438 q 533 581 583 549 q 418 613 483 613 q 305 581 354 613 q 227 493 256 549 q 199 367 199 438 q 227 238 199 294 q 305 150 256 182 q 418 118 354 118 m 439 839 q 365 859 400 839 q 309 913 331 879 q 288 985 288 946 q 308 1058 288 1025 q 364 1112 329 1092 q 439 1132 399 1132 q 515 1112 481 1132 q 571 1058 550 1092 q 592 985 592 1025 q 571 913 592 946 q 515 859 550 879 q 439 839 481 839 m 439 921 q 488 940 468 921 q 508 985 508 958 q 488 1032 508 1014 q 439 1050 468 1050 q 390 1031 410 1050 q 371 985 371 1013 q 391 940 371 958 q 439 921 411 921 m 343 1165 l 296 1236 l 494 1410 l 585 1296 l 343 1165 z "},"ã":{"ha":879,"x_min":53,"x_max":779,"o":"m 381 -14 q 216 36 290 -14 q 97 172 142 86 q 53 367 53 258 q 98 562 53 476 q 220 696 143 647 q 393 744 297 744 q 538 709 475 744 q 635 618 601 674 l 635 729 l 779 729 l 779 0 l 635 0 l 635 113 q 528 23 597 60 q 381 -14 460 -14 m 418 118 q 533 150 483 118 q 612 238 583 182 q 640 367 640 294 q 612 493 640 438 q 533 581 583 549 q 418 613 483 613 q 305 581 354 613 q 227 493 256 549 q 199 367 199 438 q 227 238 199 294 q 305 150 256 182 q 418 118 354 118 m 511 854 q 465 865 483 854 q 425 893 446 876 q 385 926 399 917 q 361 935 372 935 q 310 854 321 935 l 215 868 q 259 986 218 936 q 368 1036 300 1036 q 415 1025 396 1036 q 454 997 433 1014 q 494 965 482 975 q 518 956 507 956 q 569 1036 558 956 l 664 1022 q 620 904 661 954 q 511 854 579 854 z "},"æ":{"ha":1249,"x_min":53,"x_max":1193,"o":"m 300 -14 q 174 14 229 -14 q 85 91 118 42 q 53 207 53 140 q 136 384 53 324 q 381 443 219 444 l 518 443 l 518 494 q 472 579 518 546 q 364 613 425 613 q 164 511 243 613 l 71 604 q 206 708 131 672 q 367 744 281 744 q 524 717 458 744 q 621 639 589 690 q 728 717 667 689 q 863 744 790 744 q 1032 697 957 743 q 1150 572 1107 651 q 1193 390 1193 492 l 1192 329 l 650 329 q 694 219 658 267 q 785 144 731 171 q 908 117 840 117 q 1009 135 963 117 q 1110 200 1056 153 l 1179 96 q 1050 17 1129 47 q 894 -14 971 -14 q 714 25 793 -14 q 585 132 635 64 q 460 26 536 67 q 300 -14 383 -14 m 863 613 q 654 443 686 613 l 1047 443 l 1047 453 q 1017 535 1043 499 q 950 592 990 571 q 863 613 910 613 m 306 108 q 444 146 381 108 q 535 239 507 183 q 519 329 522 282 l 363 329 q 233 298 278 329 q 188 210 188 267 q 221 136 188 164 q 306 108 254 108 z "},"ǽ":{"ha":1249,"x_min":53,"x_max":1193,"o":"m 300 -14 q 174 14 229 -14 q 85 91 118 42 q 53 207 53 140 q 136 384 53 324 q 381 443 219 444 l 518 443 l 518 494 q 472 579 518 546 q 364 613 425 613 q 164 511 243 613 l 71 604 q 206 708 131 672 q 367 744 281 744 q 524 717 458 744 q 621 639 589 690 q 728 717 667 689 q 863 744 790 744 q 1032 697 957 743 q 1150 572 1107 651 q 1193 390 1193 492 l 1192 329 l 650 329 q 694 219 658 267 q 785 144 731 171 q 908 117 840 117 q 1009 135 963 117 q 1110 200 1056 153 l 1179 96 q 1050 17 1129 47 q 894 -14 971 -14 q 714 25 793 -14 q 585 132 635 64 q 460 26 536 67 q 300 -14 383 -14 m 863 613 q 654 443 686 613 l 1047 443 l 1047 453 q 1017 535 1043 499 q 950 592 990 571 q 863 613 910 613 m 306 108 q 444 146 381 108 q 535 239 507 183 q 519 329 522 282 l 363 329 q 233 298 278 329 q 188 210 188 267 q 221 136 188 164 q 306 108 254 108 m 528 842 l 481 913 l 679 1086 l 769 972 l 528 842 z "},"b":{"ha":875,"x_min":100,"x_max":819,"o":"m 483 -14 q 347 19 413 -14 q 243 96 282 51 l 243 4 l 100 4 l 100 1028 l 243 1028 l 243 625 q 342 709 276 674 q 479 744 408 744 q 654 696 578 744 q 775 562 731 647 q 819 367 819 476 q 776 171 819 257 q 656 35 732 85 q 483 -14 579 -14 m 460 117 q 574 149 524 117 q 653 238 624 182 q 682 367 682 294 q 653 494 682 438 q 575 582 625 550 q 460 614 525 614 q 344 582 394 614 q 265 494 294 550 q 236 367 236 438 q 265 238 236 294 q 344 149 294 182 q 460 117 394 117 z "},"c":{"ha":743,"x_min":56,"x_max":708,"o":"m 410 -14 q 228 36 308 -14 q 102 172 149 86 q 56 365 56 258 q 102 558 56 472 q 228 694 149 644 q 410 744 308 744 q 587 705 507 744 q 708 597 667 665 l 629 500 q 537 582 596 549 q 424 615 478 615 q 305 583 357 615 q 222 493 253 550 q 192 365 192 436 q 224 238 192 294 q 308 149 256 182 q 425 115 361 115 q 629 226 538 115 l 708 129 q 581 26 664 67 q 410 -14 499 -14 z "},"ć":{"ha":743,"x_min":56,"x_max":708,"o":"m 410 -14 q 228 36 308 -14 q 102 172 149 86 q 56 365 56 258 q 102 558 56 472 q 228 694 149 644 q 410 744 308 744 q 587 705 507 744 q 708 597 667 665 l 629 500 q 537 582 596 549 q 424 615 478 615 q 305 583 357 615 q 222 493 253 550 q 192 365 192 436 q 224 238 192 294 q 308 149 256 182 q 425 115 361 115 q 629 226 538 115 l 708 129 q 581 26 664 67 q 410 -14 499 -14 m 313 842 l 265 913 l 464 1086 l 554 972 l 313 842 z "},"č":{"ha":743,"x_min":56,"x_max":708,"o":"m 410 -14 q 228 36 308 -14 q 102 172 149 86 q 56 365 56 258 q 102 558 56 472 q 228 694 149 644 q 410 744 308 744 q 587 705 507 744 q 708 597 667 665 l 629 500 q 537 582 596 549 q 424 615 478 615 q 305 583 357 615 q 222 493 253 550 q 192 365 192 436 q 224 238 192 294 q 308 149 256 182 q 425 115 361 115 q 629 226 538 115 l 708 129 q 581 26 664 67 q 410 -14 499 -14 m 350 843 l 204 1000 l 257 1046 l 410 957 l 563 1046 l 615 1000 l 469 843 l 350 843 z "},"ç":{"ha":743,"x_min":56,"x_max":708,"o":"m 410 -14 q 228 36 308 -14 q 102 172 149 86 q 56 365 56 258 q 102 558 56 472 q 228 694 149 644 q 410 744 308 744 q 587 705 507 744 q 708 597 667 665 l 629 500 q 537 582 596 549 q 424 615 478 615 q 305 583 357 615 q 222 493 253 550 q 192 365 192 436 q 224 238 192 294 q 308 149 256 182 q 425 115 361 115 q 629 226 538 115 l 708 129 q 581 26 664 67 q 410 -14 499 -14 m 283 -339 l 274 -265 q 343 -254 307 -265 q 404 -226 379 -243 q 429 -192 429 -208 q 406 -161 429 -172 q 353 -144 382 -150 q 304 -139 324 -139 l 286 -125 l 386 33 l 468 33 l 408 -64 q 547 -193 547 -93 q 506 -274 547 -240 q 404 -324 465 -307 q 283 -339 343 -340 z "},"ḉ":{"ha":743,"x_min":56,"x_max":708,"o":"m 410 -14 q 228 36 308 -14 q 102 172 149 86 q 56 365 56 258 q 102 558 56 472 q 228 694 149 644 q 410 744 308 744 q 587 705 507 744 q 708 597 667 665 l 629 500 q 537 582 596 549 q 424 615 478 615 q 305 583 357 615 q 222 493 253 550 q 192 365 192 436 q 224 238 192 294 q 308 149 256 182 q 425 115 361 115 q 629 226 538 115 l 708 129 q 581 26 664 67 q 410 -14 499 -14 m 283 -339 l 274 -265 q 343 -254 307 -265 q 404 -226 379 -243 q 429 -192 429 -208 q 406 -161 429 -172 q 353 -144 382 -150 q 304 -139 324 -139 l 286 -125 l 386 33 l 468 33 l 408 -64 q 547 -193 547 -93 q 506 -274 547 -240 q 404 -324 465 -307 q 283 -339 343 -340 m 313 842 l 265 913 l 464 1086 l 554 972 l 313 842 z "},"ĉ":{"ha":743,"x_min":56,"x_max":708,"o":"m 410 -14 q 228 36 308 -14 q 102 172 149 86 q 56 365 56 258 q 102 558 56 472 q 228 694 149 644 q 410 744 308 744 q 587 705 507 744 q 708 597 667 665 l 629 500 q 537 582 596 549 q 424 615 478 615 q 305 583 357 615 q 222 493 253 550 q 192 365 192 436 q 224 238 192 294 q 308 149 256 182 q 425 115 361 115 q 629 226 538 115 l 708 129 q 581 26 664 67 q 410 -14 499 -14 m 243 843 l 190 889 l 350 1046 l 469 1046 l 629 889 l 576 843 l 410 933 l 243 843 z "},"ċ":{"ha":743,"x_min":56,"x_max":708,"o":"m 410 -14 q 228 36 308 -14 q 102 172 149 86 q 56 365 56 258 q 102 558 56 472 q 228 694 149 644 q 410 744 308 744 q 587 705 507 744 q 708 597 667 665 l 629 500 q 537 582 596 549 q 424 615 478 615 q 305 583 357 615 q 222 493 253 550 q 192 365 192 436 q 224 238 192 294 q 308 149 256 182 q 425 115 361 115 q 629 226 538 115 l 708 129 q 581 26 664 67 q 410 -14 499 -14 m 410 890 q 339 914 364 890 q 314 981 314 938 q 340 1046 314 1021 q 410 1071 365 1071 q 481 1047 456 1071 q 506 981 506 1024 q 480 915 506 940 q 410 890 454 890 z "},"d":{"ha":881,"x_min":56,"x_max":783,"o":"m 404 -14 q 226 35 304 -14 q 101 170 147 85 q 56 365 56 256 q 101 560 56 475 q 224 695 146 646 q 400 744 301 744 q 537 714 472 744 q 640 639 601 683 l 640 1028 l 783 1028 l 783 0 l 640 0 l 640 100 q 542 19 607 53 q 404 -14 476 -14 m 424 110 q 539 143 489 110 q 617 234 589 176 q 646 365 646 292 q 617 497 646 439 q 539 588 589 554 q 424 621 489 621 q 308 588 358 621 q 230 497 258 554 q 201 365 201 439 q 230 234 201 292 q 308 143 258 176 q 424 110 358 110 z "},"ð":{"ha":797,"x_min":56,"x_max":742,"o":"m 399 -10 q 225 40 303 -10 q 101 175 147 90 q 56 364 56 260 q 82 506 56 439 q 154 624 108 572 q 259 704 200 675 q 382 733 318 733 q 556 667 485 733 q 476 794 531 742 l 217 733 l 199 824 l 369 867 q 235 919 313 896 l 293 1028 q 525 914 426 996 l 679 949 l 704 857 l 603 833 q 706 638 669 750 q 742 390 742 526 q 698 182 742 272 q 576 41 654 92 q 399 -10 499 -10 m 399 124 q 504 156 457 124 q 579 242 551 188 q 607 364 607 296 q 579 483 607 429 q 504 568 551 536 q 399 600 457 600 q 293 569 340 600 q 218 484 246 538 q 190 364 190 431 q 218 242 190 296 q 293 156 246 188 q 399 124 340 124 z "},"ď":{"ha":907,"x_min":56,"x_max":1058,"o":"m 404 -14 q 226 35 304 -14 q 101 170 147 85 q 56 365 56 256 q 101 560 56 475 q 224 695 146 646 q 400 744 301 744 q 537 714 472 744 q 640 639 601 683 l 640 1028 l 783 1028 l 783 0 l 640 0 l 640 100 q 542 19 607 53 q 404 -14 476 -14 m 424 110 q 539 143 489 110 q 617 234 589 176 q 646 365 646 292 q 617 497 646 439 q 539 588 589 554 q 424 621 489 621 q 308 588 358 621 q 230 497 258 554 q 201 365 201 439 q 230 234 201 292 q 308 143 258 176 q 424 110 358 110 m 886 753 l 853 811 q 905 840 882 818 q 928 883 928 863 q 923 897 928 892 q 901 907 918 903 q 868 926 876 914 q 860 960 860 939 q 885 1009 860 990 q 950 1028 910 1028 q 1027 999 996 1028 q 1058 921 1058 969 q 1011 824 1058 868 q 886 753 964 779 z "},"đ":{"ha":881,"x_min":56,"x_max":881,"o":"m 404 -14 q 226 35 304 -14 q 101 170 147 85 q 56 365 56 256 q 101 560 56 475 q 224 695 146 646 q 400 744 301 744 q 537 714 472 744 q 640 639 601 683 l 640 818 l 508 818 l 508 943 l 640 943 l 640 1028 l 783 1028 l 783 943 l 881 943 l 881 818 l 783 818 l 783 0 l 640 0 l 640 100 q 542 19 607 53 q 404 -14 476 -14 m 424 110 q 539 143 489 110 q 617 234 589 176 q 646 365 646 292 q 617 497 646 439 q 539 588 589 554 q 424 621 489 621 q 308 588 358 621 q 230 497 258 554 q 201 365 201 439 q 230 234 201 292 q 308 143 258 176 q 424 110 358 110 z "},"ḍ":{"ha":881,"x_min":56,"x_max":783,"o":"m 404 -14 q 226 35 304 -14 q 101 170 147 85 q 56 365 56 256 q 101 560 56 475 q 224 695 146 646 q 400 744 301 744 q 537 714 472 744 q 640 639 601 683 l 640 1028 l 783 1028 l 783 0 l 640 0 l 640 100 q 542 19 607 53 q 404 -14 476 -14 m 424 110 q 539 143 489 110 q 617 234 589 176 q 646 365 646 292 q 617 497 646 439 q 539 588 589 554 q 424 621 489 621 q 308 588 358 621 q 230 497 258 554 q 201 365 201 439 q 230 234 201 292 q 308 143 258 176 q 424 110 358 110 m 440 -286 q 369 -262 394 -286 q 344 -196 344 -239 q 370 -131 344 -156 q 440 -106 396 -106 q 511 -129 486 -106 q 536 -196 536 -153 q 510 -261 536 -236 q 440 -286 485 -286 z "},"ḏ":{"ha":881,"x_min":56,"x_max":783,"o":"m 404 -14 q 226 35 304 -14 q 101 170 147 85 q 56 365 56 256 q 101 560 56 475 q 224 695 146 646 q 400 744 301 744 q 537 714 472 744 q 640 639 601 683 l 640 1028 l 783 1028 l 783 0 l 640 0 l 640 100 q 542 19 607 53 q 404 -14 476 -14 m 424 110 q 539 143 489 110 q 617 234 589 176 q 646 365 646 292 q 617 497 646 439 q 539 588 589 554 q 424 621 489 621 q 308 588 358 621 q 230 497 258 554 q 201 365 201 439 q 230 234 201 292 q 308 143 258 176 q 424 110 358 110 m 244 -247 l 244 -144 l 635 -144 l 635 -247 l 244 -247 z "},"ǆ":{"ha":1553,"x_min":56,"x_max":1490,"o":"m 404 -14 q 226 35 304 -14 q 101 170 147 85 q 56 365 56 256 q 101 560 56 475 q 224 695 146 646 q 400 744 301 744 q 537 714 472 744 q 640 639 601 683 l 640 1028 l 783 1028 l 783 0 l 640 0 l 640 100 q 542 19 607 53 q 404 -14 476 -14 m 424 110 q 539 143 489 110 q 617 234 589 176 q 646 365 646 292 q 617 497 646 439 q 539 588 589 554 q 424 621 489 621 q 308 588 358 621 q 230 497 258 554 q 201 365 201 439 q 230 234 201 292 q 308 143 258 176 q 424 110 358 110 m 950 0 l 950 119 l 1314 606 l 950 606 l 950 729 l 1482 729 l 1482 613 l 1117 124 l 1490 124 l 1490 0 l 950 0 m 1157 843 l 1011 1000 l 1064 1046 l 1217 957 l 1369 1046 l 1422 1000 l 1276 843 l 1157 843 z "},"e":{"ha":814,"x_min":56,"x_max":761,"o":"m 440 -14 q 241 34 328 -14 q 105 165 154 82 q 56 357 56 249 q 103 559 56 472 q 235 695 151 646 q 428 746 319 744 q 598 699 522 744 q 717 574 674 653 q 758 392 761 494 l 757 331 l 199 331 q 280 174 211 232 q 454 117 349 117 q 555 135 508 117 q 656 200 601 153 l 728 99 q 597 17 676 49 q 440 -14 518 -14 m 428 614 q 204 444 240 614 l 613 444 l 613 454 q 582 536 608 500 q 515 593 556 572 q 428 614 475 614 z "},"é":{"ha":814,"x_min":56,"x_max":761,"o":"m 440 -14 q 241 34 328 -14 q 105 165 154 82 q 56 357 56 249 q 103 559 56 472 q 235 695 151 646 q 428 746 319 744 q 598 699 522 744 q 717 574 674 653 q 758 392 761 494 l 757 331 l 199 331 q 280 174 211 232 q 454 117 349 117 q 555 135 508 117 q 656 200 601 153 l 728 99 q 597 17 676 49 q 440 -14 518 -14 m 428 614 q 204 444 240 614 l 613 444 l 613 454 q 582 536 608 500 q 515 593 556 572 q 428 614 475 614 m 331 842 l 283 913 l 482 1086 l 572 972 l 331 842 z "},"ĕ":{"ha":814,"x_min":56,"x_max":761,"o":"m 440 -14 q 241 34 328 -14 q 105 165 154 82 q 56 357 56 249 q 103 559 56 472 q 235 695 151 646 q 428 746 319 744 q 598 699 522 744 q 717 574 674 653 q 758 392 761 494 l 757 331 l 199 331 q 280 174 211 232 q 454 117 349 117 q 555 135 508 117 q 656 200 601 153 l 728 99 q 597 17 676 49 q 440 -14 518 -14 m 428 614 q 204 444 240 614 l 613 444 l 613 454 q 582 536 608 500 q 515 593 556 572 q 428 614 475 614 m 428 818 q 281 876 339 818 q 203 1032 222 933 l 306 1049 q 355 963 324 994 q 428 931 386 931 q 501 963 469 931 q 550 1049 532 994 l 653 1032 q 575 876 633 933 q 428 818 517 818 z "},"ě":{"ha":814,"x_min":56,"x_max":761,"o":"m 440 -14 q 241 34 328 -14 q 105 165 154 82 q 56 357 56 249 q 103 559 56 472 q 235 695 151 646 q 428 746 319 744 q 598 699 522 744 q 717 574 674 653 q 758 392 761 494 l 757 331 l 199 331 q 280 174 211 232 q 454 117 349 117 q 555 135 508 117 q 656 200 601 153 l 728 99 q 597 17 676 49 q 440 -14 518 -14 m 428 614 q 204 444 240 614 l 613 444 l 613 454 q 582 536 608 500 q 515 593 556 572 q 428 614 475 614 m 368 843 l 222 1000 l 275 1046 l 428 957 l 581 1046 l 633 1000 l 488 843 l 368 843 z "},"ḝ":{"ha":814,"x_min":56,"x_max":761,"o":"m 440 -14 q 241 34 328 -14 q 105 165 154 82 q 56 357 56 249 q 103 559 56 472 q 235 695 151 646 q 428 746 319 744 q 598 699 522 744 q 717 574 674 653 q 758 392 761 494 l 757 331 l 199 331 q 280 174 211 232 q 454 117 349 117 q 555 135 508 117 q 656 200 601 153 l 728 99 q 597 17 676 49 q 440 -14 518 -14 m 428 614 q 204 444 240 614 l 613 444 l 613 454 q 582 536 608 500 q 515 593 556 572 q 428 614 475 614 m 313 -339 l 303 -265 q 372 -254 336 -265 q 433 -226 408 -243 q 458 -192 458 -208 q 435 -161 458 -172 q 382 -144 411 -150 q 333 -139 353 -139 l 315 -125 l 415 33 l 497 33 l 438 -64 q 576 -193 576 -93 q 535 -274 576 -240 q 433 -324 494 -307 q 313 -339 372 -340 m 428 818 q 281 876 339 818 q 203 1032 222 933 l 306 1049 q 355 963 324 994 q 428 931 386 931 q 501 963 469 931 q 550 1049 532 994 l 653 1032 q 575 876 633 933 q 428 818 517 818 z "},"ê":{"ha":814,"x_min":56,"x_max":761,"o":"m 440 -14 q 241 34 328 -14 q 105 165 154 82 q 56 357 56 249 q 103 559 56 472 q 235 695 151 646 q 428 746 319 744 q 598 699 522 744 q 717 574 674 653 q 758 392 761 494 l 757 331 l 199 331 q 280 174 211 232 q 454 117 349 117 q 555 135 508 117 q 656 200 601 153 l 728 99 q 597 17 676 49 q 440 -14 518 -14 m 428 614 q 204 444 240 614 l 613 444 l 613 454 q 582 536 608 500 q 515 593 556 572 q 428 614 475 614 m 261 843 l 208 889 l 368 1046 l 488 1046 l 647 889 l 594 843 l 428 933 l 261 843 z "},"ế":{"ha":814,"x_min":56,"x_max":822,"o":"m 440 -14 q 241 34 328 -14 q 105 165 154 82 q 56 357 56 249 q 103 559 56 472 q 235 695 151 646 q 428 746 319 744 q 598 699 522 744 q 717 574 674 653 q 758 392 761 494 l 757 331 l 199 331 q 280 174 211 232 q 454 117 349 117 q 555 135 508 117 q 656 200 601 153 l 728 99 q 597 17 676 49 q 440 -14 518 -14 m 428 614 q 204 444 240 614 l 613 444 l 613 454 q 582 536 608 500 q 515 593 556 572 q 428 614 475 614 m 660 1035 l 588 1085 l 701 1288 l 822 1201 l 660 1035 m 261 843 l 208 889 l 368 1046 l 488 1046 l 647 889 l 594 843 l 428 933 l 261 843 z "},"ệ":{"ha":814,"x_min":56,"x_max":761,"o":"m 440 -14 q 241 34 328 -14 q 105 165 154 82 q 56 357 56 249 q 103 559 56 472 q 235 695 151 646 q 428 746 319 744 q 598 699 522 744 q 717 574 674 653 q 758 392 761 494 l 757 331 l 199 331 q 280 174 211 232 q 454 117 349 117 q 555 135 508 117 q 656 200 601 153 l 728 99 q 597 17 676 49 q 440 -14 518 -14 m 428 614 q 204 444 240 614 l 613 444 l 613 454 q 582 536 608 500 q 515 593 556 572 q 428 614 475 614 m 440 -286 q 369 -262 394 -286 q 344 -196 344 -239 q 370 -131 344 -156 q 440 -106 396 -106 q 511 -129 486 -106 q 536 -196 536 -153 q 510 -261 536 -236 q 440 -286 485 -286 m 261 843 l 208 889 l 368 1046 l 488 1046 l 647 889 l 594 843 l 428 933 l 261 843 z "},"ề":{"ha":814,"x_min":56,"x_max":761,"o":"m 440 -14 q 241 34 328 -14 q 105 165 154 82 q 56 357 56 249 q 103 559 56 472 q 235 695 151 646 q 428 746 319 744 q 598 699 522 744 q 717 574 674 653 q 758 392 761 494 l 757 331 l 199 331 q 280 174 211 232 q 454 117 349 117 q 555 135 508 117 q 656 200 601 153 l 728 99 q 597 17 676 49 q 440 -14 518 -14 m 428 614 q 204 444 240 614 l 613 444 l 613 454 q 582 536 608 500 q 515 593 556 572 q 428 614 475 614 m 640 1032 l 472 1200 l 592 1288 l 707 1085 l 640 1032 m 261 843 l 208 889 l 368 1046 l 488 1046 l 647 889 l 594 843 l 428 933 l 261 843 z "},"ể":{"ha":814,"x_min":56,"x_max":794,"o":"m 440 -14 q 241 34 328 -14 q 105 165 154 82 q 56 357 56 249 q 103 559 56 472 q 235 695 151 646 q 428 746 319 744 q 598 699 522 744 q 717 574 674 653 q 758 392 761 494 l 757 331 l 199 331 q 280 174 211 232 q 454 117 349 117 q 555 135 508 117 q 656 200 601 153 l 728 99 q 597 17 676 49 q 440 -14 518 -14 m 428 614 q 204 444 240 614 l 613 444 l 613 454 q 582 536 608 500 q 515 593 556 572 q 428 614 475 614 m 628 1017 q 607 1069 607 1044 q 615 1097 607 1082 q 644 1128 622 1113 q 686 1169 686 1156 q 674 1188 686 1182 q 644 1193 663 1193 q 596 1188 622 1193 q 546 1168 569 1183 l 524 1256 q 586 1281 553 1272 q 647 1289 619 1289 q 758 1258 721 1289 q 794 1182 794 1226 q 778 1127 794 1147 q 743 1097 763 1107 q 706 1076 718 1085 q 694 1053 694 1067 q 699 1035 694 1043 l 628 1017 m 261 843 l 208 889 l 368 1046 l 488 1046 l 647 889 l 594 843 l 428 933 l 261 843 z "},"ễ":{"ha":814,"x_min":56,"x_max":761,"o":"m 440 -14 q 241 34 328 -14 q 105 165 154 82 q 56 357 56 249 q 103 559 56 472 q 235 695 151 646 q 428 746 319 744 q 598 699 522 744 q 717 574 674 653 q 758 392 761 494 l 757 331 l 199 331 q 280 174 211 232 q 454 117 349 117 q 555 135 508 117 q 656 200 601 153 l 728 99 q 597 17 676 49 q 440 -14 518 -14 m 428 614 q 204 444 240 614 l 613 444 l 613 454 q 582 536 608 500 q 515 593 556 572 q 428 614 475 614 m 532 1121 q 465 1134 492 1121 q 414 1157 439 1147 q 382 1171 397 1164 q 349 1178 367 1178 q 317 1164 331 1178 q 297 1126 303 1150 l 203 1140 q 244 1242 206 1199 q 335 1286 283 1286 q 392 1273 367 1286 q 442 1249 417 1260 q 476 1234 460 1240 q 506 1228 492 1228 q 557 1281 546 1228 l 651 1267 q 618 1165 649 1208 q 532 1121 588 1121 m 260 843 l 207 889 l 367 1046 l 486 1046 l 646 889 l 593 843 l 426 933 l 260 843 z "},"ȅ":{"ha":814,"x_min":53,"x_max":761,"o":"m 440 -14 q 241 34 328 -14 q 105 165 154 82 q 56 357 56 249 q 103 559 56 472 q 235 695 151 646 q 428 746 319 744 q 598 699 522 744 q 717 574 674 653 q 758 392 761 494 l 757 331 l 199 331 q 280 174 211 232 q 454 117 349 117 q 555 135 508 117 q 656 200 601 153 l 728 99 q 597 17 676 49 q 440 -14 518 -14 m 428 614 q 204 444 240 614 l 613 444 l 613 454 q 582 536 608 500 q 515 593 556 572 q 428 614 475 614 m 571 842 l 329 972 l 419 1086 l 618 913 l 571 842 m 294 842 l 53 972 l 143 1086 l 342 913 l 294 842 z "},"ë":{"ha":814,"x_min":56,"x_max":761,"o":"m 440 -14 q 241 34 328 -14 q 105 165 154 82 q 56 357 56 249 q 103 559 56 472 q 235 695 151 646 q 428 746 319 744 q 598 699 522 744 q 717 574 674 653 q 758 392 761 494 l 757 331 l 199 331 q 280 174 211 232 q 454 117 349 117 q 555 135 508 117 q 656 200 601 153 l 728 99 q 597 17 676 49 q 440 -14 518 -14 m 428 614 q 204 444 240 614 l 613 444 l 613 454 q 582 536 608 500 q 515 593 556 572 q 428 614 475 614 m 567 892 q 496 915 521 892 q 471 982 471 939 q 497 1047 471 1022 q 567 1072 522 1072 q 638 1049 613 1072 q 663 982 663 1025 q 637 917 663 942 q 567 892 611 892 m 289 892 q 218 915 243 892 q 193 982 193 939 q 219 1047 193 1022 q 289 1072 244 1072 q 360 1049 335 1072 q 385 982 385 1025 q 359 917 385 942 q 289 892 333 892 z "},"ė":{"ha":814,"x_min":56,"x_max":761,"o":"m 440 -14 q 241 34 328 -14 q 105 165 154 82 q 56 357 56 249 q 103 559 56 472 q 235 695 151 646 q 428 746 319 744 q 598 699 522 744 q 717 574 674 653 q 758 392 761 494 l 757 331 l 199 331 q 280 174 211 232 q 454 117 349 117 q 555 135 508 117 q 656 200 601 153 l 728 99 q 597 17 676 49 q 440 -14 518 -14 m 428 614 q 204 444 240 614 l 613 444 l 613 454 q 582 536 608 500 q 515 593 556 572 q 428 614 475 614 m 428 890 q 357 914 382 890 q 332 981 332 938 q 358 1046 332 1021 q 428 1071 383 1071 q 499 1047 474 1071 q 524 981 524 1024 q 498 915 524 940 q 428 890 472 890 z "},"ẹ":{"ha":814,"x_min":56,"x_max":761,"o":"m 440 -14 q 241 34 328 -14 q 105 165 154 82 q 56 357 56 249 q 103 559 56 472 q 235 695 151 646 q 428 746 319 744 q 598 699 522 744 q 717 574 674 653 q 758 392 761 494 l 757 331 l 199 331 q 280 174 211 232 q 454 117 349 117 q 555 135 508 117 q 656 200 601 153 l 728 99 q 597 17 676 49 q 440 -14 518 -14 m 428 614 q 204 444 240 614 l 613 444 l 613 454 q 582 536 608 500 q 515 593 556 572 q 428 614 475 614 m 440 -286 q 369 -262 394 -286 q 344 -196 344 -239 q 370 -131 344 -156 q 440 -106 396 -106 q 511 -129 486 -106 q 536 -196 536 -153 q 510 -261 536 -236 q 440 -286 485 -286 z "},"è":{"ha":814,"x_min":56,"x_max":761,"o":"m 440 -14 q 241 34 328 -14 q 105 165 154 82 q 56 357 56 249 q 103 559 56 472 q 235 695 151 646 q 428 746 319 744 q 598 699 522 744 q 717 574 674 653 q 758 392 761 494 l 757 331 l 199 331 q 280 174 211 232 q 454 117 349 117 q 555 135 508 117 q 656 200 601 153 l 728 99 q 597 17 676 49 q 440 -14 518 -14 m 428 614 q 204 444 240 614 l 613 444 l 613 454 q 582 536 608 500 q 515 593 556 572 q 428 614 475 614 m 497 842 l 256 972 l 346 1086 l 544 913 l 497 842 z "},"ẻ":{"ha":814,"x_min":56,"x_max":761,"o":"m 440 -14 q 241 34 328 -14 q 105 165 154 82 q 56 357 56 249 q 103 559 56 472 q 235 695 151 646 q 428 746 319 744 q 598 699 522 744 q 717 574 674 653 q 758 392 761 494 l 757 331 l 199 331 q 280 174 211 232 q 454 117 349 117 q 555 135 508 117 q 656 200 601 153 l 728 99 q 597 17 676 49 q 440 -14 518 -14 m 428 614 q 204 444 240 614 l 613 444 l 613 454 q 582 536 608 500 q 515 593 556 572 q 428 614 475 614 m 396 824 q 375 876 375 851 q 383 904 375 889 q 413 935 390 919 q 454 976 454 963 q 442 994 454 989 q 413 1000 431 1000 q 314 975 364 1000 l 292 1063 q 354 1088 321 1079 q 415 1096 388 1096 q 526 1065 489 1096 q 563 989 563 1033 q 547 934 563 954 q 511 904 531 914 q 474 883 486 892 q 463 860 463 874 q 467 842 463 850 l 396 824 z "},"ȇ":{"ha":814,"x_min":56,"x_max":761,"o":"m 440 -14 q 241 34 328 -14 q 105 165 154 82 q 56 357 56 249 q 103 559 56 472 q 235 695 151 646 q 428 746 319 744 q 598 699 522 744 q 717 574 674 653 q 758 392 761 494 l 757 331 l 199 331 q 280 174 211 232 q 454 117 349 117 q 555 135 508 117 q 656 200 601 153 l 728 99 q 597 17 676 49 q 440 -14 518 -14 m 428 614 q 204 444 240 614 l 613 444 l 613 454 q 582 536 608 500 q 515 593 556 572 q 428 614 475 614 m 306 832 l 203 849 q 281 1005 222 947 q 428 1063 339 1063 q 575 1005 517 1063 q 653 849 633 947 l 550 832 q 501 918 532 886 q 428 950 469 950 q 355 918 386 950 q 306 832 324 886 z "},"ē":{"ha":814,"x_min":56,"x_max":761,"o":"m 440 -14 q 241 34 328 -14 q 105 165 154 82 q 56 357 56 249 q 103 559 56 472 q 235 695 151 646 q 428 746 319 744 q 598 699 522 744 q 717 574 674 653 q 758 392 761 494 l 757 331 l 199 331 q 280 174 211 232 q 454 117 349 117 q 555 135 508 117 q 656 200 601 153 l 728 99 q 597 17 676 49 q 440 -14 518 -14 m 428 614 q 204 444 240 614 l 613 444 l 613 454 q 582 536 608 500 q 515 593 556 572 q 428 614 475 614 m 231 892 l 231 996 l 625 996 l 625 892 l 231 892 z "},"ḗ":{"ha":814,"x_min":56,"x_max":761,"o":"m 440 -14 q 241 34 328 -14 q 105 165 154 82 q 56 357 56 249 q 103 559 56 472 q 235 695 151 646 q 428 746 319 744 q 598 699 522 744 q 717 574 674 653 q 758 392 761 494 l 757 331 l 199 331 q 280 174 211 232 q 454 117 349 117 q 555 135 508 117 q 656 200 601 153 l 728 99 q 597 17 676 49 q 440 -14 518 -14 m 428 614 q 204 444 240 614 l 613 444 l 613 454 q 582 536 608 500 q 515 593 556 572 q 428 614 475 614 m 428 1038 l 356 1088 l 483 1283 l 590 1204 l 428 1038 m 231 878 l 231 982 l 625 982 l 625 878 l 231 878 z "},"ḕ":{"ha":814,"x_min":56,"x_max":761,"o":"m 440 -14 q 241 34 328 -14 q 105 165 154 82 q 56 357 56 249 q 103 559 56 472 q 235 695 151 646 q 428 746 319 744 q 598 699 522 744 q 717 574 674 653 q 758 392 761 494 l 757 331 l 199 331 q 280 174 211 232 q 454 117 349 117 q 555 135 508 117 q 656 200 601 153 l 728 99 q 597 17 676 49 q 440 -14 518 -14 m 428 614 q 204 444 240 614 l 613 444 l 613 454 q 582 536 608 500 q 515 593 556 572 q 428 614 475 614 m 449 1038 l 286 1204 l 393 1283 l 521 1088 l 449 1038 m 231 878 l 231 982 l 625 982 l 625 878 l 231 878 z "},"ę":{"ha":814,"x_min":56,"x_max":761,"o":"m 440 -14 q 241 34 328 -14 q 105 165 154 82 q 56 357 56 249 q 103 559 56 472 q 235 695 151 646 q 428 746 319 744 q 598 699 522 744 q 717 574 674 653 q 758 392 761 494 l 757 331 l 199 331 q 280 174 211 232 q 454 117 349 117 q 555 135 508 117 q 656 200 601 153 l 728 99 q 636 35 690 63 q 544 -40 575 -4 q 514 -112 514 -75 q 529 -155 514 -139 q 568 -171 544 -171 q 599 -162 588 -171 q 624 -136 611 -153 l 701 -192 q 641 -252 683 -226 q 544 -278 599 -278 q 428 -237 469 -278 q 388 -140 388 -196 q 401 -71 388 -101 q 440 -14 415 -40 l 440 -14 m 428 614 q 204 444 240 614 l 613 444 l 613 454 q 582 536 608 500 q 515 593 556 572 q 428 614 475 614 z "},"ẽ":{"ha":814,"x_min":56,"x_max":761,"o":"m 440 -14 q 241 34 328 -14 q 105 165 154 82 q 56 357 56 249 q 103 559 56 472 q 235 695 151 646 q 428 746 319 744 q 598 699 522 744 q 717 574 674 653 q 758 392 761 494 l 757 331 l 199 331 q 280 174 211 232 q 454 117 349 117 q 555 135 508 117 q 656 200 601 153 l 728 99 q 597 17 676 49 q 440 -14 518 -14 m 428 614 q 204 444 240 614 l 613 444 l 613 454 q 582 536 608 500 q 515 593 556 572 q 428 614 475 614 m 499 854 q 452 865 471 854 q 413 893 433 876 q 373 926 386 917 q 349 935 360 935 q 297 854 308 935 l 203 868 q 247 986 206 936 q 356 1036 288 1036 q 402 1025 383 1036 q 442 997 421 1014 q 482 965 469 975 q 506 956 494 956 q 557 1036 546 956 l 651 1022 q 608 904 649 954 q 499 854 567 854 z "},"ə":{"ha":814,"x_min":56,"x_max":758,"o":"m 386 -17 q 217 31 292 -15 q 99 156 142 76 q 56 338 56 236 l 57 399 l 615 399 q 534 555 603 497 q 360 613 465 613 q 259 594 306 613 q 158 529 213 576 l 86 631 q 217 711 138 679 q 374 743 297 743 q 574 696 488 743 q 709 565 660 649 q 758 372 758 481 q 710 171 758 258 q 578 34 663 83 q 386 -17 494 -15 m 201 275 q 262 161 208 207 q 386 115 315 115 q 610 285 574 115 l 201 285 l 201 275 z "},"f":{"ha":546,"x_min":63,"x_max":542,"o":"m 179 0 l 179 585 l 63 585 l 63 717 l 179 717 l 179 811 q 240 966 179 906 q 396 1026 300 1026 q 479 1010 440 1026 q 542 965 518 993 l 493 856 q 453 883 475 872 q 413 893 432 893 q 324 811 324 893 l 324 717 l 496 717 l 496 585 l 324 585 l 324 0 l 179 0 z "},"g":{"ha":901,"x_min":56,"x_max":801,"o":"m 426 -319 q 272 -295 349 -319 q 147 -232 194 -271 l 200 -121 q 303 -172 242 -153 q 426 -192 365 -192 q 658 28 658 -192 l 658 115 q 601 51 639 81 q 515 4 563 22 q 417 -14 467 -14 q 231 35 313 -14 q 103 170 150 85 q 56 365 56 256 q 102 560 56 475 q 230 695 149 646 q 413 744 311 744 q 556 710 489 744 q 658 631 622 675 l 658 729 l 801 729 l 801 44 q 701 -224 801 -129 q 426 -319 601 -319 m 432 118 q 553 150 500 118 q 635 238 606 182 q 664 365 664 293 q 634 494 664 438 q 552 582 604 550 q 432 614 500 614 q 313 581 365 614 q 231 492 261 549 q 201 365 201 436 q 231 238 201 294 q 313 150 261 182 q 432 118 365 118 z "},"ğ":{"ha":901,"x_min":56,"x_max":801,"o":"m 426 -319 q 272 -295 349 -319 q 147 -232 194 -271 l 200 -121 q 303 -172 242 -153 q 426 -192 365 -192 q 658 28 658 -192 l 658 115 q 601 51 639 81 q 515 4 563 22 q 417 -14 467 -14 q 231 35 313 -14 q 103 170 150 85 q 56 365 56 256 q 102 560 56 475 q 230 695 149 646 q 413 744 311 744 q 556 710 489 744 q 658 631 622 675 l 658 729 l 801 729 l 801 44 q 701 -224 801 -129 q 426 -319 601 -319 m 432 118 q 553 150 500 118 q 635 238 606 182 q 664 365 664 293 q 634 494 664 438 q 552 582 604 550 q 432 614 500 614 q 313 581 365 614 q 231 492 261 549 q 201 365 201 436 q 231 238 201 294 q 313 150 261 182 q 432 118 365 118 m 451 818 q 304 876 363 818 q 226 1032 246 933 l 329 1049 q 378 963 347 994 q 451 931 410 931 q 524 963 493 931 q 574 1049 556 994 l 676 1032 q 599 876 657 933 q 451 818 540 818 z "},"ǧ":{"ha":901,"x_min":56,"x_max":801,"o":"m 426 -319 q 272 -295 349 -319 q 147 -232 194 -271 l 200 -121 q 303 -172 242 -153 q 426 -192 365 -192 q 658 28 658 -192 l 658 115 q 601 51 639 81 q 515 4 563 22 q 417 -14 467 -14 q 231 35 313 -14 q 103 170 150 85 q 56 365 56 256 q 102 560 56 475 q 230 695 149 646 q 413 744 311 744 q 556 710 489 744 q 658 631 622 675 l 658 729 l 801 729 l 801 44 q 701 -224 801 -129 q 426 -319 601 -319 m 432 118 q 553 150 500 118 q 635 238 606 182 q 664 365 664 293 q 634 494 664 438 q 552 582 604 550 q 432 614 500 614 q 313 581 365 614 q 231 492 261 549 q 201 365 201 436 q 231 238 201 294 q 313 150 261 182 q 432 118 365 118 m 392 843 l 246 1000 l 299 1046 l 451 957 l 604 1046 l 657 1000 l 511 843 l 392 843 z "},"ĝ":{"ha":901,"x_min":56,"x_max":801,"o":"m 426 -319 q 272 -295 349 -319 q 147 -232 194 -271 l 200 -121 q 303 -172 242 -153 q 426 -192 365 -192 q 658 28 658 -192 l 658 115 q 601 51 639 81 q 515 4 563 22 q 417 -14 467 -14 q 231 35 313 -14 q 103 170 150 85 q 56 365 56 256 q 102 560 56 475 q 230 695 149 646 q 413 744 311 744 q 556 710 489 744 q 658 631 622 675 l 658 729 l 801 729 l 801 44 q 701 -224 801 -129 q 426 -319 601 -319 m 432 118 q 553 150 500 118 q 635 238 606 182 q 664 365 664 293 q 634 494 664 438 q 552 582 604 550 q 432 614 500 614 q 313 581 365 614 q 231 492 261 549 q 201 365 201 436 q 231 238 201 294 q 313 150 261 182 q 432 118 365 118 m 285 843 l 232 889 l 392 1046 l 511 1046 l 671 889 l 618 843 l 451 933 l 285 843 z "},"ģ":{"ha":901,"x_min":56,"x_max":801,"o":"m 426 -319 q 272 -295 349 -319 q 147 -232 194 -271 l 200 -121 q 303 -172 242 -153 q 426 -192 365 -192 q 658 28 658 -192 l 658 115 q 601 51 639 81 q 515 4 563 22 q 417 -14 467 -14 q 231 35 313 -14 q 103 170 150 85 q 56 365 56 256 q 102 560 56 475 q 230 695 149 646 q 413 744 311 744 q 556 710 489 744 q 658 631 622 675 l 658 729 l 801 729 l 801 44 q 701 -224 801 -129 q 426 -319 601 -319 m 432 118 q 553 150 500 118 q 635 238 606 182 q 664 365 664 293 q 634 494 664 438 q 552 582 604 550 q 432 614 500 614 q 313 581 365 614 q 231 492 261 549 q 201 365 201 436 q 231 238 201 294 q 313 150 261 182 q 432 118 365 118 m 457 842 q 384 867 419 842 q 349 949 349 893 q 368 1013 349 985 q 416 1063 388 1042 q 474 1097 444 1083 q 521 1117 503 1111 l 554 1058 q 503 1031 528 1053 q 479 986 479 1008 q 488 968 479 972 q 508 961 497 964 q 535 948 522 957 q 547 910 547 939 q 521 859 547 876 q 457 842 494 842 z "},"ġ":{"ha":901,"x_min":56,"x_max":801,"o":"m 426 -319 q 272 -295 349 -319 q 147 -232 194 -271 l 200 -121 q 303 -172 242 -153 q 426 -192 365 -192 q 658 28 658 -192 l 658 115 q 601 51 639 81 q 515 4 563 22 q 417 -14 467 -14 q 231 35 313 -14 q 103 170 150 85 q 56 365 56 256 q 102 560 56 475 q 230 695 149 646 q 413 744 311 744 q 556 710 489 744 q 658 631 622 675 l 658 729 l 801 729 l 801 44 q 701 -224 801 -129 q 426 -319 601 -319 m 432 118 q 553 150 500 118 q 635 238 606 182 q 664 365 664 293 q 634 494 664 438 q 552 582 604 550 q 432 614 500 614 q 313 581 365 614 q 231 492 261 549 q 201 365 201 436 q 231 238 201 294 q 313 150 261 182 q 432 118 365 118 m 451 890 q 381 914 406 890 q 356 981 356 938 q 381 1046 356 1021 q 451 1071 407 1071 q 522 1047 497 1071 q 547 981 547 1024 q 522 915 547 940 q 451 890 496 890 z "},"ḡ":{"ha":901,"x_min":56,"x_max":801,"o":"m 426 -319 q 272 -295 349 -319 q 147 -232 194 -271 l 200 -121 q 303 -172 242 -153 q 426 -192 365 -192 q 658 28 658 -192 l 658 115 q 601 51 639 81 q 515 4 563 22 q 417 -14 467 -14 q 231 35 313 -14 q 103 170 150 85 q 56 365 56 256 q 102 560 56 475 q 230 695 149 646 q 413 744 311 744 q 556 710 489 744 q 658 631 622 675 l 658 729 l 801 729 l 801 44 q 701 -224 801 -129 q 426 -319 601 -319 m 432 118 q 553 150 500 118 q 635 238 606 182 q 664 365 664 293 q 634 494 664 438 q 552 582 604 550 q 432 614 500 614 q 313 581 365 614 q 231 492 261 549 q 201 365 201 436 q 231 238 201 294 q 313 150 261 182 q 432 118 365 118 m 254 892 l 254 996 l 649 996 l 649 892 l 254 892 z "},"h":{"ha":826,"x_min":100,"x_max":732,"o":"m 100 0 l 100 1028 l 243 1028 l 243 615 q 345 707 279 669 q 482 744 411 744 q 732 444 732 744 l 732 0 l 589 0 l 589 435 q 435 614 589 622 q 337 591 381 614 q 268 529 293 568 q 243 442 243 490 l 243 0 l 100 0 z "},"ħ":{"ha":826,"x_min":17,"x_max":732,"o":"m 100 0 l 100 824 l 17 824 l 17 949 l 100 949 l 100 1028 l 243 1028 l 243 949 l 389 949 l 389 824 l 243 824 l 243 615 q 345 707 279 669 q 482 744 411 744 q 732 444 732 744 l 732 0 l 589 0 l 589 435 q 435 614 589 622 q 337 591 381 614 q 268 529 293 568 q 243 442 243 490 l 243 0 l 100 0 z "},"ḫ":{"ha":826,"x_min":100,"x_max":732,"o":"m 100 0 l 100 1028 l 243 1028 l 243 615 q 345 707 279 669 q 482 744 411 744 q 732 444 732 744 l 732 0 l 589 0 l 589 435 q 435 614 589 622 q 337 591 381 614 q 268 529 293 568 q 243 442 243 490 l 243 0 l 100 0 m 414 -325 q 269 -267 329 -325 q 189 -111 208 -210 l 292 -94 q 343 -181 310 -149 q 414 -212 376 -212 q 485 -181 451 -212 q 536 -94 518 -149 l 639 -111 q 559 -267 619 -210 q 414 -325 499 -325 z "},"ĥ":{"ha":826,"x_min":100,"x_max":732,"o":"m 100 0 l 100 1028 l 243 1028 l 243 615 q 345 707 279 669 q 482 744 411 744 q 732 444 732 744 l 732 0 l 589 0 l 589 435 q 435 614 589 622 q 337 591 381 614 q 268 529 293 568 q 243 442 243 490 l 243 0 l 100 0 m 242 1104 l 190 1153 l 363 1293 l 464 1293 l 636 1153 l 585 1104 l 414 1185 l 242 1104 z "},"ḥ":{"ha":826,"x_min":100,"x_max":732,"o":"m 100 0 l 100 1028 l 243 1028 l 243 615 q 345 707 279 669 q 482 744 411 744 q 732 444 732 744 l 732 0 l 589 0 l 589 435 q 435 614 589 622 q 337 591 381 614 q 268 529 293 568 q 243 442 243 490 l 243 0 l 100 0 m 414 -286 q 343 -262 368 -286 q 318 -196 318 -239 q 344 -131 318 -156 q 414 -106 369 -106 q 485 -129 460 -106 q 510 -196 510 -153 q 484 -261 510 -236 q 414 -286 458 -286 z "},"i":{"ha":386,"x_min":100,"x_max":292,"o":"m 196 890 q 125 914 150 890 q 100 981 100 938 q 126 1046 100 1021 q 196 1071 151 1071 q 267 1047 242 1071 q 292 981 292 1024 q 266 915 292 940 q 196 890 240 890 m 126 0 l 126 729 l 269 729 l 269 0 l 126 0 z "},"ı":{"ha":338,"x_min":100,"x_max":243,"o":"m 100 0 l 100 729 l 243 729 l 243 0 l 100 0 z "},"í":{"ha":338,"x_min":25,"x_max":314,"o":"m 100 0 l 100 729 l 243 729 l 243 0 l 100 0 m 72 842 l 25 913 l 224 1086 l 314 972 l 72 842 z "},"ĭ":{"ha":338,"x_min":-56,"x_max":394,"o":"m 100 0 l 100 729 l 243 729 l 243 0 l 100 0 m 169 818 q 22 876 81 818 q -56 1032 -36 933 l 47 1049 q 97 963 65 994 q 169 931 128 931 q 242 963 211 931 q 292 1049 274 994 l 394 1032 q 317 876 375 933 q 169 818 258 818 z "},"ǐ":{"ha":338,"x_min":-36,"x_max":375,"o":"m 100 0 l 100 729 l 243 729 l 243 0 l 100 0 m 110 843 l -36 1000 l 17 1046 l 169 957 l 322 1046 l 375 1000 l 229 843 l 110 843 z "},"î":{"ha":338,"x_min":-50,"x_max":389,"o":"m 100 0 l 100 729 l 243 729 l 243 0 l 100 0 m 3 843 l -50 889 l 110 1046 l 229 1046 l 389 889 l 336 843 l 169 933 l 3 843 z "},"ȉ":{"ha":338,"x_min":-206,"x_max":360,"o":"m 100 0 l 100 729 l 243 729 l 243 0 l 100 0 m 313 842 l 71 972 l 161 1086 l 360 913 l 313 842 m 36 842 l -206 972 l -115 1086 l 83 913 l 36 842 z "},"ï":{"ha":338,"x_min":-65,"x_max":404,"o":"m 100 0 l 100 729 l 243 729 l 243 0 l 100 0 m 308 892 q 238 915 263 892 q 213 982 213 939 q 238 1047 213 1022 q 308 1072 264 1072 q 379 1049 354 1072 q 404 982 404 1025 q 378 917 404 942 q 308 892 353 892 m 31 892 q -40 915 -15 892 q -65 982 -65 939 q -40 1047 -65 1022 q 31 1072 -14 1072 q 101 1049 76 1072 q 126 982 126 1025 q 101 917 126 942 q 31 892 75 892 z "},"ḯ":{"ha":338,"x_min":-64,"x_max":406,"o":"m 100 0 l 100 729 l 243 729 l 243 0 l 100 0 m 182 1085 l 110 1135 l 224 1338 l 344 1251 l 182 1085 m 32 882 q -39 906 -14 882 q -64 972 -64 929 q -38 1038 -64 1013 q 32 1063 -12 1063 q 103 1039 78 1063 q 128 972 128 1015 q 102 907 128 932 q 32 882 76 882 m 310 882 q 239 906 264 882 q 214 972 214 929 q 240 1038 214 1013 q 310 1063 265 1063 q 381 1039 356 1063 q 406 972 406 1015 q 380 907 406 932 q 310 882 354 882 z "},"ị":{"ha":386,"x_min":100,"x_max":292,"o":"m 196 890 q 125 914 150 890 q 100 981 100 938 q 126 1046 100 1021 q 196 1071 151 1071 q 267 1047 242 1071 q 292 981 292 1024 q 266 915 292 940 q 196 890 240 890 m 126 0 l 126 729 l 269 729 l 269 0 l 126 0 m 196 -286 q 125 -262 150 -286 q 100 -196 100 -239 q 126 -131 100 -156 q 196 -106 151 -106 q 267 -129 242 -106 q 292 -196 292 -153 q 266 -261 292 -236 q 196 -286 240 -286 z "},"ì":{"ha":338,"x_min":-3,"x_max":286,"o":"m 100 0 l 100 729 l 243 729 l 243 0 l 100 0 m 239 842 l -3 972 l 88 1086 l 286 913 l 239 842 z "},"ỉ":{"ha":338,"x_min":33,"x_max":304,"o":"m 100 0 l 100 729 l 243 729 l 243 0 l 100 0 m 138 824 q 117 876 117 851 q 124 904 117 889 q 154 935 132 919 q 196 976 196 963 q 184 994 196 989 q 154 1000 172 1000 q 56 975 106 1000 l 33 1063 q 96 1088 63 1079 q 157 1096 129 1096 q 267 1065 231 1096 q 304 989 304 1033 q 288 934 304 954 q 253 904 272 914 q 216 883 228 892 q 204 860 204 874 q 208 842 204 850 l 138 824 z "},"ȋ":{"ha":338,"x_min":-56,"x_max":394,"o":"m 100 0 l 100 729 l 243 729 l 243 0 l 100 0 m 47 832 l -56 849 q 22 1005 -36 947 q 169 1063 81 1063 q 317 1005 258 1063 q 394 849 375 947 l 292 832 q 242 918 274 886 q 169 950 211 950 q 97 918 128 950 q 47 832 65 886 z "},"ĳ":{"ha":754,"x_min":100,"x_max":676,"o":"m 196 890 q 125 914 150 890 q 100 981 100 938 q 126 1046 100 1021 q 196 1071 151 1071 q 267 1047 242 1071 q 292 981 292 1024 q 266 915 292 940 q 196 890 240 890 m 126 0 l 126 729 l 269 729 l 269 0 l 126 0 m 581 890 q 510 914 535 890 q 485 981 485 938 q 510 1046 485 1021 q 581 1071 536 1071 q 651 1047 626 1071 q 676 981 676 1024 q 651 915 676 940 q 581 890 625 890 m 399 -274 l 344 -164 q 506 1 506 -164 l 506 729 l 649 729 l 649 -33 q 579 -207 649 -140 q 399 -274 510 -274 z "},"ī":{"ha":338,"x_min":-28,"x_max":367,"o":"m 100 0 l 100 729 l 243 729 l 243 0 l 100 0 m -28 892 l -28 996 l 367 996 l 367 892 l -28 892 z "},"į":{"ha":338,"x_min":-33,"x_max":269,"o":"m 100 0 l 100 729 l 243 729 l 243 0 l 100 0 m 169 890 q 99 914 124 890 q 74 981 74 938 q 99 1046 74 1021 q 169 1071 125 1071 q 240 1047 215 1071 q 265 981 265 1024 q 240 915 265 940 q 169 890 214 890 m 118 -278 q 43 -258 78 -278 q -12 -206 8 -239 q -33 -135 -33 -174 q 26 -19 -33 -65 q 197 57 86 26 l 243 0 q 138 -49 182 -14 q 93 -121 93 -83 q 106 -157 93 -143 q 140 -171 119 -171 q 192 -136 168 -171 l 269 -192 q 217 -252 256 -226 q 118 -278 178 -278 z "},"ĩ":{"ha":338,"x_min":-56,"x_max":393,"o":"m 100 0 l 100 729 l 243 729 l 243 0 l 100 0 m 240 854 q 194 865 213 854 q 154 893 175 876 q 115 926 128 917 q 90 935 101 935 q 39 854 50 935 l -56 868 q -12 986 -53 936 q 97 1036 29 1036 q 144 1025 125 1036 q 183 997 163 1014 q 224 965 211 975 q 247 956 236 956 q 299 1036 288 956 l 393 1022 q 349 904 390 954 q 240 854 308 854 z "},"j":{"ha":368,"x_min":-42,"x_max":290,"o":"m 194 890 q 124 914 149 890 q 99 981 99 938 q 124 1046 99 1021 q 194 1071 150 1071 q 265 1047 240 1071 q 290 981 290 1024 q 265 915 290 940 q 194 890 239 890 m 13 -274 l -42 -164 q 119 1 119 -164 l 119 729 l 263 729 l 263 -33 q 193 -207 263 -140 q 13 -274 124 -274 z "},"ȷ":{"ha":365,"x_min":-43,"x_max":261,"o":"m 11 -274 l -43 -164 q 118 1 118 -164 l 118 729 l 261 729 l 261 -33 q 229 -158 261 -104 q 141 -243 197 -212 q 11 -274 85 -274 z "},"ĵ":{"ha":365,"x_min":-43,"x_max":411,"o":"m 11 -274 l -43 -164 q 118 1 118 -164 l 118 729 l 261 729 l 261 -33 q 229 -158 261 -104 q 141 -243 197 -212 q 11 -274 85 -274 m 25 843 l -28 889 l 132 1046 l 251 1046 l 411 889 l 358 843 l 192 933 l 25 843 z "},"k":{"ha":792,"x_min":103,"x_max":778,"o":"m 103 0 l 103 1028 l 246 1028 l 246 403 l 575 729 l 768 729 l 426 408 l 778 0 l 594 0 l 325 314 l 246 239 l 246 0 l 103 0 z "},"ķ":{"ha":792,"x_min":103,"x_max":778,"o":"m 103 0 l 103 1028 l 246 1028 l 246 403 l 575 729 l 768 729 l 426 408 l 778 0 l 594 0 l 325 314 l 246 239 l 246 0 l 103 0 m 326 -336 l 293 -278 q 345 -249 322 -271 q 368 -206 368 -226 q 363 -192 368 -197 q 342 -182 358 -186 q 308 -162 317 -175 q 300 -129 300 -150 q 325 -80 300 -99 q 390 -61 350 -61 q 467 -90 436 -61 q 499 -168 499 -119 q 451 -265 499 -221 q 326 -336 404 -310 z "},"ĸ":{"ha":772,"x_min":103,"x_max":742,"o":"m 103 0 l 103 729 l 238 729 l 238 376 l 567 729 l 735 729 l 422 413 l 742 -1 l 571 0 l 338 328 l 238 226 l 238 0 l 103 0 z "},"l":{"ha":349,"x_min":103,"x_max":246,"o":"m 103 0 l 103 1028 l 246 1028 l 246 0 l 103 0 z "},"ĺ":{"ha":349,"x_min":42,"x_max":361,"o":"m 103 0 l 103 1028 l 246 1028 l 246 0 l 103 0 m 81 1104 l 42 1176 l 296 1333 l 361 1208 l 81 1104 z "},"ľ":{"ha":376,"x_min":103,"x_max":528,"o":"m 103 0 l 103 1028 l 246 1028 l 246 0 l 103 0 m 356 753 l 322 811 q 374 840 351 818 q 397 883 397 863 q 392 897 397 892 q 371 907 388 903 q 338 926 346 914 q 329 960 329 939 q 354 1009 329 990 q 419 1028 379 1028 q 497 999 465 1028 q 528 921 528 969 q 481 824 528 868 q 356 753 433 779 z "},"ļ":{"ha":349,"x_min":72,"x_max":278,"o":"m 103 0 l 103 1028 l 246 1028 l 246 0 l 103 0 m 106 -336 l 72 -278 q 124 -249 101 -271 q 147 -206 147 -226 q 142 -192 147 -197 q 121 -182 138 -186 q 88 -162 96 -175 q 79 -129 79 -150 q 104 -80 79 -99 q 169 -61 129 -61 q 247 -90 215 -61 q 278 -168 278 -119 q 231 -265 278 -221 q 106 -336 183 -310 z "},"ŀ":{"ha":488,"x_min":103,"x_max":518,"o":"m 103 0 l 103 1028 l 246 1028 l 246 0 l 103 0 m 422 415 q 351 442 376 415 q 326 519 326 469 q 353 594 326 565 q 422 624 379 624 q 493 597 468 624 q 518 519 518 569 q 492 444 518 474 q 422 415 465 415 z "},"ḷ":{"ha":349,"x_min":79,"x_max":271,"o":"m 103 0 l 103 1028 l 246 1028 l 246 0 l 103 0 m 175 -286 q 104 -262 129 -286 q 79 -196 79 -239 q 105 -131 79 -156 q 175 -106 131 -106 q 246 -129 221 -106 q 271 -196 271 -153 q 245 -261 271 -236 q 175 -286 219 -286 z "},"ǉ":{"ha":697,"x_min":103,"x_max":619,"o":"m 103 0 l 103 1028 l 246 1028 l 246 0 l 103 0 m 524 890 q 453 914 478 890 q 428 981 428 938 q 453 1046 428 1021 q 524 1071 479 1071 q 594 1047 569 1071 q 619 981 619 1024 q 594 915 619 940 q 524 890 568 890 m 342 -274 l 288 -164 q 449 1 449 -164 l 449 729 l 592 729 l 592 -33 q 522 -207 592 -140 q 342 -274 453 -274 z "},"ḻ":{"ha":349,"x_min":-21,"x_max":369,"o":"m 103 0 l 103 1028 l 246 1028 l 246 0 l 103 0 m -21 -247 l -21 -144 l 369 -144 l 369 -247 l -21 -247 z "},"ł":{"ha":351,"x_min":-4,"x_max":356,"o":"m 100 0 l 100 432 l 43 406 l -4 513 l 100 558 l 100 1028 l 243 1028 l 243 622 l 306 650 l 356 547 l 243 496 l 243 0 l 100 0 z "},"m":{"ha":1279,"x_min":97,"x_max":1188,"o":"m 97 0 l 97 729 l 242 729 l 242 614 q 339 704 276 667 q 471 742 401 742 q 693 589 642 742 q 755 665 714 631 q 845 721 796 700 q 944 742 894 742 q 1188 438 1188 742 l 1188 0 l 1043 0 l 1043 429 q 1008 566 1043 522 q 897 610 972 610 q 765 560 818 610 q 713 436 713 510 l 713 0 l 568 0 l 568 432 q 531 564 568 518 q 425 610 494 610 q 332 587 374 610 q 266 526 290 564 q 242 439 242 488 l 242 0 l 97 0 z "},"ṃ":{"ha":1279,"x_min":97,"x_max":1188,"o":"m 97 0 l 97 729 l 242 729 l 242 614 q 339 704 276 667 q 471 742 401 742 q 693 589 642 742 q 755 665 714 631 q 845 721 796 700 q 944 742 894 742 q 1188 438 1188 742 l 1188 0 l 1043 0 l 1043 429 q 1008 566 1043 522 q 897 610 972 610 q 765 560 818 610 q 713 436 713 510 l 713 0 l 568 0 l 568 432 q 531 564 568 518 q 425 610 494 610 q 332 587 374 610 q 266 526 290 564 q 242 439 242 488 l 242 0 l 97 0 m 640 -286 q 569 -262 594 -286 q 544 -196 544 -239 q 570 -131 544 -156 q 640 -106 596 -106 q 711 -129 686 -106 q 736 -196 736 -153 q 710 -261 736 -236 q 640 -286 685 -286 z "},"n":{"ha":826,"x_min":100,"x_max":732,"o":"m 100 0 l 100 729 l 243 729 l 243 615 q 345 707 279 669 q 482 744 411 744 q 732 444 732 744 l 732 0 l 589 0 l 589 435 q 435 614 589 622 q 337 591 381 614 q 268 529 293 568 q 243 442 243 490 l 243 0 l 100 0 z "},"ń":{"ha":826,"x_min":100,"x_max":732,"o":"m 100 0 l 100 729 l 243 729 l 243 615 q 345 707 279 669 q 482 744 411 744 q 732 444 732 744 l 732 0 l 589 0 l 589 435 q 435 614 589 622 q 337 591 381 614 q 268 529 293 568 q 243 442 243 490 l 243 0 l 100 0 m 358 842 l 311 913 l 510 1086 l 600 972 l 358 842 z "},"ŉ":{"ha":883,"x_min":-78,"x_max":789,"o":"m -78 614 l -46 972 l 118 972 l 6 614 l -78 614 m 157 0 l 157 729 l 300 729 l 300 615 q 402 707 336 669 q 539 744 468 744 q 789 444 789 744 l 789 0 l 646 0 l 646 435 q 492 614 646 622 q 394 591 438 614 q 325 529 350 568 q 300 442 300 490 l 300 0 l 157 0 z "},"ň":{"ha":826,"x_min":100,"x_max":732,"o":"m 100 0 l 100 729 l 243 729 l 243 615 q 345 707 279 669 q 482 744 411 744 q 732 444 732 744 l 732 0 l 589 0 l 589 435 q 435 614 589 622 q 337 591 381 614 q 268 529 293 568 q 243 442 243 490 l 243 0 l 100 0 m 396 843 l 250 1000 l 303 1046 l 456 957 l 608 1046 l 661 1000 l 515 843 l 396 843 z "},"ņ":{"ha":826,"x_min":100,"x_max":732,"o":"m 100 0 l 100 729 l 243 729 l 243 615 q 345 707 279 669 q 482 744 411 744 q 732 444 732 744 l 732 0 l 589 0 l 589 435 q 435 614 589 622 q 337 591 381 614 q 268 529 293 568 q 243 442 243 490 l 243 0 l 100 0 m 344 -336 l 311 -278 q 363 -249 340 -271 q 386 -206 386 -226 q 381 -192 386 -197 q 360 -182 376 -186 q 326 -162 335 -175 q 318 -129 318 -150 q 343 -80 318 -99 q 408 -61 368 -61 q 485 -90 454 -61 q 517 -168 517 -119 q 469 -265 517 -221 q 344 -336 422 -310 z "},"ṅ":{"ha":826,"x_min":100,"x_max":732,"o":"m 100 0 l 100 729 l 243 729 l 243 615 q 345 707 279 669 q 482 744 411 744 q 732 444 732 744 l 732 0 l 589 0 l 589 435 q 435 614 589 622 q 337 591 381 614 q 268 529 293 568 q 243 442 243 490 l 243 0 l 100 0 m 456 890 q 385 914 410 890 q 360 981 360 938 q 385 1046 360 1021 q 456 1071 411 1071 q 526 1047 501 1071 q 551 981 551 1024 q 526 915 551 940 q 456 890 500 890 z "},"ṇ":{"ha":826,"x_min":100,"x_max":732,"o":"m 100 0 l 100 729 l 243 729 l 243 615 q 345 707 279 669 q 482 744 411 744 q 732 444 732 744 l 732 0 l 589 0 l 589 435 q 435 614 589 622 q 337 591 381 614 q 268 529 293 568 q 243 442 243 490 l 243 0 l 100 0 m 414 -286 q 343 -262 368 -286 q 318 -196 318 -239 q 344 -131 318 -156 q 414 -106 369 -106 q 485 -129 460 -106 q 510 -196 510 -153 q 484 -261 510 -236 q 414 -286 458 -286 z "},"ŋ":{"ha":826,"x_min":100,"x_max":732,"o":"m 482 -274 l 428 -164 q 589 0 586 -164 l 589 435 q 435 614 589 622 q 337 591 381 614 q 268 529 293 568 q 243 442 243 490 l 243 0 l 100 0 l 100 729 l 243 729 l 243 615 q 345 707 279 669 q 482 744 411 744 q 732 444 732 744 l 732 -33 q 700 -158 732 -104 q 612 -243 668 -212 q 482 -274 556 -274 z "},"ɲ":{"ha":846,"x_min":-42,"x_max":751,"o":"m 13 -274 l -42 -164 q 119 1 119 -164 l 119 729 l 263 729 l 263 615 q 365 708 299 671 q 501 744 431 744 q 751 444 751 744 l 751 0 l 608 0 l 608 435 q 454 614 608 622 q 356 591 400 614 q 288 529 313 568 q 263 442 263 490 l 263 -33 q 193 -207 263 -140 q 13 -274 124 -274 z "},"ǌ":{"ha":1194,"x_min":100,"x_max":1117,"o":"m 100 0 l 100 729 l 243 729 l 243 615 q 345 707 279 669 q 482 744 411 744 q 732 444 732 744 l 732 0 l 589 0 l 589 435 q 435 614 589 622 q 337 591 381 614 q 268 529 293 568 q 243 442 243 490 l 243 0 l 100 0 m 1021 890 q 950 914 975 890 q 925 981 925 938 q 951 1046 925 1021 q 1021 1071 976 1071 q 1092 1047 1067 1071 q 1117 981 1117 1024 q 1091 915 1117 940 q 1021 890 1065 890 m 839 -274 l 785 -164 q 946 1 946 -164 l 946 729 l 1089 729 l 1089 -33 q 1019 -207 1089 -140 q 839 -274 950 -274 z "},"ṉ":{"ha":826,"x_min":100,"x_max":732,"o":"m 100 0 l 100 729 l 243 729 l 243 615 q 345 707 279 669 q 482 744 411 744 q 732 444 732 744 l 732 0 l 589 0 l 589 435 q 435 614 589 622 q 337 591 381 614 q 268 529 293 568 q 243 442 243 490 l 243 0 l 100 0 m 218 -247 l 218 -144 l 608 -144 l 608 -247 l 218 -247 z "},"ñ":{"ha":826,"x_min":100,"x_max":732,"o":"m 100 0 l 100 729 l 243 729 l 243 615 q 345 707 279 669 q 482 744 411 744 q 732 444 732 744 l 732 0 l 589 0 l 589 435 q 435 614 589 622 q 337 591 381 614 q 268 529 293 568 q 243 442 243 490 l 243 0 l 100 0 m 526 854 q 480 865 499 854 q 440 893 461 876 q 401 926 414 917 q 376 935 388 935 q 325 854 336 935 l 231 868 q 274 986 233 936 q 383 1036 315 1036 q 430 1025 411 1036 q 469 997 449 1014 q 510 965 497 975 q 533 956 522 956 q 585 1036 574 956 l 679 1022 q 635 904 676 954 q 526 854 594 854 z "},"o":{"ha":854,"x_min":56,"x_max":799,"o":"m 428 -14 q 237 35 321 -14 q 104 170 153 85 q 56 365 56 256 q 104 560 56 475 q 237 695 153 646 q 428 744 321 744 q 617 695 533 744 q 750 560 701 646 q 799 365 799 475 q 750 170 799 256 q 617 35 701 85 q 428 -14 533 -14 m 428 117 q 544 149 493 117 q 625 238 596 182 q 653 365 654 294 q 625 494 654 438 q 544 582 596 550 q 428 614 493 614 q 310 581 363 614 q 229 492 258 549 q 201 365 200 436 q 229 238 200 294 q 310 149 258 182 q 428 117 363 117 z "},"ó":{"ha":854,"x_min":56,"x_max":799,"o":"m 428 -14 q 237 35 321 -14 q 104 170 153 85 q 56 365 56 256 q 104 560 56 475 q 237 695 153 646 q 428 744 321 744 q 617 695 533 744 q 750 560 701 646 q 799 365 799 475 q 750 170 799 256 q 617 35 701 85 q 428 -14 533 -14 m 428 117 q 544 149 493 117 q 625 238 596 182 q 653 365 654 294 q 625 494 654 438 q 544 582 596 550 q 428 614 493 614 q 310 581 363 614 q 229 492 258 549 q 201 365 200 436 q 229 238 200 294 q 310 149 258 182 q 428 117 363 117 m 331 842 l 283 913 l 482 1086 l 572 972 l 331 842 z "},"ŏ":{"ha":854,"x_min":56,"x_max":799,"o":"m 428 -14 q 237 35 321 -14 q 104 170 153 85 q 56 365 56 256 q 104 560 56 475 q 237 695 153 646 q 428 744 321 744 q 617 695 533 744 q 750 560 701 646 q 799 365 799 475 q 750 170 799 256 q 617 35 701 85 q 428 -14 533 -14 m 428 117 q 544 149 493 117 q 625 238 596 182 q 653 365 654 294 q 625 494 654 438 q 544 582 596 550 q 428 614 493 614 q 310 581 363 614 q 229 492 258 549 q 201 365 200 436 q 229 238 200 294 q 310 149 258 182 q 428 117 363 117 m 428 818 q 281 876 339 818 q 203 1032 222 933 l 306 1049 q 355 963 324 994 q 428 931 386 931 q 501 963 469 931 q 550 1049 532 994 l 653 1032 q 575 876 633 933 q 428 818 517 818 z "},"ǒ":{"ha":854,"x_min":56,"x_max":799,"o":"m 428 -14 q 237 35 321 -14 q 104 170 153 85 q 56 365 56 256 q 104 560 56 475 q 237 695 153 646 q 428 744 321 744 q 617 695 533 744 q 750 560 701 646 q 799 365 799 475 q 750 170 799 256 q 617 35 701 85 q 428 -14 533 -14 m 428 117 q 544 149 493 117 q 625 238 596 182 q 653 365 654 294 q 625 494 654 438 q 544 582 596 550 q 428 614 493 614 q 310 581 363 614 q 229 492 258 549 q 201 365 200 436 q 229 238 200 294 q 310 149 258 182 q 428 117 363 117 m 368 843 l 222 1000 l 275 1046 l 428 957 l 581 1046 l 633 1000 l 488 843 l 368 843 z "},"ô":{"ha":854,"x_min":56,"x_max":799,"o":"m 428 -14 q 237 35 321 -14 q 104 170 153 85 q 56 365 56 256 q 104 560 56 475 q 237 695 153 646 q 428 744 321 744 q 617 695 533 744 q 750 560 701 646 q 799 365 799 475 q 750 170 799 256 q 617 35 701 85 q 428 -14 533 -14 m 428 117 q 544 149 493 117 q 625 238 596 182 q 653 365 654 294 q 625 494 654 438 q 544 582 596 550 q 428 614 493 614 q 310 581 363 614 q 229 492 258 549 q 201 365 200 436 q 229 238 200 294 q 310 149 258 182 q 428 117 363 117 m 261 843 l 208 889 l 368 1046 l 488 1046 l 647 889 l 594 843 l 428 933 l 261 843 z "},"ố":{"ha":854,"x_min":56,"x_max":822,"o":"m 428 -14 q 237 35 321 -14 q 104 170 153 85 q 56 365 56 256 q 104 560 56 475 q 237 695 153 646 q 428 744 321 744 q 617 695 533 744 q 750 560 701 646 q 799 365 799 475 q 750 170 799 256 q 617 35 701 85 q 428 -14 533 -14 m 428 117 q 544 149 493 117 q 625 238 596 182 q 653 365 654 294 q 625 494 654 438 q 544 582 596 550 q 428 614 493 614 q 310 581 363 614 q 229 492 258 549 q 201 365 200 436 q 229 238 200 294 q 310 149 258 182 q 428 117 363 117 m 660 1035 l 588 1085 l 701 1288 l 822 1201 l 660 1035 m 261 843 l 208 889 l 368 1046 l 488 1046 l 647 889 l 594 843 l 428 933 l 261 843 z "},"ộ":{"ha":854,"x_min":56,"x_max":799,"o":"m 428 -14 q 237 35 321 -14 q 104 170 153 85 q 56 365 56 256 q 104 560 56 475 q 237 695 153 646 q 428 744 321 744 q 617 695 533 744 q 750 560 701 646 q 799 365 799 475 q 750 170 799 256 q 617 35 701 85 q 428 -14 533 -14 m 428 117 q 544 149 493 117 q 625 238 596 182 q 653 365 654 294 q 625 494 654 438 q 544 582 596 550 q 428 614 493 614 q 310 581 363 614 q 229 492 258 549 q 201 365 200 436 q 229 238 200 294 q 310 149 258 182 q 428 117 363 117 m 428 -286 q 357 -262 382 -286 q 332 -196 332 -239 q 358 -131 332 -156 q 428 -106 383 -106 q 499 -129 474 -106 q 524 -196 524 -153 q 498 -261 524 -236 q 428 -286 472 -286 m 261 843 l 208 889 l 368 1046 l 488 1046 l 647 889 l 594 843 l 428 933 l 261 843 z "},"ồ":{"ha":854,"x_min":56,"x_max":799,"o":"m 428 -14 q 237 35 321 -14 q 104 170 153 85 q 56 365 56 256 q 104 560 56 475 q 237 695 153 646 q 428 744 321 744 q 617 695 533 744 q 750 560 701 646 q 799 365 799 475 q 750 170 799 256 q 617 35 701 85 q 428 -14 533 -14 m 428 117 q 544 149 493 117 q 625 238 596 182 q 653 365 654 294 q 625 494 654 438 q 544 582 596 550 q 428 614 493 614 q 310 581 363 614 q 229 492 258 549 q 201 365 200 436 q 229 238 200 294 q 310 149 258 182 q 428 117 363 117 m 640 1032 l 472 1200 l 592 1288 l 707 1085 l 640 1032 m 261 843 l 208 889 l 368 1046 l 488 1046 l 647 889 l 594 843 l 428 933 l 261 843 z "},"ổ":{"ha":854,"x_min":56,"x_max":799,"o":"m 428 -14 q 237 35 321 -14 q 104 170 153 85 q 56 365 56 256 q 104 560 56 475 q 237 695 153 646 q 428 744 321 744 q 617 695 533 744 q 750 560 701 646 q 799 365 799 475 q 750 170 799 256 q 617 35 701 85 q 428 -14 533 -14 m 428 117 q 544 149 493 117 q 625 238 596 182 q 653 365 654 294 q 625 494 654 438 q 544 582 596 550 q 428 614 493 614 q 310 581 363 614 q 229 492 258 549 q 201 365 200 436 q 229 238 200 294 q 310 149 258 182 q 428 117 363 117 m 628 1017 q 607 1069 607 1044 q 615 1097 607 1082 q 644 1128 622 1113 q 686 1169 686 1156 q 674 1188 686 1182 q 644 1193 663 1193 q 596 1188 622 1193 q 546 1168 569 1183 l 524 1256 q 586 1281 553 1272 q 647 1289 619 1289 q 758 1258 721 1289 q 794 1182 794 1226 q 778 1127 794 1147 q 743 1097 763 1107 q 706 1076 718 1085 q 694 1053 694 1067 q 699 1035 694 1043 l 628 1017 m 261 843 l 208 889 l 368 1046 l 488 1046 l 647 889 l 594 843 l 428 933 l 261 843 z "},"ỗ":{"ha":854,"x_min":56,"x_max":799,"o":"m 428 -14 q 237 35 321 -14 q 104 170 153 85 q 56 365 56 256 q 104 560 56 475 q 237 695 153 646 q 428 744 321 744 q 617 695 533 744 q 750 560 701 646 q 799 365 799 475 q 750 170 799 256 q 617 35 701 85 q 428 -14 533 -14 m 428 117 q 544 149 493 117 q 625 238 596 182 q 653 365 654 294 q 625 494 654 438 q 544 582 596 550 q 428 614 493 614 q 310 581 363 614 q 229 492 258 549 q 201 365 200 436 q 229 238 200 294 q 310 149 258 182 q 428 117 363 117 m 532 1121 q 465 1134 492 1121 q 414 1157 439 1147 q 382 1171 397 1164 q 349 1178 367 1178 q 317 1164 331 1178 q 297 1126 303 1150 l 203 1140 q 244 1242 206 1199 q 335 1286 283 1286 q 392 1273 367 1286 q 442 1249 417 1260 q 476 1234 460 1240 q 506 1228 492 1228 q 557 1281 546 1228 l 651 1267 q 618 1165 649 1208 q 532 1121 588 1121 m 260 843 l 207 889 l 367 1046 l 486 1046 l 646 889 l 593 843 l 426 933 l 260 843 z "},"ȍ":{"ha":854,"x_min":53,"x_max":799,"o":"m 428 -14 q 237 35 321 -14 q 104 170 153 85 q 56 365 56 256 q 104 560 56 475 q 237 695 153 646 q 428 744 321 744 q 617 695 533 744 q 750 560 701 646 q 799 365 799 475 q 750 170 799 256 q 617 35 701 85 q 428 -14 533 -14 m 428 117 q 544 149 493 117 q 625 238 596 182 q 653 365 654 294 q 625 494 654 438 q 544 582 596 550 q 428 614 493 614 q 310 581 363 614 q 229 492 258 549 q 201 365 200 436 q 229 238 200 294 q 310 149 258 182 q 428 117 363 117 m 571 842 l 329 972 l 419 1086 l 618 913 l 571 842 m 294 842 l 53 972 l 143 1086 l 342 913 l 294 842 z "},"ö":{"ha":854,"x_min":56,"x_max":799,"o":"m 428 -14 q 237 35 321 -14 q 104 170 153 85 q 56 365 56 256 q 104 560 56 475 q 237 695 153 646 q 428 744 321 744 q 617 695 533 744 q 750 560 701 646 q 799 365 799 475 q 750 170 799 256 q 617 35 701 85 q 428 -14 533 -14 m 428 117 q 544 149 493 117 q 625 238 596 182 q 653 365 654 294 q 625 494 654 438 q 544 582 596 550 q 428 614 493 614 q 310 581 363 614 q 229 492 258 549 q 201 365 200 436 q 229 238 200 294 q 310 149 258 182 q 428 117 363 117 m 567 892 q 496 915 521 892 q 471 982 471 939 q 497 1047 471 1022 q 567 1072 522 1072 q 638 1049 613 1072 q 663 982 663 1025 q 637 917 663 942 q 567 892 611 892 m 289 892 q 218 915 243 892 q 193 982 193 939 q 219 1047 193 1022 q 289 1072 244 1072 q 360 1049 335 1072 q 385 982 385 1025 q 359 917 385 942 q 289 892 333 892 z "},"ȫ":{"ha":854,"x_min":56,"x_max":799,"o":"m 428 -14 q 237 35 321 -14 q 104 170 153 85 q 56 365 56 256 q 104 560 56 475 q 237 695 153 646 q 428 744 321 744 q 617 695 533 744 q 750 560 701 646 q 799 365 799 475 q 750 170 799 256 q 617 35 701 85 q 428 -14 533 -14 m 428 117 q 544 149 493 117 q 625 238 596 182 q 653 365 654 294 q 625 494 654 438 q 544 582 596 550 q 428 614 493 614 q 310 581 363 614 q 229 492 258 549 q 201 365 200 436 q 229 238 200 294 q 310 149 258 182 q 428 117 363 117 m 567 892 q 496 915 521 892 q 471 982 471 939 q 497 1047 471 1022 q 567 1072 522 1072 q 638 1049 613 1072 q 663 982 663 1025 q 637 917 663 942 q 567 892 611 892 m 289 892 q 218 915 243 892 q 193 982 193 939 q 219 1047 193 1022 q 289 1072 244 1072 q 360 1049 335 1072 q 385 982 385 1025 q 359 917 385 942 q 289 892 333 892 m 231 1149 l 231 1253 l 625 1253 l 625 1149 l 231 1149 z "},"ȱ":{"ha":854,"x_min":56,"x_max":799,"o":"m 428 -14 q 237 35 321 -14 q 104 170 153 85 q 56 365 56 256 q 104 560 56 475 q 237 695 153 646 q 428 744 321 744 q 617 695 533 744 q 750 560 701 646 q 799 365 799 475 q 750 170 799 256 q 617 35 701 85 q 428 -14 533 -14 m 428 117 q 544 149 493 117 q 625 238 596 182 q 653 365 654 294 q 625 494 654 438 q 544 582 596 550 q 428 614 493 614 q 310 581 363 614 q 229 492 258 549 q 201 365 200 436 q 229 238 200 294 q 310 149 258 182 q 428 117 363 117 m 428 890 q 357 914 382 890 q 332 981 332 938 q 358 1046 332 1021 q 428 1071 383 1071 q 499 1047 474 1071 q 524 981 524 1024 q 498 915 524 940 q 428 890 472 890 m 231 1149 l 231 1253 l 625 1253 l 625 1149 l 231 1149 z "},"ọ":{"ha":854,"x_min":56,"x_max":799,"o":"m 428 -14 q 237 35 321 -14 q 104 170 153 85 q 56 365 56 256 q 104 560 56 475 q 237 695 153 646 q 428 744 321 744 q 617 695 533 744 q 750 560 701 646 q 799 365 799 475 q 750 170 799 256 q 617 35 701 85 q 428 -14 533 -14 m 428 117 q 544 149 493 117 q 625 238 596 182 q 653 365 654 294 q 625 494 654 438 q 544 582 596 550 q 428 614 493 614 q 310 581 363 614 q 229 492 258 549 q 201 365 200 436 q 229 238 200 294 q 310 149 258 182 q 428 117 363 117 m 428 -286 q 357 -262 382 -286 q 332 -196 332 -239 q 358 -131 332 -156 q 428 -106 383 -106 q 499 -129 474 -106 q 524 -196 524 -153 q 498 -261 524 -236 q 428 -286 472 -286 z "},"ò":{"ha":854,"x_min":56,"x_max":799,"o":"m 428 -14 q 237 35 321 -14 q 104 170 153 85 q 56 365 56 256 q 104 560 56 475 q 237 695 153 646 q 428 744 321 744 q 617 695 533 744 q 750 560 701 646 q 799 365 799 475 q 750 170 799 256 q 617 35 701 85 q 428 -14 533 -14 m 428 117 q 544 149 493 117 q 625 238 596 182 q 653 365 654 294 q 625 494 654 438 q 544 582 596 550 q 428 614 493 614 q 310 581 363 614 q 229 492 258 549 q 201 365 200 436 q 229 238 200 294 q 310 149 258 182 q 428 117 363 117 m 497 842 l 256 972 l 346 1086 l 544 913 l 497 842 z "},"ỏ":{"ha":854,"x_min":56,"x_max":799,"o":"m 428 -14 q 237 35 321 -14 q 104 170 153 85 q 56 365 56 256 q 104 560 56 475 q 237 695 153 646 q 428 744 321 744 q 617 695 533 744 q 750 560 701 646 q 799 365 799 475 q 750 170 799 256 q 617 35 701 85 q 428 -14 533 -14 m 428 117 q 544 149 493 117 q 625 238 596 182 q 653 365 654 294 q 625 494 654 438 q 544 582 596 550 q 428 614 493 614 q 310 581 363 614 q 229 492 258 549 q 201 365 200 436 q 229 238 200 294 q 310 149 258 182 q 428 117 363 117 m 396 824 q 375 876 375 851 q 383 904 375 889 q 413 935 390 919 q 454 976 454 963 q 442 994 454 989 q 413 1000 431 1000 q 314 975 364 1000 l 292 1063 q 354 1088 321 1079 q 415 1096 388 1096 q 526 1065 489 1096 q 563 989 563 1033 q 547 934 563 954 q 511 904 531 914 q 474 883 486 892 q 463 860 463 874 q 467 842 463 850 l 396 824 z "},"ơ":{"ha":854,"x_min":56,"x_max":799,"o":"m 428 -14 q 237 35 321 -14 q 104 170 153 85 q 56 365 56 256 q 104 560 56 475 q 237 695 153 646 q 428 744 321 744 q 484 740 458 744 q 529 732 510 736 q 552 727 542 729 q 571 725 563 725 q 679 888 679 725 l 793 888 q 765 742 793 804 q 674 654 738 681 q 765 529 732 603 q 799 365 799 456 q 750 170 799 256 q 617 35 701 85 q 428 -14 533 -14 m 428 117 q 544 149 493 117 q 625 238 596 182 q 653 365 654 294 q 625 494 654 438 q 544 582 596 550 q 428 614 493 614 q 310 581 363 614 q 229 492 258 549 q 201 365 200 436 q 229 238 200 294 q 310 149 258 182 q 428 117 363 117 z "}}}
